G04 MADE WITH FRITZING*
G04 WWW.FRITZING.ORG*
G04 DOUBLE SIDED*
G04 HOLES PLATED*
G04 CONTOUR ON CENTER OF CONTOUR VECTOR*
%ASAXBY*%
%FSLAX23Y23*%
%MOIN*%
%OFA0B0*%
%SFA1.0B1.0*%
%ADD10R,0.748031X0.122048*%
%ADD11R,0.129257X0.239826*%
%ADD12R,0.393701X0.122048*%
%ADD13R,0.722221X0.122048*%
%ADD14R,0.157480X0.144443*%
%ADD15R,0.062992X0.354331*%
%ADD16R,0.337183X0.075036*%
%ADD17R,0.070866X0.314961*%
%ADD18R,0.078740X0.314961*%
%ADD19R,0.102362X0.433071*%
%ADD20R,0.171887X0.098425*%
%ADD21R,0.273998X0.275590*%
%ADD22R,0.118517X0.118110*%
%ADD23R,0.137796X0.070866*%
%ADD24R,0.247406X0.081480*%
%ADD25R,0.118517X0.092591*%
%ADD26R,0.118517X0.086614*%
%ADD27R,0.203702X0.144443*%
%ADD28R,0.125984X0.629921*%
%ADD29R,0.511811X0.078740*%
%ADD30R,0.511811X0.125984*%
%ADD31R,0.001000X0.001000*%
%LNPASTEMASK0*%
G90*
G70*
G54D10*
X1627Y1196D03*
G54D11*
X1749Y737D03*
G54D12*
X2501Y1170D03*
G54D13*
X4217Y1296D03*
G54D14*
X4605Y3150D03*
G54D15*
X4338Y1915D03*
G54D16*
X4209Y1654D03*
G54D17*
X4331Y2826D03*
G54D18*
X2138Y3309D03*
G54D19*
X83Y3554D03*
G54D20*
X786Y3862D03*
G54D21*
X3078Y2280D03*
G54D22*
X1840Y1783D03*
X324Y2371D03*
G54D23*
X2662Y3880D03*
G54D24*
X1198Y3548D03*
G54D25*
X3245Y3076D03*
G54D26*
X794Y2853D03*
G54D25*
X2130Y3750D03*
G54D27*
X1683Y3487D03*
G54D28*
X3785Y2166D03*
G54D29*
X1854Y162D03*
G54D30*
X4304Y225D03*
G36*
X2907Y418D02*
X2939Y467D01*
X2985Y437D01*
X2953Y388D01*
X2907Y418D01*
G37*
D02*
G36*
X2974Y374D02*
X3007Y423D01*
X3053Y393D01*
X3021Y344D01*
X2974Y374D01*
G37*
D02*
G36*
X2768Y433D02*
X2817Y467D01*
X2848Y422D01*
X2800Y388D01*
X2768Y433D01*
G37*
D02*
G36*
X2815Y367D02*
X2863Y401D01*
X2895Y356D01*
X2846Y322D01*
X2815Y367D01*
G37*
D02*
G54D31*
D02*
G04 End of PasteMask0*
M02*