G04 MADE WITH FRITZING*
G04 WWW.FRITZING.ORG*
G04 DOUBLE SIDED*
G04 HOLES PLATED*
G04 CONTOUR ON CENTER OF CONTOUR VECTOR*
%ASAXBY*%
%FSLAX23Y23*%
%MOIN*%
%OFA0B0*%
%SFA1.0B1.0*%
%ADD10C,0.078000*%
%ADD11C,0.092000*%
%ADD12C,0.080157*%
%ADD13C,0.165354*%
%ADD14C,0.134646*%
%ADD15C,0.103150*%
%ADD16C,0.063622*%
%ADD17C,0.047244*%
%ADD18C,0.075000*%
%ADD19C,0.082000*%
%ADD20C,0.062992*%
%ADD21R,0.748031X0.122048*%
%ADD22R,0.129257X0.239826*%
%ADD23R,0.393701X0.122048*%
%ADD24R,0.722221X0.122048*%
%ADD25R,0.157480X0.144443*%
%ADD26R,0.062992X0.354331*%
%ADD27R,0.337183X0.075036*%
%ADD28R,0.070866X0.314961*%
%ADD29R,0.078740X0.314961*%
%ADD30R,0.102362X0.433071*%
%ADD31R,0.171887X0.098425*%
%ADD32R,0.273998X0.275590*%
%ADD33R,0.118517X0.118110*%
%ADD34R,0.137796X0.070866*%
%ADD35R,0.247406X0.081480*%
%ADD36R,0.118517X0.092591*%
%ADD37R,0.118517X0.086614*%
%ADD38R,0.203702X0.144443*%
%ADD39R,0.125984X0.629921*%
%ADD40R,0.511811X0.078740*%
%ADD41R,0.511811X0.125984*%
%ADD42R,0.092000X0.092000*%
%ADD43R,0.082000X0.082000*%
%ADD44R,0.080157X0.080157*%
%ADD45R,0.062992X0.062992*%
%ADD46R,0.075000X0.075000*%
%ADD47C,0.064000*%
%ADD48C,0.032000*%
%ADD49C,0.048000*%
%ADD50C,0.024000*%
%ADD51C,0.128000*%
%ADD52C,0.080000*%
%ADD53C,0.090000*%
%ADD54R,0.001000X0.001000*%
%LNCOPPER0*%
G90*
G70*
G54D10*
X1108Y2552D03*
X1208Y2552D03*
X1308Y2552D03*
X1808Y2265D03*
X1808Y2365D03*
X1808Y2465D03*
X1808Y2265D03*
X1808Y2365D03*
X1808Y2465D03*
X1708Y2465D03*
X1708Y2365D03*
X1708Y2265D03*
G54D11*
X3878Y1143D03*
X3878Y1443D03*
X4014Y1143D03*
X4014Y1443D03*
X4150Y1143D03*
X4150Y1443D03*
X4286Y1143D03*
X4286Y1443D03*
X4422Y1143D03*
X4422Y1443D03*
X4558Y1143D03*
X4558Y1443D03*
G54D12*
X383Y2065D03*
X483Y2065D03*
X583Y2065D03*
X683Y2065D03*
X783Y2065D03*
X883Y2065D03*
X983Y2065D03*
X1083Y2065D03*
X1183Y2065D03*
X1283Y2065D03*
X1383Y2065D03*
X1483Y2065D03*
X1583Y2065D03*
X1683Y2065D03*
X1783Y2065D03*
X1883Y2065D03*
X1983Y2065D03*
X2083Y2065D03*
X2183Y2065D03*
X2283Y2065D03*
X383Y2065D03*
X483Y2065D03*
X583Y2065D03*
X683Y2065D03*
X783Y2065D03*
X883Y2065D03*
X983Y2065D03*
X1083Y2065D03*
X1183Y2065D03*
X1283Y2065D03*
X1383Y2065D03*
X1483Y2065D03*
X1583Y2065D03*
X1683Y2065D03*
X1783Y2065D03*
X1883Y2065D03*
X1983Y2065D03*
X2083Y2065D03*
X2183Y2065D03*
X2283Y2065D03*
X2283Y2165D03*
X2183Y2165D03*
X2083Y2165D03*
X1983Y2165D03*
X1883Y2165D03*
X1783Y2165D03*
X1683Y2165D03*
X1583Y2165D03*
X1483Y2165D03*
X1383Y2165D03*
X1283Y2165D03*
X1183Y2165D03*
X1083Y2165D03*
X983Y2165D03*
X883Y2165D03*
X783Y2165D03*
X683Y2165D03*
X583Y2165D03*
X483Y2165D03*
X383Y2165D03*
X1483Y2265D03*
X1583Y2265D03*
X683Y2265D03*
X783Y2265D03*
X883Y2265D03*
X1083Y2265D03*
X1183Y2265D03*
X1283Y2265D03*
X783Y1965D03*
X883Y1965D03*
X983Y1965D03*
X1083Y1965D03*
X1283Y1965D03*
X1383Y1965D03*
X1483Y1965D03*
X1783Y1965D03*
X1883Y1965D03*
X1983Y1965D03*
X2083Y1965D03*
X2183Y1965D03*
X1933Y2265D03*
X2033Y2265D03*
X2133Y2265D03*
X2233Y2265D03*
G54D13*
X1461Y3476D03*
X620Y3476D03*
G54D14*
X688Y2991D03*
G54D15*
X624Y2739D03*
X624Y3222D03*
G54D14*
X138Y3222D03*
G54D16*
X2108Y1440D03*
X2108Y1615D03*
G54D12*
X4158Y865D03*
X3358Y865D03*
X4258Y565D03*
X4458Y565D03*
X4458Y865D03*
X3958Y865D03*
X4058Y865D03*
X3458Y565D03*
X3258Y565D03*
X3358Y565D03*
X3458Y865D03*
X4158Y565D03*
X4558Y565D03*
X3958Y565D03*
X4258Y865D03*
X3558Y565D03*
X4358Y565D03*
X3858Y865D03*
X4058Y565D03*
X3858Y565D03*
X3758Y865D03*
X4558Y865D03*
X3658Y865D03*
X4358Y865D03*
X1583Y1340D03*
X783Y1340D03*
X1683Y1040D03*
X1883Y1040D03*
X1883Y1340D03*
X1383Y1340D03*
X1483Y1340D03*
X883Y1040D03*
X683Y1040D03*
X783Y1040D03*
X883Y1340D03*
X1583Y1040D03*
X1983Y1040D03*
X1383Y1040D03*
X1683Y1340D03*
X983Y1040D03*
X1783Y1040D03*
X1283Y1340D03*
X1483Y1040D03*
X1283Y1040D03*
X1183Y1340D03*
X1983Y1340D03*
X1083Y1340D03*
X1783Y1340D03*
X3083Y540D03*
X2983Y540D03*
X2883Y540D03*
X2783Y540D03*
X2683Y540D03*
X2583Y540D03*
X1983Y540D03*
X2983Y840D03*
X2583Y840D03*
X2283Y840D03*
X1883Y540D03*
X2883Y840D03*
X2383Y540D03*
X3083Y840D03*
X2683Y840D03*
X2383Y840D03*
X1983Y840D03*
X1783Y540D03*
X2483Y540D03*
X2083Y540D03*
X2783Y840D03*
X2483Y840D03*
X2183Y840D03*
X1883Y840D03*
G54D16*
X2658Y1715D03*
X2083Y740D03*
X1883Y740D03*
G54D12*
X1908Y340D03*
X2208Y140D03*
X2208Y340D03*
X1808Y340D03*
X1508Y140D03*
G54D16*
X3614Y1190D03*
G54D12*
X833Y940D03*
X783Y865D03*
G54D16*
X2208Y1190D03*
X2583Y327D03*
X1158Y1190D03*
X483Y602D03*
X483Y777D03*
G54D17*
X1258Y1827D03*
X1108Y1865D03*
X1108Y1715D03*
X1258Y1715D03*
X583Y1415D03*
X483Y1427D03*
G54D16*
X3221Y2740D03*
X3221Y2827D03*
X3508Y2740D03*
X3536Y2501D03*
G54D12*
X3194Y2530D03*
X496Y2765D03*
X4659Y1616D03*
X496Y2865D03*
X3833Y2665D03*
X3733Y2590D03*
X1433Y2590D03*
X3637Y987D03*
X2269Y940D03*
X1183Y1440D03*
X1308Y3065D03*
X3564Y1062D03*
X2258Y1040D03*
X1071Y1515D03*
X4662Y572D03*
X4662Y472D03*
X4662Y372D03*
X4662Y272D03*
X4662Y172D03*
X4662Y72D03*
X4108Y1040D03*
X4008Y1040D03*
X3908Y1040D03*
X4519Y1040D03*
X4419Y1040D03*
X4319Y1040D03*
X4558Y1543D03*
X4458Y1543D03*
X4358Y1543D03*
X4258Y1543D03*
X4158Y1543D03*
X4058Y1543D03*
X4531Y466D03*
X4431Y466D03*
X4331Y466D03*
X4231Y466D03*
X4131Y466D03*
X4031Y466D03*
X1258Y3140D03*
X1333Y2665D03*
X1033Y2665D03*
X1333Y2965D03*
X1333Y2765D03*
X1333Y2865D03*
X1033Y2765D03*
X1033Y2965D03*
X1033Y2865D03*
X1433Y3240D03*
X1433Y2940D03*
X1633Y3240D03*
X1633Y2940D03*
X944Y2615D03*
X944Y2826D03*
X1744Y3237D03*
X1872Y3340D03*
X2308Y2990D03*
X2194Y3629D03*
X2197Y3540D03*
X2258Y3440D03*
X2258Y3140D03*
X1958Y3340D03*
X2258Y3340D03*
X2258Y3240D03*
X1958Y3140D03*
X1958Y3440D03*
X1958Y3240D03*
X2394Y3701D03*
X2494Y3601D03*
X2294Y3601D03*
G54D18*
X919Y2919D03*
X1015Y3203D03*
X1951Y2947D03*
X2307Y2766D03*
X1728Y3339D03*
X1728Y3639D03*
X4283Y3490D03*
X4583Y3490D03*
X2652Y2444D03*
X2559Y2730D03*
X1866Y3436D03*
X1773Y3721D03*
G54D19*
X823Y2727D03*
X823Y3025D03*
G54D12*
X1708Y2815D03*
X1608Y2815D03*
X2608Y3765D03*
X2913Y3250D03*
X2913Y3350D03*
X2914Y3455D03*
X2914Y3555D03*
X2708Y3665D03*
X2608Y3665D03*
X1183Y1540D03*
X1183Y1640D03*
X2133Y440D03*
X2033Y440D03*
X1663Y440D03*
X1563Y440D03*
X1233Y265D03*
X1133Y265D03*
X2958Y2565D03*
X2958Y1665D03*
X2678Y2879D03*
X2678Y2779D03*
X3400Y154D03*
X3500Y154D03*
X3798Y154D03*
X3898Y154D03*
X3600Y154D03*
X3700Y154D03*
X3300Y120D03*
X3300Y220D03*
X1508Y765D03*
X1608Y765D03*
X3097Y154D03*
X3197Y154D03*
X2897Y154D03*
X2997Y154D03*
X2697Y154D03*
X2797Y154D03*
X1583Y1965D03*
X1683Y1965D03*
X3058Y3815D03*
X3158Y3815D03*
X3258Y3815D03*
X3358Y3815D03*
X3458Y3815D03*
X3558Y3815D03*
X3933Y3815D03*
X4033Y3815D03*
X4133Y3815D03*
X4233Y3815D03*
X4333Y3815D03*
X4433Y3815D03*
X2811Y3390D03*
X3522Y3390D03*
X3522Y3668D03*
X4637Y3643D03*
X3758Y3643D03*
X2813Y3668D03*
X3926Y3643D03*
X3047Y3643D03*
X3785Y3832D03*
X3685Y3832D03*
X4660Y3831D03*
X4560Y3831D03*
X4629Y2261D03*
X4629Y2361D03*
X4629Y1722D03*
X4629Y1822D03*
X128Y1591D03*
X128Y1491D03*
X410Y1152D03*
X410Y1052D03*
X410Y952D03*
X410Y1152D03*
X410Y1052D03*
X410Y952D03*
X510Y952D03*
X510Y1052D03*
X510Y1152D03*
X483Y1965D03*
X483Y1865D03*
X483Y1765D03*
X483Y1665D03*
X483Y1565D03*
X483Y1965D03*
X483Y1865D03*
X483Y1765D03*
X483Y1665D03*
X483Y1565D03*
X583Y1565D03*
X583Y1665D03*
X583Y1765D03*
X583Y1865D03*
X583Y1965D03*
X83Y2415D03*
X83Y2315D03*
X83Y2215D03*
X83Y2115D03*
X83Y2015D03*
X83Y1915D03*
X83Y1815D03*
X83Y1715D03*
X83Y2415D03*
X83Y2315D03*
X83Y2215D03*
X83Y2115D03*
X83Y2015D03*
X83Y1915D03*
X83Y1815D03*
X83Y1715D03*
X183Y1715D03*
X183Y1815D03*
X183Y1915D03*
X183Y2015D03*
X183Y2115D03*
X183Y2215D03*
X183Y2315D03*
X183Y2415D03*
X2458Y2565D03*
X2458Y2465D03*
X2458Y2365D03*
X2458Y2265D03*
X2458Y2165D03*
X2458Y2065D03*
X2458Y1965D03*
X2458Y1865D03*
X2458Y1765D03*
X1983Y1440D03*
X1883Y1440D03*
X1783Y1440D03*
X1683Y1440D03*
X1583Y1440D03*
X1483Y1440D03*
X1383Y1440D03*
X1283Y1440D03*
X1983Y940D03*
X1883Y940D03*
X1783Y940D03*
X1683Y940D03*
X1583Y940D03*
X1483Y940D03*
X1383Y940D03*
X1283Y940D03*
X83Y390D03*
X83Y490D03*
X83Y590D03*
X83Y690D03*
X83Y790D03*
X4121Y3327D03*
X4021Y3327D03*
X3921Y3327D03*
X3821Y3327D03*
X3721Y3327D03*
X183Y990D03*
X183Y1090D03*
X183Y1190D03*
X183Y1290D03*
X83Y990D03*
X83Y1090D03*
X83Y1190D03*
X83Y1290D03*
X4621Y3327D03*
X4521Y3327D03*
X4421Y3327D03*
X4321Y3327D03*
X1306Y690D03*
X1306Y590D03*
X1306Y490D03*
X1306Y390D03*
X1008Y790D03*
X1008Y690D03*
X1008Y590D03*
X1008Y490D03*
X1008Y390D03*
X708Y790D03*
X708Y690D03*
X708Y590D03*
X708Y490D03*
X708Y390D03*
G54D18*
X3446Y3293D03*
X3114Y3517D03*
G54D12*
X4136Y2554D03*
X3636Y2501D03*
X3936Y2501D03*
X3636Y2401D03*
X3936Y2401D03*
X3636Y2301D03*
X3936Y2301D03*
X3636Y2201D03*
X3936Y2201D03*
X3636Y2101D03*
X3936Y2101D03*
X3636Y2001D03*
X3936Y2001D03*
X3636Y1901D03*
X3936Y1901D03*
X3636Y1801D03*
X3936Y1801D03*
X3636Y1701D03*
X3936Y1701D03*
X3636Y1601D03*
X3936Y1601D03*
X3536Y2154D03*
X3536Y2254D03*
X3536Y2354D03*
X3536Y1651D03*
X3536Y1751D03*
X3536Y1851D03*
X4036Y1762D03*
X4036Y1862D03*
X4036Y1962D03*
X4036Y2151D03*
X4036Y2251D03*
X4036Y2351D03*
X3436Y2451D03*
X3436Y2351D03*
X3436Y2251D03*
X3436Y2151D03*
X4136Y2451D03*
X4136Y2351D03*
X4136Y2251D03*
X4136Y2151D03*
X3336Y1651D03*
X3336Y1751D03*
X3336Y1851D03*
X3436Y1648D03*
X3436Y1748D03*
X3436Y1848D03*
X3336Y2154D03*
X3336Y2254D03*
X3336Y2354D03*
X4136Y1762D03*
X4136Y1862D03*
X4136Y1962D03*
X2858Y2356D03*
X2858Y2456D03*
X2858Y2556D03*
X2858Y2656D03*
X483Y3865D03*
X383Y3865D03*
X283Y3865D03*
X183Y3865D03*
X2758Y2356D03*
X2758Y2456D03*
X2758Y2556D03*
X2758Y2656D03*
X1258Y3865D03*
X1158Y3865D03*
X1058Y3865D03*
X958Y3865D03*
X2283Y3865D03*
X2183Y3865D03*
X2083Y3865D03*
X1983Y3865D03*
X1883Y3865D03*
X1783Y3865D03*
X2572Y3220D03*
X2572Y3320D03*
X2572Y3420D03*
X2572Y3520D03*
X2672Y3220D03*
X2672Y3320D03*
X2672Y3420D03*
X2672Y3520D03*
X4236Y1762D03*
X4236Y1862D03*
X4236Y1962D03*
X4236Y2151D03*
X4236Y2251D03*
X4236Y2351D03*
X3336Y2451D03*
X533Y165D03*
X433Y165D03*
X3283Y1315D03*
X3283Y1215D03*
X3283Y1115D03*
X3283Y1015D03*
X311Y1872D03*
X311Y1772D03*
X311Y1672D03*
X311Y1572D03*
X311Y1472D03*
X4556Y2979D03*
X4556Y2879D03*
X4556Y2779D03*
X4556Y2679D03*
X4556Y2579D03*
X4556Y2479D03*
X4656Y2979D03*
X4656Y2879D03*
X4656Y2779D03*
X4656Y2679D03*
X4656Y2579D03*
X4656Y2479D03*
X4443Y2979D03*
X4443Y2879D03*
X4443Y2779D03*
X4443Y2679D03*
X4443Y2579D03*
X4443Y2479D03*
X4443Y2379D03*
X4443Y2279D03*
X321Y577D03*
X321Y477D03*
X321Y377D03*
X746Y1704D03*
X746Y1604D03*
X746Y1504D03*
X4442Y2140D03*
X4442Y2040D03*
X4442Y1940D03*
X4442Y1840D03*
X4442Y1740D03*
X4556Y2140D03*
X4556Y2040D03*
X4556Y1940D03*
X4656Y2140D03*
X4656Y2040D03*
X4656Y1940D03*
X1031Y165D03*
X931Y165D03*
X831Y165D03*
X4031Y70D03*
X4031Y370D03*
X4131Y70D03*
X4131Y370D03*
X4231Y70D03*
X4231Y370D03*
X4331Y70D03*
X4331Y370D03*
X4431Y70D03*
X4431Y370D03*
X4531Y70D03*
X4531Y370D03*
X2361Y1015D03*
X2361Y1315D03*
X2461Y1015D03*
X2461Y1315D03*
X2561Y1015D03*
X2561Y1315D03*
X2661Y1015D03*
X2661Y1315D03*
X2761Y1015D03*
X2761Y1315D03*
X2861Y1015D03*
X2861Y1315D03*
X2961Y1015D03*
X2961Y1315D03*
X3061Y1015D03*
X3061Y1315D03*
X3161Y1015D03*
X3161Y1315D03*
X2361Y1415D03*
X2461Y1415D03*
X2561Y1415D03*
X2661Y1415D03*
X2761Y1415D03*
X2861Y1415D03*
X2961Y1415D03*
X3061Y1415D03*
X3161Y1415D03*
X3514Y1315D03*
X3713Y1314D03*
X4217Y2977D03*
X4217Y2877D03*
X4217Y2777D03*
X3669Y2983D03*
X3569Y2983D03*
X3469Y2983D03*
X3369Y2983D03*
X481Y2515D03*
X581Y2515D03*
G54D20*
X2484Y2855D03*
X2582Y2855D03*
X3498Y279D03*
X3400Y279D03*
X3800Y279D03*
X3898Y279D03*
X3602Y279D03*
X3700Y279D03*
X3252Y356D03*
X3350Y356D03*
X1510Y627D03*
X1608Y627D03*
X3099Y279D03*
X3197Y279D03*
X2899Y279D03*
X2997Y279D03*
X2699Y279D03*
X2797Y279D03*
X1621Y1741D03*
X1621Y1840D03*
G54D18*
X2774Y3088D03*
X2774Y2988D03*
X2461Y3354D03*
X2361Y3354D03*
X1758Y2940D03*
X1758Y3040D03*
X1758Y3140D03*
G54D21*
X1627Y1196D03*
G54D22*
X1749Y737D03*
G54D23*
X2501Y1170D03*
G54D24*
X4217Y1296D03*
G54D25*
X4605Y3150D03*
G54D26*
X4338Y1915D03*
G54D27*
X4209Y1654D03*
G54D28*
X4331Y2826D03*
G54D29*
X2138Y3309D03*
G54D30*
X83Y3554D03*
G54D31*
X786Y3862D03*
G54D32*
X3078Y2280D03*
G54D33*
X1840Y1783D03*
X324Y2371D03*
G54D34*
X2662Y3880D03*
G54D35*
X1198Y3548D03*
G54D36*
X3245Y3076D03*
G54D37*
X794Y2853D03*
G54D36*
X2130Y3750D03*
G54D38*
X1683Y3487D03*
G54D39*
X3785Y2166D03*
G54D40*
X1854Y162D03*
G54D41*
X4304Y225D03*
G54D42*
X3878Y1143D03*
X4014Y1143D03*
X4150Y1143D03*
X4286Y1143D03*
X4422Y1143D03*
X4558Y1143D03*
G54D43*
X823Y2726D03*
G54D44*
X3785Y3832D03*
X4660Y3831D03*
X4629Y2261D03*
X4629Y1722D03*
X128Y1591D03*
X3636Y2501D03*
X4031Y70D03*
X2361Y1015D03*
G54D45*
X2484Y2855D03*
X3498Y279D03*
X3800Y279D03*
X3602Y279D03*
X3252Y356D03*
X1510Y627D03*
X3099Y279D03*
X2899Y279D03*
X2699Y279D03*
X1621Y1741D03*
G54D46*
X2774Y3088D03*
X2461Y3354D03*
G54D47*
X3870Y714D02*
X4670Y714D01*
D02*
X3607Y588D02*
X3870Y714D01*
D02*
X4670Y714D02*
X4660Y1563D01*
G54D48*
D02*
X3426Y2803D02*
X3619Y2878D01*
D02*
X3619Y2878D02*
X3653Y2950D01*
D02*
X3248Y2748D02*
X3426Y2803D01*
D02*
X3537Y2907D02*
X3248Y2834D01*
D02*
X3555Y2949D02*
X3537Y2907D01*
D02*
X2950Y3548D02*
X3080Y3523D01*
D02*
X4483Y3240D02*
X4243Y3003D01*
D02*
X4506Y3294D02*
X4483Y3240D01*
D02*
X4397Y3265D02*
X4114Y3020D01*
D02*
X4114Y3020D02*
X4114Y2929D01*
D02*
X4114Y2929D02*
X4184Y2894D01*
D02*
X4408Y3293D02*
X4397Y3265D01*
D02*
X4022Y2940D02*
X4111Y2804D01*
D02*
X4022Y3026D02*
X4022Y2940D01*
D02*
X4111Y2804D02*
X4181Y2786D01*
D02*
X4295Y3301D02*
X4022Y3026D01*
G54D49*
D02*
X4443Y2521D02*
X4443Y2536D01*
D02*
X4443Y2421D02*
X4443Y2436D01*
D02*
X4443Y2321D02*
X4443Y2336D01*
D02*
X4556Y2721D02*
X4556Y2736D01*
D02*
X4556Y2621D02*
X4556Y2636D01*
D02*
X4556Y2521D02*
X4556Y2536D01*
D02*
X4656Y2721D02*
X4656Y2736D01*
D02*
X4656Y2621D02*
X4656Y2636D01*
D02*
X4656Y2521D02*
X4656Y2536D01*
D02*
X4598Y2679D02*
X4613Y2679D01*
D02*
X4598Y2579D02*
X4613Y2579D01*
D02*
X4598Y2479D02*
X4613Y2479D01*
D02*
X4485Y2679D02*
X4513Y2679D01*
D02*
X4485Y2579D02*
X4513Y2579D01*
D02*
X4485Y2479D02*
X4513Y2479D01*
D02*
X4646Y2437D02*
X4638Y2403D01*
D02*
X4485Y2375D02*
X4587Y2365D01*
D02*
X4485Y2275D02*
X4587Y2265D01*
G54D48*
D02*
X410Y1089D02*
X410Y1116D01*
D02*
X410Y989D02*
X410Y1016D01*
D02*
X510Y1089D02*
X510Y1116D01*
D02*
X510Y989D02*
X510Y1016D01*
D02*
X321Y514D02*
X321Y541D01*
D02*
X321Y414D02*
X321Y441D01*
D02*
X1719Y1743D02*
X1653Y1742D01*
D02*
X2500Y2827D02*
X2541Y2759D01*
D02*
X3032Y465D02*
X3223Y371D01*
D02*
X3003Y509D02*
X3032Y465D01*
G54D49*
D02*
X732Y1464D02*
X683Y1327D01*
D02*
X683Y1327D02*
X397Y1365D01*
D02*
X1183Y1789D02*
X1183Y1682D01*
D02*
X1183Y1889D02*
X1183Y1789D01*
D02*
X772Y1790D02*
X758Y1744D01*
D02*
X1183Y1789D02*
X772Y1790D01*
D02*
X397Y1365D02*
X397Y1987D01*
D02*
X1183Y2022D02*
X1183Y1889D01*
D02*
X397Y1987D02*
X390Y2023D01*
G54D48*
D02*
X883Y1140D02*
X883Y1303D01*
D02*
X546Y1151D02*
X883Y1140D01*
D02*
X483Y1902D02*
X483Y1928D01*
D02*
X483Y1802D02*
X483Y1828D01*
D02*
X483Y1702D02*
X483Y1728D01*
D02*
X483Y1602D02*
X483Y1628D01*
D02*
X583Y1602D02*
X583Y1628D01*
D02*
X583Y1728D02*
X583Y1702D01*
D02*
X583Y1828D02*
X583Y1802D01*
D02*
X583Y1928D02*
X583Y1902D01*
G54D49*
D02*
X1250Y2552D02*
X1267Y2552D01*
D02*
X1150Y2552D02*
X1167Y2552D01*
G54D48*
D02*
X4527Y1004D02*
X4550Y901D01*
D02*
X4427Y1004D02*
X4450Y901D01*
D02*
X4327Y1004D02*
X4350Y901D01*
D02*
X4211Y1037D02*
X4249Y900D01*
D02*
X4145Y1039D02*
X4211Y1037D01*
G54D50*
D02*
X4044Y974D02*
X4119Y937D01*
D02*
X4119Y937D02*
X4143Y892D01*
D02*
X4023Y1012D02*
X4044Y974D01*
D02*
X4046Y911D02*
X4050Y895D01*
D02*
X3957Y972D02*
X4046Y911D01*
D02*
X3927Y1015D02*
X3957Y972D01*
G54D48*
D02*
X3890Y1102D02*
X3898Y1075D01*
D02*
X4012Y1100D02*
X4010Y1076D01*
D02*
X4134Y1103D02*
X4122Y1074D01*
D02*
X4299Y1102D02*
X4308Y1075D01*
D02*
X4421Y1100D02*
X4420Y1077D01*
D02*
X4543Y1103D02*
X4532Y1074D01*
G54D47*
D02*
X2352Y254D02*
X2483Y334D01*
D02*
X2483Y334D02*
X2538Y330D01*
D02*
X2328Y51D02*
X2352Y254D01*
G54D48*
D02*
X1234Y54D02*
X1234Y228D01*
D02*
X1028Y54D02*
X1030Y128D01*
G54D49*
D02*
X1408Y51D02*
X2328Y51D01*
G54D47*
D02*
X1234Y54D02*
X1408Y51D01*
D02*
X1028Y54D02*
X1234Y54D01*
D02*
X483Y54D02*
X1028Y54D01*
G54D48*
D02*
X448Y131D02*
X483Y54D01*
G54D49*
D02*
X1826Y3865D02*
X1841Y3865D01*
D02*
X1926Y3865D02*
X1941Y3865D01*
D02*
X4513Y2979D02*
X4485Y2979D01*
D02*
X4513Y2879D02*
X4485Y2879D01*
D02*
X4513Y2779D02*
X4485Y2779D01*
D02*
X4443Y2936D02*
X4443Y2921D01*
D02*
X4443Y2836D02*
X4443Y2821D01*
D02*
X4443Y2736D02*
X4443Y2721D01*
D02*
X4443Y2636D02*
X4443Y2621D01*
D02*
X3203Y1015D02*
X3241Y1015D01*
D02*
X1158Y3690D02*
X1158Y3822D01*
D02*
X1058Y3690D02*
X1058Y3822D01*
D02*
X958Y3690D02*
X958Y3822D01*
D02*
X1258Y3690D02*
X1258Y3822D01*
D02*
X3283Y1257D02*
X3283Y1272D01*
D02*
X3283Y1157D02*
X3283Y1172D01*
D02*
X3283Y1072D02*
X3283Y1057D01*
G54D48*
D02*
X820Y1040D02*
X847Y1040D01*
D02*
X720Y1040D02*
X747Y1040D01*
G54D49*
D02*
X3416Y565D02*
X3401Y565D01*
D02*
X3516Y565D02*
X3501Y565D01*
G54D48*
D02*
X3758Y790D02*
X3558Y638D01*
D02*
X3558Y638D02*
X3558Y602D01*
D02*
X3758Y828D02*
X3758Y790D01*
D02*
X4548Y529D02*
X4541Y501D01*
D02*
X4441Y501D02*
X4448Y529D01*
D02*
X4341Y501D02*
X4348Y529D01*
D02*
X4248Y529D02*
X4241Y501D01*
D02*
X4148Y529D02*
X4141Y501D01*
D02*
X4048Y529D02*
X4041Y501D01*
D02*
X1183Y1403D02*
X1183Y1377D01*
D02*
X1283Y1403D02*
X1283Y1377D01*
D02*
X1383Y1403D02*
X1383Y1377D01*
D02*
X1483Y1403D02*
X1483Y1377D01*
D02*
X1583Y1403D02*
X1583Y1377D01*
D02*
X1683Y1403D02*
X1683Y1377D01*
D02*
X1783Y1403D02*
X1783Y1377D01*
D02*
X1883Y1403D02*
X1883Y1377D01*
D02*
X1983Y1403D02*
X1983Y1377D01*
D02*
X1983Y977D02*
X1983Y1003D01*
D02*
X1883Y1003D02*
X1883Y977D01*
D02*
X1783Y1003D02*
X1783Y977D01*
D02*
X1683Y1003D02*
X1683Y977D01*
D02*
X1583Y1003D02*
X1583Y977D01*
D02*
X1483Y1003D02*
X1483Y977D01*
D02*
X1383Y1003D02*
X1383Y977D01*
D02*
X1283Y1003D02*
X1283Y977D01*
G54D49*
D02*
X4136Y1804D02*
X4136Y1820D01*
D02*
X2572Y3278D02*
X2572Y3263D01*
D02*
X2572Y3378D02*
X2572Y3363D01*
D02*
X2572Y3478D02*
X2572Y3463D01*
G54D47*
D02*
X1433Y3186D02*
X1433Y2993D01*
D02*
X1633Y3186D02*
X1633Y2993D01*
G54D48*
D02*
X2295Y3345D02*
X2327Y3349D01*
G54D49*
D02*
X226Y3865D02*
X241Y3865D01*
D02*
X341Y3865D02*
X326Y3865D01*
D02*
X426Y3865D02*
X441Y3865D01*
G54D48*
D02*
X1847Y540D02*
X1820Y540D01*
D02*
X1947Y540D02*
X1920Y540D01*
D02*
X2047Y540D02*
X2020Y540D01*
D02*
X3066Y978D02*
X3079Y876D01*
D02*
X2966Y978D02*
X2979Y876D01*
D02*
X2866Y978D02*
X2879Y876D01*
D02*
X2766Y978D02*
X2779Y876D01*
D02*
X2666Y978D02*
X2679Y876D01*
D02*
X2566Y978D02*
X2579Y876D01*
D02*
X2466Y978D02*
X2479Y876D01*
D02*
X2366Y978D02*
X2379Y876D01*
D02*
X1608Y728D02*
X1608Y660D01*
D02*
X4031Y429D02*
X4031Y407D01*
G54D49*
D02*
X311Y1530D02*
X311Y1514D01*
D02*
X311Y1630D02*
X311Y1614D01*
D02*
X311Y1730D02*
X311Y1714D01*
D02*
X311Y1830D02*
X311Y1814D01*
D02*
X1583Y2007D02*
X1583Y2022D01*
D02*
X1610Y1876D02*
X1595Y1924D01*
D02*
X1758Y2215D02*
X1764Y2203D01*
D02*
X1737Y2236D02*
X1758Y2215D01*
D02*
X1798Y2225D02*
X1794Y2206D01*
D02*
X1750Y2265D02*
X1767Y2265D01*
D02*
X1808Y2324D02*
X1808Y2306D01*
D02*
X1708Y2324D02*
X1708Y2306D01*
D02*
X1750Y2365D02*
X1767Y2365D01*
D02*
X1808Y2406D02*
X1808Y2424D01*
D02*
X1708Y2406D02*
X1708Y2424D01*
D02*
X1767Y2465D02*
X1750Y2465D01*
D02*
X4629Y2304D02*
X4629Y2319D01*
D02*
X4556Y2836D02*
X4556Y2821D01*
D02*
X4656Y2836D02*
X4656Y2821D01*
D02*
X4598Y2779D02*
X4613Y2779D01*
D02*
X4598Y2879D02*
X4613Y2879D01*
D02*
X4598Y2979D02*
X4613Y2979D01*
D02*
X4656Y2936D02*
X4656Y2921D01*
D02*
X4556Y2936D02*
X4556Y2921D01*
G54D48*
D02*
X3368Y329D02*
X3382Y306D01*
D02*
X2758Y2393D02*
X2758Y2420D01*
D02*
X2858Y2420D02*
X2858Y2393D01*
D02*
X2858Y2520D02*
X2858Y2493D01*
D02*
X2758Y2520D02*
X2758Y2493D01*
D02*
X2758Y2620D02*
X2758Y2593D01*
D02*
X2858Y2620D02*
X2858Y2593D01*
G54D49*
D02*
X4236Y2293D02*
X4236Y2309D01*
D02*
X4236Y2193D02*
X4236Y2209D01*
D02*
X4236Y1904D02*
X4236Y1920D01*
D02*
X4236Y1804D02*
X4236Y1820D01*
D02*
X3336Y2296D02*
X3336Y2311D01*
D02*
X3336Y2196D02*
X3336Y2211D01*
D02*
X3336Y1793D02*
X3336Y1809D01*
D02*
X3336Y1693D02*
X3336Y1709D01*
D02*
X4484Y1736D02*
X4587Y1726D01*
D02*
X4484Y1836D02*
X4587Y1826D01*
G54D48*
D02*
X3536Y1951D02*
X3603Y1917D01*
D02*
X3536Y2117D02*
X3536Y1951D01*
D02*
X3831Y1576D02*
X3753Y1426D01*
D02*
X3753Y1426D02*
X3430Y1416D01*
D02*
X3434Y943D02*
X3448Y900D01*
D02*
X3430Y1416D02*
X3434Y943D01*
D02*
X3900Y1592D02*
X3831Y1576D01*
D02*
X2233Y367D02*
X2359Y512D01*
D02*
X2483Y465D02*
X2483Y503D01*
D02*
X2234Y254D02*
X2483Y465D01*
D02*
X1831Y261D02*
X2234Y254D01*
D02*
X1819Y305D02*
X1831Y261D01*
D02*
X1693Y419D02*
X1778Y361D01*
D02*
X2155Y410D02*
X2186Y369D01*
D02*
X1510Y660D02*
X1509Y728D01*
D02*
X2686Y503D02*
X2697Y311D01*
D02*
X2698Y190D02*
X2698Y246D01*
D02*
X2797Y190D02*
X2797Y246D01*
D02*
X2898Y190D02*
X2898Y246D01*
D02*
X2865Y342D02*
X2884Y307D01*
D02*
X2791Y504D02*
X2803Y451D01*
D02*
X2997Y190D02*
X2997Y246D01*
D02*
X3054Y343D02*
X3080Y305D01*
D02*
X3029Y367D02*
X3054Y343D01*
D02*
X2901Y508D02*
X2934Y449D01*
D02*
X3098Y190D02*
X3098Y246D01*
D02*
X3197Y190D02*
X3197Y246D01*
D02*
X3370Y943D02*
X3364Y901D01*
D02*
X3366Y1487D02*
X3370Y943D01*
G54D50*
D02*
X3774Y963D02*
X3728Y1026D01*
D02*
X3828Y928D02*
X3774Y963D01*
D02*
X3728Y1026D02*
X3627Y1171D01*
D02*
X3845Y893D02*
X3828Y928D01*
D02*
X3828Y998D02*
X3917Y929D01*
D02*
X3917Y929D02*
X3941Y891D01*
D02*
X3787Y1057D02*
X3828Y998D01*
D02*
X3722Y1284D02*
X3787Y1057D01*
G54D49*
D02*
X4388Y70D02*
X4373Y70D01*
D02*
X4488Y70D02*
X4473Y70D01*
G54D48*
D02*
X4131Y407D02*
X4131Y429D01*
D02*
X4231Y407D02*
X4231Y429D01*
D02*
X4331Y407D02*
X4331Y429D01*
D02*
X4431Y429D02*
X4431Y407D01*
D02*
X4531Y407D02*
X4531Y429D01*
D02*
X3941Y533D02*
X3816Y307D01*
D02*
X3898Y190D02*
X3898Y246D01*
D02*
X3800Y246D02*
X3799Y190D01*
D02*
X3700Y246D02*
X3700Y190D01*
D02*
X3601Y246D02*
X3600Y190D01*
D02*
X3499Y246D02*
X3500Y190D01*
D02*
X3400Y246D02*
X3400Y190D01*
D02*
X3632Y403D02*
X3609Y310D01*
D02*
X3828Y543D02*
X3632Y403D01*
D02*
X3170Y489D02*
X3446Y451D01*
D02*
X3446Y451D02*
X3489Y310D01*
D02*
X3115Y521D02*
X3170Y489D01*
D02*
X3365Y142D02*
X3335Y132D01*
D02*
X3262Y326D02*
X3288Y255D01*
G54D49*
D02*
X4662Y130D02*
X4662Y114D01*
D02*
X4662Y230D02*
X4662Y214D01*
D02*
X4662Y330D02*
X4662Y314D01*
D02*
X4662Y430D02*
X4662Y414D01*
D02*
X4662Y530D02*
X4662Y514D01*
D02*
X4646Y1899D02*
X4638Y1863D01*
D02*
X4556Y1997D02*
X4556Y1982D01*
D02*
X746Y1561D02*
X746Y1546D01*
D02*
X4442Y1997D02*
X4442Y1982D01*
D02*
X4656Y1997D02*
X4656Y1982D01*
D02*
X4556Y2097D02*
X4556Y2082D01*
D02*
X746Y1661D02*
X746Y1646D01*
D02*
X4442Y2097D02*
X4442Y2082D01*
D02*
X4656Y2097D02*
X4656Y2082D01*
D02*
X4613Y1940D02*
X4598Y1940D01*
D02*
X4613Y2040D02*
X4598Y2040D01*
D02*
X4613Y2140D02*
X4598Y2140D01*
D02*
X4513Y2140D02*
X4484Y2140D01*
D02*
X4513Y2040D02*
X4484Y2040D01*
D02*
X4513Y1940D02*
X4484Y1940D01*
D02*
X4442Y1882D02*
X4442Y1897D01*
D02*
X4442Y1797D02*
X4442Y1782D01*
G54D48*
D02*
X3147Y2976D02*
X3332Y2982D01*
D02*
X3583Y3074D02*
X3575Y3019D01*
G54D50*
D02*
X3692Y949D02*
X3663Y969D01*
D02*
X3739Y889D02*
X3692Y949D01*
G54D48*
D02*
X2278Y876D02*
X2275Y903D01*
D02*
X3590Y1036D02*
X3612Y1013D01*
D02*
X2262Y1003D02*
X2265Y976D01*
D02*
X2083Y1339D02*
X2101Y1412D01*
D02*
X2083Y840D02*
X2083Y1339D01*
D02*
X2020Y840D02*
X2083Y840D01*
D02*
X2857Y1531D02*
X3366Y1487D01*
D02*
X2247Y1075D02*
X2217Y1163D01*
D02*
X1583Y540D02*
X1409Y535D01*
D02*
X1747Y540D02*
X1583Y540D01*
D02*
X1983Y640D02*
X1983Y803D01*
D02*
X3409Y665D02*
X1983Y640D01*
D02*
X3450Y829D02*
X3409Y665D01*
D02*
X3335Y739D02*
X3352Y829D01*
D02*
X2112Y740D02*
X3335Y739D01*
D02*
X1883Y803D02*
X1883Y768D01*
D02*
X4197Y3426D02*
X3672Y3426D01*
D02*
X3572Y3298D02*
X3480Y3294D01*
D02*
X3672Y3426D02*
X3572Y3298D01*
D02*
X4256Y3469D02*
X4197Y3426D01*
G54D47*
D02*
X3055Y3761D02*
X3051Y3696D01*
D02*
X3931Y3761D02*
X3928Y3696D01*
G54D49*
D02*
X3116Y3815D02*
X3101Y3815D01*
D02*
X3216Y3815D02*
X3201Y3815D01*
D02*
X3316Y3815D02*
X3301Y3815D01*
D02*
X3416Y3815D02*
X3401Y3815D01*
D02*
X3516Y3815D02*
X3501Y3815D01*
D02*
X3727Y3832D02*
X3743Y3832D01*
G54D47*
D02*
X3632Y3825D02*
X3611Y3822D01*
G54D49*
D02*
X3991Y3815D02*
X3976Y3815D01*
D02*
X4091Y3815D02*
X4076Y3815D01*
D02*
X4191Y3815D02*
X4176Y3815D01*
D02*
X4291Y3815D02*
X4276Y3815D01*
D02*
X4391Y3815D02*
X4376Y3815D01*
G54D47*
D02*
X4507Y3824D02*
X4486Y3822D01*
G54D51*
D02*
X257Y3265D02*
X220Y3251D01*
D02*
X257Y3691D02*
X257Y3265D01*
D02*
X1158Y3690D02*
X1058Y3690D01*
D02*
X1058Y3690D02*
X958Y3690D01*
D02*
X958Y3690D02*
X257Y3691D01*
D02*
X1258Y3690D02*
X1158Y3690D01*
D02*
X1459Y3689D02*
X1258Y3690D01*
D02*
X1460Y3578D02*
X1459Y3689D01*
G54D52*
D02*
X1583Y3713D02*
X1459Y3689D01*
D02*
X1683Y3865D02*
X1583Y3713D01*
D02*
X1724Y3865D02*
X1683Y3865D01*
D02*
X3637Y3538D02*
X3406Y3523D01*
D02*
X3406Y3523D02*
X3252Y3287D01*
D02*
X3252Y3287D02*
X2971Y3257D01*
D02*
X3714Y3604D02*
X3637Y3538D01*
D02*
X3330Y3647D02*
X3177Y3400D01*
D02*
X3177Y3400D02*
X3048Y3420D01*
D02*
X3048Y3420D02*
X2971Y3440D01*
D02*
X3464Y3661D02*
X3330Y3647D01*
D02*
X2919Y3614D02*
X2935Y3798D01*
D02*
X2552Y3782D02*
X2340Y3847D01*
D02*
X2935Y3798D02*
X2667Y3771D01*
G54D48*
D02*
X946Y2724D02*
X861Y2726D01*
D02*
X1002Y2686D02*
X946Y2724D01*
D02*
X2557Y2565D02*
X2559Y1678D01*
D02*
X1954Y1661D02*
X1722Y1651D01*
D02*
X2039Y1689D02*
X1954Y1661D01*
D02*
X2559Y1678D02*
X2039Y1689D01*
D02*
X2642Y2870D02*
X2614Y2863D01*
G54D47*
D02*
X3087Y3065D02*
X2932Y3103D01*
D02*
X3147Y2976D02*
X3087Y3065D01*
D02*
X3147Y2890D02*
X3147Y2976D01*
D02*
X3072Y2690D02*
X3147Y2890D01*
D02*
X2841Y3180D02*
X2724Y3208D01*
D02*
X2932Y3103D02*
X2841Y3180D01*
D02*
X3246Y2635D02*
X3072Y2690D01*
D02*
X3466Y2723D02*
X3246Y2635D01*
G54D48*
D02*
X4608Y3389D02*
X4316Y3480D01*
D02*
X4613Y3363D02*
X4608Y3389D01*
G54D47*
D02*
X4393Y2162D02*
X4331Y2191D01*
G54D49*
D02*
X4573Y71D02*
X4620Y72D01*
G54D47*
D02*
X4645Y1668D02*
X4644Y1671D01*
D02*
X4233Y2651D02*
X4097Y2665D01*
D02*
X4335Y2465D02*
X4233Y2651D01*
D02*
X4331Y2191D02*
X4335Y2465D01*
D02*
X4097Y2665D02*
X3888Y2958D01*
D02*
X3602Y2776D02*
X3550Y2756D01*
D02*
X3708Y2840D02*
X3602Y2776D01*
D02*
X3888Y2958D02*
X3708Y2840D01*
G54D48*
D02*
X3583Y3074D02*
X3908Y3240D01*
D02*
X3908Y3240D02*
X3915Y3291D01*
D02*
X4008Y3226D02*
X4016Y3291D01*
D02*
X3699Y3004D02*
X4008Y3226D01*
G54D49*
D02*
X2041Y3865D02*
X2026Y3865D01*
D02*
X2141Y3865D02*
X2126Y3865D01*
D02*
X2241Y3865D02*
X2226Y3865D01*
D02*
X1016Y3865D02*
X1001Y3865D01*
D02*
X1116Y3865D02*
X1101Y3865D01*
D02*
X1216Y3865D02*
X1201Y3865D01*
G54D48*
D02*
X3381Y3065D02*
X3374Y3019D01*
D02*
X3692Y3305D02*
X3381Y3065D01*
D02*
X4104Y3231D02*
X4114Y3291D01*
D02*
X3883Y3015D02*
X4104Y3231D01*
D02*
X3888Y2958D02*
X3883Y3015D01*
D02*
X170Y714D02*
X384Y926D01*
D02*
X119Y700D02*
X170Y714D01*
D02*
X183Y627D02*
X346Y740D01*
D02*
X346Y740D02*
X408Y689D01*
D02*
X118Y603D02*
X183Y627D01*
D02*
X424Y918D02*
X472Y804D01*
D02*
X483Y1528D02*
X483Y1456D01*
D02*
X520Y917D02*
X583Y691D01*
D02*
X583Y691D02*
X408Y689D01*
D02*
X583Y1528D02*
X583Y1443D01*
D02*
X408Y314D02*
X796Y177D01*
D02*
X408Y689D02*
X408Y314D01*
D02*
X321Y278D02*
X407Y191D01*
D02*
X321Y341D02*
X321Y278D01*
D02*
X120Y388D02*
X284Y379D01*
D02*
X483Y365D02*
X883Y239D01*
D02*
X883Y239D02*
X911Y196D01*
D02*
X483Y574D02*
X483Y365D01*
D02*
X1163Y1218D02*
X1177Y1304D01*
D02*
X935Y313D02*
X1098Y273D01*
D02*
X883Y913D02*
X883Y513D01*
D02*
X883Y513D02*
X935Y313D01*
D02*
X866Y922D02*
X883Y913D01*
D02*
X1183Y1503D02*
X1183Y1477D01*
D02*
X1034Y1519D02*
X969Y1527D01*
D02*
X583Y691D02*
X672Y690D01*
D02*
X631Y565D02*
X673Y578D01*
D02*
X511Y595D02*
X631Y565D01*
G54D47*
D02*
X1043Y1235D02*
X980Y1280D01*
D02*
X1180Y846D02*
X1043Y1235D01*
D02*
X969Y1527D02*
X983Y1614D01*
D02*
X980Y1280D02*
X969Y1527D01*
D02*
X983Y1614D02*
X1130Y1633D01*
D02*
X1409Y535D02*
X1409Y765D01*
D02*
X1408Y51D02*
X1409Y535D01*
D02*
X1409Y765D02*
X1180Y846D01*
G54D48*
D02*
X483Y1278D02*
X428Y1184D01*
D02*
X732Y1240D02*
X483Y1278D01*
D02*
X767Y1307D02*
X732Y1240D01*
G54D49*
D02*
X3161Y1372D02*
X3161Y1357D01*
G54D48*
D02*
X3900Y1798D02*
X3808Y1790D01*
D02*
X3694Y1495D02*
X3366Y1487D01*
D02*
X3747Y1604D02*
X3694Y1495D01*
D02*
X3808Y1790D02*
X3747Y1604D01*
D02*
X783Y2228D02*
X783Y2202D01*
D02*
X883Y2228D02*
X883Y2202D01*
D02*
X683Y2228D02*
X683Y2202D01*
D02*
X1083Y2228D02*
X1083Y2202D01*
D02*
X1183Y2228D02*
X1183Y2202D01*
D02*
X1383Y2265D02*
X1383Y2202D01*
D02*
X1320Y2265D02*
X1383Y2265D01*
D02*
X1483Y2228D02*
X1483Y2202D01*
D02*
X1583Y2202D02*
X1583Y2228D01*
G54D49*
D02*
X4288Y70D02*
X4273Y70D01*
G54D48*
D02*
X1917Y2232D02*
X1900Y2198D01*
D02*
X2050Y2232D02*
X2067Y2198D01*
G54D49*
D02*
X2861Y1372D02*
X2861Y1357D01*
G54D48*
D02*
X2150Y2232D02*
X2167Y2198D01*
D02*
X2267Y2198D02*
X2250Y2232D01*
D02*
X2183Y2002D02*
X2183Y2028D01*
D02*
X2083Y2002D02*
X2083Y2028D01*
D02*
X1983Y2002D02*
X1983Y2028D01*
D02*
X1883Y2002D02*
X1883Y2028D01*
D02*
X1783Y2002D02*
X1783Y2028D01*
D02*
X1483Y2002D02*
X1483Y2028D01*
D02*
X1383Y2002D02*
X1383Y2028D01*
D02*
X1283Y2002D02*
X1283Y2028D01*
G54D49*
D02*
X2561Y1372D02*
X2561Y1357D01*
G54D48*
D02*
X1083Y2002D02*
X1083Y2028D01*
D02*
X983Y2028D02*
X983Y2002D01*
D02*
X883Y2002D02*
X883Y2028D01*
D02*
X683Y1965D02*
X747Y1965D01*
D02*
X683Y2028D02*
X683Y1965D01*
D02*
X483Y2002D02*
X483Y2028D01*
D02*
X583Y2002D02*
X583Y2028D01*
D02*
X1270Y690D02*
X1045Y690D01*
G54D49*
D02*
X1655Y2904D02*
X1687Y2851D01*
G54D48*
D02*
X2239Y3471D02*
X2216Y3508D01*
D02*
X1288Y3095D02*
X1279Y3109D01*
D02*
X2196Y3577D02*
X2196Y3592D01*
D02*
X2297Y3025D02*
X2270Y3105D01*
D02*
X1333Y2802D02*
X1333Y2828D01*
D02*
X2258Y3277D02*
X2258Y3303D01*
D02*
X2357Y3491D02*
X2360Y3388D01*
D02*
X2257Y3691D02*
X2221Y3654D01*
D02*
X2358Y3698D02*
X2257Y3691D01*
D02*
X2357Y3491D02*
X2313Y3569D01*
D02*
X1233Y2915D02*
X1228Y2704D01*
D02*
X1228Y2704D02*
X1069Y2672D01*
D02*
X1300Y2948D02*
X1233Y2915D01*
D02*
X2046Y3580D02*
X2043Y3139D01*
D02*
X2043Y3139D02*
X1995Y3139D01*
D02*
X1922Y3340D02*
X1909Y3340D01*
D02*
X1870Y3376D02*
X1868Y3402D01*
D02*
X1733Y3306D02*
X1739Y3273D01*
D02*
X1750Y3201D02*
X1754Y3174D01*
D02*
X1920Y2962D02*
X1789Y3025D01*
D02*
X978Y2841D02*
X999Y2850D01*
G54D49*
D02*
X4136Y2393D02*
X4136Y2409D01*
G54D48*
D02*
X1223Y3149D02*
X1048Y3195D01*
D02*
X2046Y3580D02*
X2143Y3580D01*
D02*
X2143Y3580D02*
X2168Y3561D01*
D02*
X1850Y3583D02*
X2046Y3580D01*
D02*
X1790Y3691D02*
X1850Y3583D01*
D02*
X1756Y3691D02*
X1744Y3669D01*
D02*
X965Y3091D02*
X1134Y3089D01*
D02*
X802Y3061D02*
X965Y3091D01*
D02*
X1134Y3089D02*
X1134Y2789D01*
D02*
X1134Y2789D02*
X1069Y2773D01*
D02*
X691Y3139D02*
X802Y3061D01*
D02*
X647Y3194D02*
X691Y3139D01*
G54D51*
D02*
X457Y3413D02*
X525Y3439D01*
D02*
X457Y3065D02*
X457Y3413D01*
D02*
X605Y3017D02*
X457Y3065D01*
G54D48*
D02*
X1324Y3000D02*
X1317Y3029D01*
G54D49*
D02*
X929Y2881D02*
X933Y2867D01*
G54D48*
D02*
X1404Y2612D02*
X1362Y2643D01*
D02*
X802Y3061D02*
X804Y3057D01*
D02*
X786Y2729D02*
X661Y2737D01*
D02*
X1835Y2839D02*
X2035Y2868D01*
D02*
X1759Y2715D02*
X1835Y2839D01*
D02*
X2035Y2868D02*
X2034Y3014D01*
D02*
X957Y2465D02*
X1457Y2465D01*
D02*
X1557Y2665D02*
X1759Y2715D01*
D02*
X1457Y2465D02*
X1557Y2665D01*
D02*
X2034Y3014D02*
X1859Y3065D01*
D02*
X1859Y3065D02*
X1857Y3239D01*
G54D49*
D02*
X2461Y1372D02*
X2461Y1357D01*
G54D48*
D02*
X1857Y3239D02*
X1922Y3239D01*
D02*
X948Y2578D02*
X957Y2465D01*
G54D49*
D02*
X1468Y2915D02*
X1574Y2839D01*
G54D47*
D02*
X1135Y3428D02*
X1388Y3268D01*
D02*
X689Y3469D02*
X1135Y3428D01*
D02*
X1550Y3291D02*
X1588Y3268D01*
D02*
X1491Y3414D02*
X1550Y3291D01*
G54D52*
D02*
X4033Y3526D02*
X3801Y3525D01*
D02*
X3801Y3525D02*
X3778Y3587D01*
D02*
X4097Y3640D02*
X4033Y3526D01*
D02*
X4578Y3642D02*
X4097Y3640D01*
G54D48*
D02*
X2431Y3695D02*
X2572Y3671D01*
G54D52*
D02*
X831Y2376D02*
X1557Y2376D01*
D02*
X2450Y2983D02*
X2583Y3013D01*
G54D47*
D02*
X2762Y3666D02*
X2759Y3666D01*
D02*
X2585Y3572D02*
X2595Y3613D01*
G54D52*
D02*
X2583Y3013D02*
X2575Y3161D01*
D02*
X2365Y2868D02*
X2450Y2983D01*
D02*
X2250Y2868D02*
X2365Y2868D01*
D02*
X2146Y2798D02*
X2250Y2868D01*
D02*
X1906Y2743D02*
X2146Y2798D01*
D02*
X1809Y2615D02*
X1906Y2743D01*
D02*
X1609Y2565D02*
X1809Y2615D01*
D02*
X1557Y2376D02*
X1609Y2565D01*
D02*
X535Y2376D02*
X831Y2376D01*
D02*
X497Y2222D02*
X535Y2376D01*
G54D49*
D02*
X183Y2057D02*
X183Y2072D01*
G54D52*
D02*
X535Y2376D02*
X418Y2213D01*
G54D49*
D02*
X426Y2165D02*
X441Y2165D01*
G54D48*
D02*
X1270Y390D02*
X1045Y390D01*
G54D49*
D02*
X2361Y1372D02*
X2361Y1357D01*
D02*
X83Y2157D02*
X83Y2172D01*
D02*
X4603Y3831D02*
X4618Y3831D01*
D02*
X141Y1815D02*
X126Y1815D01*
D02*
X4629Y1764D02*
X4629Y1780D01*
D02*
X128Y1549D02*
X128Y1533D01*
D02*
X183Y1757D02*
X183Y1772D01*
D02*
X145Y1630D02*
X166Y1676D01*
D02*
X183Y1957D02*
X183Y1972D01*
D02*
X141Y2315D02*
X126Y2315D01*
D02*
X141Y2115D02*
X126Y2115D01*
D02*
X141Y1915D02*
X126Y1915D01*
D02*
X183Y1857D02*
X183Y1872D01*
D02*
X141Y2415D02*
X126Y2415D01*
D02*
X183Y2357D02*
X183Y2372D01*
D02*
X141Y1715D02*
X126Y1715D01*
D02*
X141Y2215D02*
X126Y2215D01*
D02*
X141Y2015D02*
X126Y2015D01*
D02*
X183Y2257D02*
X183Y2272D01*
D02*
X83Y2057D02*
X83Y2072D01*
D02*
X83Y2357D02*
X83Y2372D01*
D02*
X183Y2157D02*
X183Y2172D01*
D02*
X83Y2257D02*
X83Y2272D01*
D02*
X83Y1857D02*
X83Y1872D01*
D02*
X83Y1957D02*
X83Y1972D01*
D02*
X83Y1757D02*
X83Y1772D01*
D02*
X114Y1631D02*
X98Y1675D01*
G54D53*
D02*
X81Y2744D02*
X83Y2479D01*
D02*
X431Y2762D02*
X81Y2744D01*
D02*
X561Y2752D02*
X559Y2752D01*
G54D52*
D02*
X2861Y2824D02*
X2800Y2938D01*
D02*
X2954Y2761D02*
X2861Y2824D01*
D02*
X2962Y2672D02*
X2954Y2761D01*
D02*
X2718Y2995D02*
X2583Y3013D01*
D02*
X2961Y2624D02*
X2962Y2672D01*
G54D48*
D02*
X2365Y2620D02*
X2369Y2535D01*
D02*
X2369Y2535D02*
X2429Y2487D01*
D02*
X2324Y2683D02*
X2365Y2620D01*
D02*
X1959Y2389D02*
X2120Y2468D01*
D02*
X2124Y2680D02*
X2324Y2683D01*
D02*
X2120Y2468D02*
X2124Y2680D01*
D02*
X1941Y2301D02*
X1959Y2389D01*
D02*
X2313Y2424D02*
X2424Y2379D01*
D02*
X2172Y2420D02*
X2313Y2424D01*
D02*
X2032Y2364D02*
X2172Y2420D01*
D02*
X2033Y2302D02*
X2032Y2364D01*
D02*
X2306Y2350D02*
X2135Y2341D01*
D02*
X2135Y2341D02*
X2134Y2302D01*
D02*
X2426Y2283D02*
X2306Y2350D01*
D02*
X2320Y2165D02*
X2422Y2165D01*
D02*
X2383Y2040D02*
X2423Y2053D01*
D02*
X2334Y1965D02*
X2383Y2040D01*
D02*
X2220Y1965D02*
X2334Y1965D01*
D02*
X2108Y1864D02*
X2307Y1864D01*
D02*
X2307Y1864D02*
X2428Y1944D01*
D02*
X2092Y1929D02*
X2108Y1864D01*
D02*
X2324Y1802D02*
X2425Y1849D01*
D02*
X2065Y1802D02*
X2324Y1802D01*
D02*
X2000Y1932D02*
X2065Y1802D01*
D02*
X2009Y1750D02*
X2317Y1743D01*
D02*
X2317Y1743D02*
X2422Y1759D01*
D02*
X1902Y1933D02*
X2009Y1750D01*
D02*
X1270Y590D02*
X1045Y590D01*
D02*
X1270Y490D02*
X1045Y490D01*
G54D49*
D02*
X4088Y70D02*
X4073Y70D01*
D02*
X4136Y2193D02*
X4136Y2209D01*
D02*
X4136Y2293D02*
X4136Y2309D01*
D02*
X3436Y1706D02*
X3436Y1690D01*
D02*
X3436Y1806D02*
X3436Y1790D01*
D02*
X4136Y1920D02*
X4136Y1904D01*
G54D47*
D02*
X3436Y2097D02*
X3436Y1902D01*
D02*
X4136Y2097D02*
X4136Y2015D01*
G54D49*
D02*
X3436Y2393D02*
X3436Y2409D01*
D02*
X3436Y2193D02*
X3436Y2209D01*
D02*
X3436Y2293D02*
X3436Y2309D01*
G54D48*
D02*
X3603Y2385D02*
X3569Y2369D01*
D02*
X3603Y2285D02*
X3569Y2269D01*
D02*
X3603Y1817D02*
X3569Y1834D01*
D02*
X3603Y1717D02*
X3569Y1734D01*
D02*
X3603Y1617D02*
X3569Y1634D01*
G54D49*
D02*
X3061Y1372D02*
X3061Y1357D01*
G54D48*
D02*
X3969Y2384D02*
X4003Y2367D01*
D02*
X3969Y2284D02*
X4003Y2267D01*
D02*
X4003Y2134D02*
X3969Y2117D01*
D02*
X3970Y1988D02*
X4002Y1975D01*
D02*
X3970Y1888D02*
X4002Y1875D01*
D02*
X3967Y1720D02*
X4005Y1743D01*
D02*
X3706Y2565D02*
X3663Y2526D01*
D02*
X3804Y2643D02*
X3763Y2612D01*
G54D47*
D02*
X4033Y2576D02*
X3943Y2683D01*
D02*
X3943Y2683D02*
X3859Y2815D01*
D02*
X4084Y2565D02*
X4033Y2576D01*
D02*
X3707Y2715D02*
X3361Y2551D01*
D02*
X3859Y2815D02*
X3707Y2715D01*
D02*
X3361Y2551D02*
X3349Y2503D01*
G54D48*
D02*
X1428Y1651D02*
X1722Y1651D01*
D02*
X1397Y1878D02*
X1428Y1651D01*
D02*
X1183Y1889D02*
X1397Y1878D01*
G54D52*
D02*
X831Y2376D02*
X820Y2498D01*
D02*
X820Y2498D02*
X661Y2693D01*
D02*
X3033Y2590D02*
X3014Y2583D01*
D02*
X3139Y2551D02*
X3033Y2590D01*
D02*
X3285Y2480D02*
X3246Y2501D01*
G54D49*
D02*
X3594Y2501D02*
X3570Y2501D01*
D02*
X2761Y1372D02*
X2761Y1357D01*
D02*
X2661Y1372D02*
X2661Y1357D01*
G54D48*
D02*
X2495Y2565D02*
X2557Y2565D01*
D02*
X2528Y2646D02*
X2337Y2749D01*
D02*
X2654Y2620D02*
X2528Y2646D01*
D02*
X2652Y2479D02*
X2654Y2620D01*
D02*
X2658Y1743D02*
X2652Y2410D01*
D02*
X2654Y2620D02*
X2672Y2742D01*
D02*
X2137Y1615D02*
X2757Y1617D01*
D02*
X2034Y1589D02*
X2081Y1605D01*
D02*
X1946Y1591D02*
X2034Y1589D01*
D02*
X1359Y1589D02*
X1946Y1591D01*
D02*
X1334Y1789D02*
X1359Y1589D01*
D02*
X2757Y1617D02*
X2758Y2320D01*
D02*
X1284Y1815D02*
X1334Y1789D01*
D02*
X620Y1865D02*
X1080Y1865D01*
D02*
X2161Y1529D02*
X2857Y1531D01*
D02*
X1279Y1531D02*
X2161Y1529D01*
D02*
X1283Y1689D02*
X1279Y1531D01*
D02*
X2857Y1531D02*
X2858Y2320D01*
D02*
X1278Y1694D02*
X1283Y1689D01*
D02*
X834Y1714D02*
X1080Y1715D01*
D02*
X822Y1440D02*
X834Y1714D01*
D02*
X797Y1374D02*
X822Y1440D01*
D02*
X120Y1290D02*
X147Y1290D01*
D02*
X120Y1190D02*
X147Y1190D01*
D02*
X120Y1090D02*
X147Y1090D01*
D02*
X120Y990D02*
X147Y990D01*
D02*
X813Y909D02*
X804Y895D01*
D02*
X734Y816D02*
X757Y839D01*
D02*
X3636Y2164D02*
X3636Y2138D01*
D02*
X3636Y2038D02*
X3636Y2064D01*
G54D49*
D02*
X2961Y1372D02*
X2961Y1357D01*
D02*
X4188Y70D02*
X4173Y70D01*
D02*
X2672Y3278D02*
X2672Y3263D01*
D02*
X2672Y3378D02*
X2672Y3363D01*
D02*
X2672Y3478D02*
X2672Y3463D01*
G54D48*
D02*
X1719Y1743D02*
X1722Y1651D01*
D02*
X1689Y1929D02*
X1719Y1743D01*
G36*
X2907Y418D02*
X2939Y467D01*
X2985Y437D01*
X2953Y388D01*
X2907Y418D01*
G37*
D02*
G36*
X2974Y374D02*
X3007Y423D01*
X3053Y393D01*
X3021Y344D01*
X2974Y374D01*
G37*
D02*
G36*
X2768Y433D02*
X2817Y467D01*
X2848Y422D01*
X2800Y388D01*
X2768Y433D01*
G37*
D02*
G36*
X2815Y367D02*
X2863Y401D01*
X2895Y356D01*
X2846Y322D01*
X2815Y367D01*
G37*
D02*
G54D54*
D02*
G04 End of Copper0*
M02*