G04 MADE WITH FRITZING*
G04 WWW.FRITZING.ORG*
G04 DOUBLE SIDED*
G04 HOLES PLATED*
G04 CONTOUR ON CENTER OF CONTOUR VECTOR*
%ASAXBY*%
%FSLAX23Y23*%
%MOIN*%
%OFA0B0*%
%SFA1.0B1.0*%
%ADD10C,0.088000*%
%ADD11C,0.102000*%
%ADD12C,0.090157*%
%ADD13C,0.135984*%
%ADD14C,0.175354*%
%ADD15C,0.144646*%
%ADD16C,0.113150*%
%ADD17C,0.073622*%
%ADD18C,0.057244*%
%ADD19C,0.085000*%
%ADD20C,0.092000*%
%ADD21C,0.072992*%
%ADD22R,0.113704X0.193333*%
%ADD23R,0.080866X0.080866*%
%ADD24R,0.104488X0.104488*%
%ADD25R,0.102000X0.102000*%
%ADD26R,0.092000X0.092000*%
%ADD27R,0.090158X0.090158*%
%ADD28R,0.072992X0.072992*%
%ADD29R,0.085000X0.085000*%
%LNMASK1*%
G90*
G70*
G54D10*
X1108Y2552D03*
X1208Y2552D03*
X1308Y2552D03*
X1808Y2265D03*
X1808Y2365D03*
X1808Y2465D03*
X1808Y2265D03*
X1808Y2365D03*
X1808Y2465D03*
X1708Y2465D03*
X1708Y2365D03*
X1708Y2265D03*
G54D11*
X3878Y1143D03*
X3878Y1443D03*
X4014Y1143D03*
X4014Y1443D03*
X4150Y1143D03*
X4150Y1443D03*
X4286Y1143D03*
X4286Y1443D03*
X4422Y1143D03*
X4422Y1443D03*
X4558Y1143D03*
X4558Y1443D03*
G54D12*
X383Y2065D03*
X483Y2065D03*
X583Y2065D03*
X683Y2065D03*
X783Y2065D03*
X883Y2065D03*
X983Y2065D03*
X1083Y2065D03*
X1183Y2065D03*
X1283Y2065D03*
X1383Y2065D03*
X1483Y2065D03*
X1583Y2065D03*
X1683Y2065D03*
X1783Y2065D03*
X1883Y2065D03*
X1983Y2065D03*
X2083Y2065D03*
X2183Y2065D03*
X2283Y2065D03*
X383Y2065D03*
X483Y2065D03*
X583Y2065D03*
X683Y2065D03*
X783Y2065D03*
X883Y2065D03*
X983Y2065D03*
X1083Y2065D03*
X1183Y2065D03*
X1283Y2065D03*
X1383Y2065D03*
X1483Y2065D03*
X1583Y2065D03*
X1683Y2065D03*
X1783Y2065D03*
X1883Y2065D03*
X1983Y2065D03*
X2083Y2065D03*
X2183Y2065D03*
X2283Y2065D03*
X2283Y2165D03*
X2183Y2165D03*
X2083Y2165D03*
X1983Y2165D03*
X1883Y2165D03*
X1783Y2165D03*
X1683Y2165D03*
X1583Y2165D03*
X1483Y2165D03*
X1383Y2165D03*
X1283Y2165D03*
X1183Y2165D03*
X1083Y2165D03*
X983Y2165D03*
X883Y2165D03*
X783Y2165D03*
X683Y2165D03*
X583Y2165D03*
X483Y2165D03*
X383Y2165D03*
G54D13*
X865Y3202D03*
X260Y2565D03*
X2483Y165D03*
X183Y165D03*
X1929Y3718D03*
X2233Y2565D03*
X2408Y3115D03*
X2158Y2990D03*
X3008Y2929D03*
X2007Y2565D03*
G54D12*
X1483Y2265D03*
X1583Y2265D03*
X683Y2265D03*
X783Y2265D03*
X883Y2265D03*
X1083Y2265D03*
X1183Y2265D03*
X1283Y2265D03*
X783Y1965D03*
X883Y1965D03*
X983Y1965D03*
X1083Y1965D03*
X1283Y1965D03*
X1383Y1965D03*
X1483Y1965D03*
X1783Y1965D03*
X1883Y1965D03*
X1983Y1965D03*
X2083Y1965D03*
X2183Y1965D03*
X1933Y2265D03*
X2033Y2265D03*
X2133Y2265D03*
X2233Y2265D03*
G54D14*
X1461Y3476D03*
X620Y3476D03*
G54D15*
X688Y2991D03*
G54D16*
X624Y2739D03*
X624Y3222D03*
G54D15*
X138Y3222D03*
G54D17*
X2108Y1440D03*
X2108Y1615D03*
G54D12*
X4158Y865D03*
X3358Y865D03*
X4258Y565D03*
X4458Y565D03*
X4458Y865D03*
X3958Y865D03*
X4058Y865D03*
X3458Y565D03*
X3258Y565D03*
X3358Y565D03*
X3458Y865D03*
X4158Y565D03*
X4558Y565D03*
X3958Y565D03*
X4258Y865D03*
X3558Y565D03*
X4358Y565D03*
X3858Y865D03*
X4058Y565D03*
X3858Y565D03*
X3758Y865D03*
X4558Y865D03*
X3658Y865D03*
X4358Y865D03*
X1583Y1340D03*
X783Y1340D03*
X1683Y1040D03*
X1883Y1040D03*
X1883Y1340D03*
X1383Y1340D03*
X1483Y1340D03*
X883Y1040D03*
X683Y1040D03*
X783Y1040D03*
X883Y1340D03*
X1583Y1040D03*
X1983Y1040D03*
X1383Y1040D03*
X1683Y1340D03*
X983Y1040D03*
X1783Y1040D03*
X1283Y1340D03*
X1483Y1040D03*
X1283Y1040D03*
X1183Y1340D03*
X1983Y1340D03*
X1083Y1340D03*
X1783Y1340D03*
X3083Y540D03*
X2983Y540D03*
X2883Y540D03*
X2783Y540D03*
X2683Y540D03*
X2583Y540D03*
X1983Y540D03*
X2983Y840D03*
X2583Y840D03*
X2283Y840D03*
X1883Y540D03*
X2883Y840D03*
X2383Y540D03*
X3083Y840D03*
X2683Y840D03*
X2383Y840D03*
X1983Y840D03*
X1783Y540D03*
X2483Y540D03*
X2083Y540D03*
X2783Y840D03*
X2483Y840D03*
X2183Y840D03*
X1883Y840D03*
G54D17*
X2658Y1715D03*
X2083Y740D03*
X1883Y740D03*
G54D12*
X1908Y340D03*
X2208Y140D03*
X2208Y340D03*
X1808Y340D03*
X1508Y140D03*
G54D17*
X3614Y1190D03*
G54D12*
X833Y940D03*
X783Y865D03*
G54D17*
X2208Y1190D03*
X2583Y327D03*
X1158Y1190D03*
X483Y602D03*
X483Y777D03*
G54D18*
X1258Y1827D03*
X1108Y1865D03*
X1108Y1715D03*
X1258Y1715D03*
X583Y1415D03*
X483Y1427D03*
G54D17*
X3221Y2740D03*
X3221Y2827D03*
X3508Y2740D03*
X3536Y2501D03*
G54D12*
X3194Y2530D03*
X496Y2765D03*
X4659Y1616D03*
X496Y2865D03*
X3833Y2665D03*
X3733Y2590D03*
X1433Y2590D03*
X3637Y987D03*
X2269Y940D03*
X1183Y1440D03*
X1308Y3065D03*
X3564Y1062D03*
X2258Y1040D03*
X1071Y1515D03*
X4662Y572D03*
X4662Y472D03*
X4662Y372D03*
X4662Y272D03*
X4662Y172D03*
X4662Y72D03*
X4108Y1040D03*
X4008Y1040D03*
X3908Y1040D03*
X4519Y1040D03*
X4419Y1040D03*
X4319Y1040D03*
X4558Y1543D03*
X4458Y1543D03*
X4358Y1543D03*
X4258Y1543D03*
X4158Y1543D03*
X4058Y1543D03*
X4531Y466D03*
X4431Y466D03*
X4331Y466D03*
X4231Y466D03*
X4131Y466D03*
X4031Y466D03*
X1258Y3140D03*
X1333Y2665D03*
X1033Y2665D03*
X1333Y2965D03*
X1333Y2765D03*
X1333Y2865D03*
X1033Y2765D03*
X1033Y2965D03*
X1033Y2865D03*
X1433Y3240D03*
X1433Y2940D03*
X1633Y3240D03*
X1633Y2940D03*
X944Y2615D03*
X944Y2826D03*
X1744Y3237D03*
X1872Y3340D03*
X2308Y2990D03*
X2194Y3629D03*
X2197Y3540D03*
X2258Y3440D03*
X2258Y3140D03*
X1958Y3340D03*
X2258Y3340D03*
X2258Y3240D03*
X1958Y3140D03*
X1958Y3440D03*
X1958Y3240D03*
X2394Y3701D03*
X2494Y3601D03*
X2294Y3601D03*
G54D19*
X919Y2919D03*
X1015Y3203D03*
X1951Y2947D03*
X2307Y2766D03*
X1728Y3339D03*
X1728Y3639D03*
X4283Y3490D03*
X4583Y3490D03*
X2652Y2444D03*
X2559Y2730D03*
X1866Y3436D03*
X1773Y3721D03*
G54D20*
X823Y2727D03*
X823Y3025D03*
G54D12*
X1708Y2815D03*
X1608Y2815D03*
X2608Y3765D03*
X2913Y3250D03*
X2913Y3350D03*
X2914Y3455D03*
X2914Y3555D03*
X2708Y3665D03*
X2608Y3665D03*
X1183Y1540D03*
X1183Y1640D03*
X2133Y440D03*
X2033Y440D03*
X1663Y440D03*
X1563Y440D03*
X1233Y265D03*
X1133Y265D03*
X2958Y2565D03*
X2958Y1665D03*
X2678Y2879D03*
X2678Y2779D03*
X3400Y154D03*
X3500Y154D03*
X3798Y154D03*
X3898Y154D03*
X3600Y154D03*
X3700Y154D03*
X3300Y120D03*
X3300Y220D03*
X1508Y765D03*
X1608Y765D03*
X3097Y154D03*
X3197Y154D03*
X2897Y154D03*
X2997Y154D03*
X2697Y154D03*
X2797Y154D03*
X1583Y1965D03*
X1683Y1965D03*
X3058Y3815D03*
X3158Y3815D03*
X3258Y3815D03*
X3358Y3815D03*
X3458Y3815D03*
X3558Y3815D03*
X3933Y3815D03*
X4033Y3815D03*
X4133Y3815D03*
X4233Y3815D03*
X4333Y3815D03*
X4433Y3815D03*
X2811Y3390D03*
X3522Y3390D03*
X3522Y3668D03*
X4637Y3643D03*
X3758Y3643D03*
X2813Y3668D03*
X3926Y3643D03*
X3047Y3643D03*
X3785Y3832D03*
X3685Y3832D03*
X4660Y3831D03*
X4560Y3831D03*
X4629Y2261D03*
X4629Y2361D03*
X4629Y1722D03*
X4629Y1822D03*
X128Y1591D03*
X128Y1491D03*
X410Y1152D03*
X410Y1052D03*
X410Y952D03*
X410Y1152D03*
X410Y1052D03*
X410Y952D03*
X510Y952D03*
X510Y1052D03*
X510Y1152D03*
X483Y1965D03*
X483Y1865D03*
X483Y1765D03*
X483Y1665D03*
X483Y1565D03*
X483Y1965D03*
X483Y1865D03*
X483Y1765D03*
X483Y1665D03*
X483Y1565D03*
X583Y1565D03*
X583Y1665D03*
X583Y1765D03*
X583Y1865D03*
X583Y1965D03*
X83Y2415D03*
X83Y2315D03*
X83Y2215D03*
X83Y2115D03*
X83Y2015D03*
X83Y1915D03*
X83Y1815D03*
X83Y1715D03*
X83Y2415D03*
X83Y2315D03*
X83Y2215D03*
X83Y2115D03*
X83Y2015D03*
X83Y1915D03*
X83Y1815D03*
X83Y1715D03*
X183Y1715D03*
X183Y1815D03*
X183Y1915D03*
X183Y2015D03*
X183Y2115D03*
X183Y2215D03*
X183Y2315D03*
X183Y2415D03*
X2458Y2565D03*
X2458Y2465D03*
X2458Y2365D03*
X2458Y2265D03*
X2458Y2165D03*
X2458Y2065D03*
X2458Y1965D03*
X2458Y1865D03*
X2458Y1765D03*
X1983Y1440D03*
X1883Y1440D03*
X1783Y1440D03*
X1683Y1440D03*
X1583Y1440D03*
X1483Y1440D03*
X1383Y1440D03*
X1283Y1440D03*
X1983Y940D03*
X1883Y940D03*
X1783Y940D03*
X1683Y940D03*
X1583Y940D03*
X1483Y940D03*
X1383Y940D03*
X1283Y940D03*
X83Y390D03*
X83Y490D03*
X83Y590D03*
X83Y690D03*
X83Y790D03*
X4121Y3327D03*
X4021Y3327D03*
X3921Y3327D03*
X3821Y3327D03*
X3721Y3327D03*
X183Y990D03*
X183Y1090D03*
X183Y1190D03*
X183Y1290D03*
X83Y990D03*
X83Y1090D03*
X83Y1190D03*
X83Y1290D03*
X4621Y3327D03*
X4521Y3327D03*
X4421Y3327D03*
X4321Y3327D03*
X1306Y690D03*
X1306Y590D03*
X1306Y490D03*
X1306Y390D03*
X1008Y790D03*
X1008Y690D03*
X1008Y590D03*
X1008Y490D03*
X1008Y390D03*
X708Y790D03*
X708Y690D03*
X708Y590D03*
X708Y490D03*
X708Y390D03*
G54D19*
X3446Y3293D03*
X3114Y3517D03*
G54D12*
X4136Y2554D03*
X3636Y2501D03*
X3936Y2501D03*
X3636Y2401D03*
X3936Y2401D03*
X3636Y2301D03*
X3936Y2301D03*
X3636Y2201D03*
X3936Y2201D03*
X3636Y2101D03*
X3936Y2101D03*
X3636Y2001D03*
X3936Y2001D03*
X3636Y1901D03*
X3936Y1901D03*
X3636Y1801D03*
X3936Y1801D03*
X3636Y1701D03*
X3936Y1701D03*
X3636Y1601D03*
X3936Y1601D03*
X3536Y2154D03*
X3536Y2254D03*
X3536Y2354D03*
X3536Y1651D03*
X3536Y1751D03*
X3536Y1851D03*
X4036Y1762D03*
X4036Y1862D03*
X4036Y1962D03*
X4036Y2151D03*
X4036Y2251D03*
X4036Y2351D03*
X3436Y2451D03*
X3436Y2351D03*
X3436Y2251D03*
X3436Y2151D03*
X4136Y2451D03*
X4136Y2351D03*
X4136Y2251D03*
X4136Y2151D03*
X3336Y1651D03*
X3336Y1751D03*
X3336Y1851D03*
X3436Y1648D03*
X3436Y1748D03*
X3436Y1848D03*
X3336Y2154D03*
X3336Y2254D03*
X3336Y2354D03*
X4136Y1762D03*
X4136Y1862D03*
X4136Y1962D03*
X2858Y2356D03*
X2858Y2456D03*
X2858Y2556D03*
X2858Y2656D03*
X483Y3865D03*
X383Y3865D03*
X283Y3865D03*
X183Y3865D03*
X2758Y2356D03*
X2758Y2456D03*
X2758Y2556D03*
X2758Y2656D03*
X1258Y3865D03*
X1158Y3865D03*
X1058Y3865D03*
X958Y3865D03*
X2283Y3865D03*
X2183Y3865D03*
X2083Y3865D03*
X1983Y3865D03*
X1883Y3865D03*
X1783Y3865D03*
X2572Y3220D03*
X2572Y3320D03*
X2572Y3420D03*
X2572Y3520D03*
X2672Y3220D03*
X2672Y3320D03*
X2672Y3420D03*
X2672Y3520D03*
X4236Y1762D03*
X4236Y1862D03*
X4236Y1962D03*
X4236Y2151D03*
X4236Y2251D03*
X4236Y2351D03*
X3336Y2451D03*
X533Y165D03*
X433Y165D03*
X3283Y1315D03*
X3283Y1215D03*
X3283Y1115D03*
X3283Y1015D03*
X311Y1872D03*
X311Y1772D03*
X311Y1672D03*
X311Y1572D03*
X311Y1472D03*
X4556Y2979D03*
X4556Y2879D03*
X4556Y2779D03*
X4556Y2679D03*
X4556Y2579D03*
X4556Y2479D03*
X4656Y2979D03*
X4656Y2879D03*
X4656Y2779D03*
X4656Y2679D03*
X4656Y2579D03*
X4656Y2479D03*
X4443Y2979D03*
X4443Y2879D03*
X4443Y2779D03*
X4443Y2679D03*
X4443Y2579D03*
X4443Y2479D03*
X4443Y2379D03*
X4443Y2279D03*
X321Y577D03*
X321Y477D03*
X321Y377D03*
X746Y1704D03*
X746Y1604D03*
X746Y1504D03*
X4442Y2140D03*
X4442Y2040D03*
X4442Y1940D03*
X4442Y1840D03*
X4442Y1740D03*
X4556Y2140D03*
X4556Y2040D03*
X4556Y1940D03*
X4656Y2140D03*
X4656Y2040D03*
X4656Y1940D03*
X1031Y165D03*
X931Y165D03*
X831Y165D03*
X4031Y70D03*
X4031Y370D03*
X4131Y70D03*
X4131Y370D03*
X4231Y70D03*
X4231Y370D03*
X4331Y70D03*
X4331Y370D03*
X4431Y70D03*
X4431Y370D03*
X4531Y70D03*
X4531Y370D03*
X2361Y1015D03*
X2361Y1315D03*
X2461Y1015D03*
X2461Y1315D03*
X2561Y1015D03*
X2561Y1315D03*
X2661Y1015D03*
X2661Y1315D03*
X2761Y1015D03*
X2761Y1315D03*
X2861Y1015D03*
X2861Y1315D03*
X2961Y1015D03*
X2961Y1315D03*
X3061Y1015D03*
X3061Y1315D03*
X3161Y1015D03*
X3161Y1315D03*
X2361Y1415D03*
X2461Y1415D03*
X2561Y1415D03*
X2661Y1415D03*
X2761Y1415D03*
X2861Y1415D03*
X2961Y1415D03*
X3061Y1415D03*
X3161Y1415D03*
X3514Y1315D03*
X3713Y1314D03*
X4217Y2977D03*
X4217Y2877D03*
X4217Y2777D03*
X3669Y2983D03*
X3569Y2983D03*
X3469Y2983D03*
X3369Y2983D03*
X481Y2515D03*
X581Y2515D03*
G54D21*
X2484Y2855D03*
X2582Y2855D03*
X3498Y279D03*
X3400Y279D03*
X3800Y279D03*
X3898Y279D03*
X3602Y279D03*
X3700Y279D03*
X3252Y356D03*
X3350Y356D03*
X1510Y627D03*
X1608Y627D03*
X3099Y279D03*
X3197Y279D03*
X2899Y279D03*
X2997Y279D03*
X2699Y279D03*
X2797Y279D03*
X1621Y1741D03*
X1621Y1840D03*
G54D19*
X2774Y3088D03*
X2774Y2988D03*
X2461Y3354D03*
X2361Y3354D03*
X1758Y2940D03*
X1758Y3040D03*
X1758Y3140D03*
G54D22*
X352Y3335D03*
X1181Y3334D03*
G54D23*
X3958Y2590D03*
X3305Y2656D03*
X4664Y1474D03*
X3983Y2665D03*
X2508Y2990D03*
X2044Y3629D03*
X1969Y3540D03*
X1058Y3065D03*
X1108Y3140D03*
X1433Y2815D03*
X983Y940D03*
X933Y1440D03*
X896Y1515D03*
X2083Y940D03*
X2108Y1040D03*
X1008Y865D03*
X3414Y990D03*
G54D24*
X4633Y3126D03*
X3922Y3123D03*
X3764Y3123D03*
X3050Y3126D03*
G54D23*
X3414Y1065D03*
G54D25*
X3878Y1143D03*
X4014Y1143D03*
X4150Y1143D03*
X4286Y1143D03*
X4422Y1143D03*
X4558Y1143D03*
G54D26*
X823Y2726D03*
G54D27*
X3785Y3832D03*
X4660Y3831D03*
X4629Y2261D03*
X4629Y1722D03*
X128Y1591D03*
X3636Y2501D03*
X4031Y70D03*
X2361Y1015D03*
G54D28*
X2484Y2855D03*
X3498Y279D03*
X3800Y279D03*
X3602Y279D03*
X3252Y356D03*
X1510Y627D03*
X3099Y279D03*
X2899Y279D03*
X2699Y279D03*
X1621Y1741D03*
G54D29*
X2774Y3088D03*
X2461Y3354D03*
G04 End of Mask1*
M02*