; NON-PLATED HOLES START AT T1
; THROUGH (PLATED) HOLES START AT T100
M48
INCH
T1C0.125984
T100C0.040157
T101C0.031497
T102C0.023622
T103C0.035000
T104C0.052000
T105C0.042000
T106C0.038000
T107C0.070866
%
T1
X022333Y025647
X020067Y025647
X021583Y029897
X019287Y037184
X024083Y031147
X024833Y001647
X002599Y025647
X008648Y032018
X030083Y029286
X001833Y001647
T100
X014833Y009397
X033361Y024508
X004833Y019647
X004097Y009522
X007833Y021647
X034583Y008647
X026611Y010147
X010083Y005897
X045555Y028786
X012833Y009397
X035361Y022536
X005833Y021647
X019833Y013397
X046620Y003721
X024611Y010147
X003208Y003772
X039259Y036425
X033361Y022536
X003833Y021647
X017833Y013397
X046594Y016164
X010083Y007897
X028583Y023564
X019583Y032397
X015833Y013397
X011833Y014397
X046620Y005721
X003208Y005772
X035222Y033897
X016333Y029397
X007458Y016036
X044305Y004660
X013833Y013397
X007083Y003897
X026611Y014147
X008833Y010397
X028583Y025564
X019583Y034397
X011833Y016397
X028611Y013147
X024611Y014147
X006833Y010397
X046288Y017220
X045555Y020397
X007083Y005897
X034361Y017481
X046555Y019397
X025722Y033203
X032833Y011147
X021833Y019647
X005805Y025147
X007083Y007897
X036361Y016008
X042361Y017620
X039361Y021008
X017083Y028147
X022833Y021647
X036851Y038323
X010708Y015147
X040361Y017620
X025722Y035203
X013062Y004897
X032833Y013147
X020833Y021647
X045305Y000703
X026833Y005397
X036361Y018008
X042361Y019620
X039361Y023008
X043305Y000703
X003111Y015721
X024833Y005397
X000833Y003897
X040361Y019620
X013062Y006897
X004958Y027647
X041305Y000703
X018083Y003397
X039361Y025008
X003111Y017722
X020833Y005397
X018833Y019647
X023083Y029897
X000833Y005897
X041361Y022508
X016833Y019647
X011833Y020647
X019833Y021647
X038333Y026647
X001833Y021147
X001833Y010897
X024583Y017647
X028833Y008397
X014833Y019647
X004833Y038647
X000833Y018147
X017833Y021647
X000833Y007897
X044583Y008647
X035361Y016508
X005333Y001647
X041361Y024508
X012833Y019647
X002833Y038647
X033000Y001203
X015833Y021647
X042583Y008647
X011833Y022647
X043206Y033274
X034583Y038147
X008333Y009397
X033361Y016508
X013327Y027647
X001833Y023147
X001833Y012897
X024583Y019647
X010833Y019647
X017444Y032370
X013833Y021647
X040583Y008647
X041206Y033274
X032583Y038147
X000833Y009897
X035361Y018508
X019833Y005397
X034361Y021508
X012583Y038647
X030583Y038147
X030611Y010147
X033361Y018508
X026083Y037647
X013327Y029647
X017833Y005397
X010583Y038647
X046288Y022614
X013083Y030647
X021972Y035397
X005833Y015647
X022694Y009397
X034361Y023508
X018833Y010397
X008833Y020647
X029583Y025647
X046555Y024786
X016833Y010397
X006833Y020647
X044416Y018397
X009444Y026147
X005833Y017647
X019833Y009397
X009833Y019647
X014833Y010397
X004833Y020647
X004097Y010522
X039583Y008647
X008833Y022647
X046555Y026786
X030611Y014147
X017833Y009397
X007833Y019647
X012833Y010397
X037583Y008647
X006833Y022647
X038206Y033274
X021833Y038647
X029611Y010147
X015083Y007647
X009583Y038647
X015833Y009397
X005833Y019647
X042166Y027772
X018833Y014397
X027611Y010147
X046555Y028786
X022583Y010397
X013833Y009397
X026777Y027786
X033583Y008647
X016833Y014397
X025611Y010147
X027583Y024564
X042166Y029772
X014833Y014397
X023611Y010147
X012583Y031397
X006879Y029907
X012833Y014397
X029611Y014147
X028127Y036675
X016333Y032397
X026722Y032203
X027583Y026564
X027611Y014147
X030833Y005397
X009833Y010397
X018833Y038647
X025611Y014147
X039361Y017008
X007833Y010397
X046555Y020397
X026722Y034203
X021833Y020647
X023611Y014147
X029126Y032501
X044333Y038147
X039361Y019009
X042333Y038147
X020833Y019647
X015631Y004397
X040333Y038147
X029833Y005397
X030472Y036425
X041361Y017620
X016083Y028147
X044430Y022786
X027833Y005397
X042361Y021508
X029138Y035550
X036361Y021008
X044305Y000703
X036688Y029831
X025833Y005397
X040361Y021508
X041361Y019620
X001833Y017147
X018833Y020647
X034688Y029831
X042305Y003703
X023833Y005397
X044430Y024786
X042361Y023508
X036361Y023008
X016833Y020647
X037333Y025897
X040305Y003703
X021833Y008397
X040361Y023508
X019833Y019647
X014833Y020647
X001833Y019147
X039333Y038147
X044430Y026786
X017833Y019647
X012833Y020647
X036361Y025008
X010327Y026647
X027083Y036647
X001283Y014908
X024583Y020647
X015833Y019647
X010833Y020647
X045583Y008647
X014833Y022647
X046206Y033274
X000833Y021147
X000833Y010897
X044430Y028786
X013833Y019647
X003833Y038647
X043583Y008647
X012833Y022647
X044206Y033274
X035583Y038147
X010327Y028647
X022333Y022647
X024583Y022647
X041583Y008647
X010833Y022647
X033583Y038147
X000833Y023147
X040083Y010397
X000833Y012897
X020333Y022647
X022583Y031397
X040206Y033274
X031583Y038147
X031611Y010147
X004833Y016647
X018833Y008397
X034583Y005647
X010305Y001647
X024583Y024647
X020333Y004397
X045555Y025786
X019833Y010397
X046620Y000721
X032583Y005647
X009833Y020647
X022583Y033397
X005097Y011522
X004833Y018647
X017833Y010397
X007833Y020647
X044416Y021397
X010083Y004897
X045555Y027786
X015833Y010397
X035361Y021536
X005833Y020647
X046620Y002721
X039083Y010397
X031611Y014147
X044583Y015425
X013833Y010397
X019333Y022647
X033361Y021536
X003833Y020647
X038583Y008647
X007833Y022647
X039206Y033274
X022833Y038647
X046370Y036425
X016083Y007647
X010083Y006897
X014333Y029397
X045555Y029786
X037133Y013142
X042583Y015425
X019583Y031397
X009305Y001647
X035361Y023536
X042305Y004660
X011833Y013397
X037206Y033274
X019833Y014397
X020833Y038647
X046620Y004721
X028611Y010147
X003208Y004772
X040583Y015425
X007458Y015036
X033361Y023536
X040305Y004660
X017833Y014397
X026611Y013147
X028583Y024564
X019583Y033397
X015833Y014397
X011833Y015397
X024611Y013147
X007458Y017036
X013833Y014397
X007083Y004897
X034361Y016481
X028583Y026564
X028611Y014147
X025722Y032203
X032833Y010147
X046288Y018220
X045555Y021397
X019833Y038647
X007083Y006897
X034361Y018481
X023944Y037008
X008833Y013397
X039361Y020009
X017833Y038647
X022833Y020647
X025722Y034203
X013062Y003897
X032833Y012147
X020833Y020647
X037984Y001536
X012333Y002647
X036361Y017008
X035222Y036675
X031940Y025299
X042361Y018620
X039361Y022008
X043333Y038147
X003111Y014721
X021944Y036286
X037000Y001536
X040361Y018620
X016631Y004397
X013062Y005897
X041333Y038147
X035000Y001536
X044194Y010397
X036361Y019009
X039361Y024008
X003111Y016722
X028833Y005397
X000833Y004897
X044583Y005647
X004958Y028647
X045305Y003703
X041361Y021508
X026833Y008397
X042583Y005647
X019833Y020647
X035688Y029831
X001833Y020147
X043305Y003703
X003111Y018722
X024833Y008397
X000833Y017147
X040583Y005647
X017833Y020647
X033688Y029831
X000833Y006897
X041305Y003703
X031972Y001536
X022833Y008397
X041361Y023508
X045603Y038312
X015833Y020647
X011833Y021647
X013327Y026647
X001833Y022147
X001833Y011897
X024583Y018647
X013833Y020647
X000833Y019147
X035361Y017508
X006242Y027390
X033000Y002203
X015833Y022647
X033361Y017508
X026083Y036647
X013327Y028647
X001833Y024147
X045206Y033274
X034361Y022508
X039583Y005647
X041083Y010397
X006240Y032221
X046288Y023614
X021333Y022647
X044416Y017397
X028972Y001536
X005833Y016647
X019833Y008397
X034361Y024508
X035583Y005647
X005097Y009522
X008833Y021647
X021333Y004397
X041361Y025536
X026972Y001536
X046555Y025786
X030611Y013147
X033583Y005647
X006833Y021647
X044416Y019397
X009444Y028258
X005833Y018647
X004833Y021647
X018833Y013397
X004097Y011522
X046555Y027786
X016833Y013397
X045583Y015425
X027583Y023564
X042166Y028772
X018722Y033397
X045305Y004660
X014833Y013397
X046555Y029786
X043583Y015425
X022083Y001397
X014333Y032397
X037583Y036425
X043305Y004660
X012833Y013397
X026777Y028786
X029611Y013147
X041583Y015425
X027583Y025564
X008305Y001647
X041305Y004660
X010833Y013397
X027611Y013147
X022083Y003397
X024944Y036008
X025611Y013147
X039361Y016008
X026722Y033203
X022944Y036008
X014333Y025897
X023611Y013147
X045555Y019397
X004805Y025147
X039361Y018008
X037851Y038323
X046555Y021397
X026722Y035203
X021833Y021647
X029126Y033501
X030833Y008397
X007833Y013397
X038984Y001536
X042305Y000703
X015083Y001397
X019083Y003397
X029138Y034550
X036361Y020009
X010333Y029647
X040305Y000703
X011333Y002647
X041361Y018620
X036000Y001536
X044430Y023786
X045194Y010397
X042361Y022508
X036361Y022008
X034000Y001536
X029583Y016647
X043194Y010397
X029833Y008397
X040361Y022508
X045583Y005647
X001833Y018147
X007833Y008647
X018833Y021647
X044430Y025786
X027833Y008397
X001379Y032221
X043583Y005647
X036361Y024008
X016833Y021647
X044305Y003703
X035638Y010620
X004333Y001647
X025833Y008397
X041583Y005647
X001833Y038647
X014833Y021647
X000833Y020147
X001833Y009897
X023833Y008397
X044430Y027786
X046603Y038312
X028111Y033897
X012833Y021647
X030972Y001536
X010327Y027647
X018833Y005397
X001283Y015908
X011583Y038647
X024583Y021647
X010833Y021647
X000833Y022147
X000833Y011897
X044430Y029786
X004833Y015647
X024583Y023647
X045555Y024786
X000833Y024147
X022583Y032397
X005097Y010522
X004833Y017647
X035138Y013147
X018833Y009397
X008833Y019647
X038583Y005647
X024583Y025647
X044416Y020397
X029972Y001536
X010083Y003897
X045555Y026786
X016833Y009397
X036372Y009870
X046620Y001721
X009833Y021647
X022583Y034397
X036583Y008647
X027972Y001536
X031611Y013147
T101
X016083Y006272
X032515Y003564
X029972Y002786
X028987Y002786
X024836Y028549
X038000Y002786
X016208Y017413
X034984Y002786
X016208Y018397
X034000Y002786
X025820Y028549
X015099Y006272
X031972Y002786
X027972Y002786
X030987Y002786
X026987Y002786
X038984Y002786
X037000Y002786
X036015Y002786
X033500Y003564
T102
X011583Y011897
X004833Y007772
X036138Y011897
X005833Y014147
X022083Y011897
X026583Y017147
X032208Y027397
X018833Y007397
X004833Y014272
X020833Y007397
X021083Y014397
X032208Y028272
X011083Y017147
X012583Y017147
X035361Y025008
X004833Y006022
X025833Y003272
X021083Y016147
X035083Y027397
X012583Y018272
X011083Y018647
T103
X019508Y029469
X017583Y029397
X025589Y027295
X027739Y030881
X023074Y027656
X017583Y030397
X031138Y035165
X034455Y032929
X009186Y029189
X018660Y034357
X045833Y034897
X017277Y036394
X042833Y034897
X010146Y032031
X026521Y024444
X017277Y033394
X017583Y031397
X024605Y033536
X017728Y037208
X023605Y033536
X027739Y029881
T104
X040138Y011425
X042861Y011425
X041500Y014425
X038777Y014425
X045583Y014425
X044222Y011425
X040138Y014425
X042861Y014425
X041500Y011425
X038777Y011425
X045583Y011425
X044222Y014425
T105
X008231Y030248
X008231Y027268
T106
X017083Y024647
X018083Y024647
X011083Y025522
X017083Y022647
X018083Y022647
X012083Y025522
X013083Y025522
X017083Y023647
X018083Y023647
T107
X014606Y034759
X006203Y034758
T00
M30
