<?xml version="1.0" encoding="UTF-8" standalone="no"?>
<!-- Generator: Adobe Illustrator 14.0.0, SVG Export Plug-In  -->

<svg
   xmlns:dc="http://purl.org/dc/elements/1.1/"
   xmlns:cc="http://creativecommons.org/ns#"
   xmlns:rdf="http://www.w3.org/1999/02/22-rdf-syntax-ns#"
   xmlns:svg="http://www.w3.org/2000/svg"
   xmlns="http://www.w3.org/2000/svg"
   xmlns:sodipodi="http://sodipodi.sourceforge.net/DTD/sodipodi-0.dtd"
   xmlns:inkscape="http://www.inkscape.org/namespaces/inkscape"
   version="1.2"
   x="0mm"
   y="0mm"
   width="40.415848"
   height="78.395668"
   viewBox="0 0 11.40625 22.124999"
   id="svg2"
   inkscape:version="0.48.3.1 r9886"
   sodipodi:docname="square_part.svg">
  <metadata
     id="metadata10">
    <rdf:RDF>
      <cc:Work
         rdf:about="">
        <dc:format>image/svg+xml</dc:format>
        <dc:type
           rdf:resource="http://purl.org/dc/dcmitype/StillImage" />
        <dc:title></dc:title>
      </cc:Work>
    </rdf:RDF>
  </metadata>
  <defs
     id="defs8" />
  <sodipodi:namedview
     pagecolor="#ffffff"
     bordercolor="#666666"
     borderopacity="1"
     objecttolerance="10"
     gridtolerance="10"
     guidetolerance="10"
     inkscape:pageopacity="0"
     inkscape:pageshadow="2"
     inkscape:window-width="1246"
     inkscape:window-height="719"
     id="namedview6"
     showgrid="false"
     inkscape:snap-bbox="false"
     inkscape:zoom="3.0274746"
     inkscape:cx="-0.76948964"
     inkscape:cy="19.569899"
     inkscape:window-x="528"
     inkscape:window-y="122"
     inkscape:window-maximized="0"
     inkscape:current-layer="svg2"
     fit-margin-top="0"
     fit-margin-left="0"
     fit-margin-right="0"
     fit-margin-bottom="0" />
  <path
     style="font-size:medium;font-style:normal;font-variant:normal;font-weight:normal;font-stretch:normal;text-indent:0;text-align:start;text-decoration:none;line-height:normal;letter-spacing:normal;word-spacing:normal;text-transform:none;direction:ltr;block-progression:tb;writing-mode:lr-tb;text-anchor:start;baseline-shift:baseline;color:#000000;fill:#000000;fill-opacity:1;stroke:none;stroke-width:0.05898444;marker:none;visibility:visible;display:inline;overflow:visible;enable-background:accumulate;font-family:Sans;-inkscape-font-specification:Sans"
     d="m 0.0625,0.06249955 -0.0625,0 0,0.03125 0.0625,0 0,0.03125 0.125,0 0,-0.12499999548648 -0.125,0 z m 0.34375,0.0625 0.125,0 0,-0.12499999548648 -0.125,0 z m 0.34375,0 0.125,0 0,-0.12499999548648 -0.125,0 z m 0.375,0 0.125,0 0,-0.12499999548648 -0.125,0 z m 0.34375,0 0.125,0 0,-0.12499999548648 -0.125,0 z m 0.34375,0 0.125,0 0,-0.12499999548648 -0.125,0 z m 0.375,0 0.125,0 0,-0.12499999548648 -0.125,0 z m 0.34375,0 0.125,0 0,-0.12499999548648 -0.125,0 z m 0.34375,0 0.125,0 0,-0.12499999548648 -0.125,0 z m 0.375,0 0.09375,0 0,-0.12499999548648 -0.09375,0 z m 0.34375,0 0.125,0 0,-0.12499999548648 -0.125,0 z m 0.34375,0 0.125,0 0,-0.12499999548648 -0.125,0 z m 0.375,0 0.09375,0 0,-0.12499999548648 -0.09375,0 z m 0.34375,0 0.125,0 0,-0.12499999548648 -0.125,0 z m 0.34375,0 0.125,0 0,-0.12499999548648 -0.125,0 z m 0.375,0 0.09375,0 0,-0.12499999548648 -0.09375,0 z m 0.34375,0 0.125,0 0,-0.12499999548648 -0.125,0 z m 0.34375,0 0.125,0 0,-0.12499999548648 -0.125,0 z m 0.375,0 0.09375,0 0,-0.12499999548648 -0.09375,0 z m 0.34375,0 0.125,0 0,-0.12499999548648 -0.125,0 z m 0.34375,0 0.125,0 0,-0.12499999548648 -0.125,0 z m 0.375,0 0.09375,0 0,-0.12499999548648 -0.09375,0 z m 0.34375,0 0.125,0 0,-0.12499999548648 -0.125,0 z m 0.34375,0 0.125,0 0,-0.12499999548648 -0.125,0 z m 0.375,0 0.09375,0 0,-0.12499999548648 -0.09375,0 z m 0.34375,0 0.125,0 0,-0.12499999548648 -0.125,0 z m 0.34375,0 0.125,0 0,-0.12499999548648 -0.125,0 z m 0.375,0 0.09375,0 0,-0.12499999548648 -0.09375,0 z m 0.34375,0 0.125,0 0,-0.12499999548648 -0.125,0 z m 0.34375,0 0.125,0 0,-0.12499999548648 -0.125,0 z m 0.375,0 0.09375,0 0,-0.12499999548648 -0.09375,0 z m 0.34375,0 0.125,0 0,-0.12499999548648 -0.125,0 z m 0.25,0.09375 0.125,0 0,-0.125 -0.125,0 z m -11.28125,0.25 0.09375,0 0,-0.125 -0.09375,0 z m 11.28125,0.09375 0.125,0 0,-0.09375 -0.125,0 z m -11.28125,0.25 0.09375,0 0,-0.125 -0.09375,0 z m 11.28125,0.125 0.125,0 0,-0.125 -0.125,0 z M 0,1.1562496 l 0.09375,0 0,-0.09375 -0.09375,0 z m 11.28125,0.125 0.125,0 0,-0.125 -0.125,0 z M 0,1.5312496 l 0.09375,0 0,-0.125 -0.09375,0 z m 11.28125,0.09375 0.125,0 0,-0.125 -0.125,0 z M 0,1.8749996 l 0.09375,0 0,-0.125 -0.09375,0 z m 11.28125,0.125 0.125,0 0,-0.125 -0.125,0 z M 0,2.2187496 l 0.09375,0 0,-0.09375 -0.09375,0 z m 11.28125,0.125 0.125,0 0,-0.125 -0.125,0 z M 0,2.5937496 l 0.09375,0 0,-0.125 -0.09375,0 z m 11.28125,0.09375 0.125,0 0,-0.125 -0.125,0 z M 0,2.9374996 l 0.09375,0 0,-0.125 -0.09375,0 z m 11.28125,0.125 0.125,0 0,-0.125 -0.125,0 z M 0,3.2812496 l 0.09375,0 0,-0.125 -0.09375,0 z m 11.28125,0.125 0.125,0 0,-0.125 -0.125,0 z M 0,3.6562496 l 0.09375,0 0,-0.125 -0.09375,0 z m 11.28125,0.09375 0.125,0 0,-0.125 -0.125,0 z m 0,0.375 0.125,0 0,-0.125 -0.125,0 z m 0,0.34375 0.125,0 0,-0.125 -0.125,0 z m 0,0.34375 0.125,0 0,-0.125 -0.125,0 z m 0,0.375 0.125,0 0,-0.125 -0.125,0 z m 0,0.34375 0.125,0 0,-0.125 -0.125,0 z m 0,0.34375 0.125,0 0,-0.125 -0.125,0 z m 0,0.34375 0.125,0 0,-0.09375 -0.125,0 z m 0,0.375 0.125,0 0,-0.125 -0.125,0 z m 0,0.34375 0.125,0 0,-0.125 -0.125,0 z m 0,0.34375 0.125,0 0,-0.09375 -0.125,0 z m 0,0.375 0.125,0 0,-0.125 -0.125,0 z m 0,0.34375 0.125,0 0,-0.125 -0.125,0 z m 0,0.34375 0.125,0 0,-0.09375 -0.125,0 z m 0,0.375 0.125,0 0,-0.125 -0.125,0 z m 0,0.34375 0.125,0 0,-0.125 -0.125,0 z m 0,0.34375 0.125,0 0,-0.09375 -0.125,0 z m 0,0.375 0.125,0 0,-0.125 -0.125,0 z m 0,0.3437504 0.125,0 0,-0.1250004 -0.125,0 z m 0,0.34375 0.125,0 0,-0.09375 -0.125,0 z m 0,0.375 0.125,0 0,-0.125 -0.125,0 z m 0,0.34375 0.125,0 0,-0.125 -0.125,0 z m 0,0.34375 0.125,0 0,-0.09375 -0.125,0 z m 0,0.375 0.125,0 0,-0.125 -0.125,0 z m 0,0.34375 0.125,0 0,-0.125 -0.125,0 z m 0,0.34375 0.125,0 0,-0.09375 -0.125,0 z m 0,0.375 0.125,0 0,-0.125 -0.125,0 z m 0,0.34375 0.125,0 0,-0.125 -0.125,0 z m 0,0.34375 0.125,0 0,-0.09375 -0.125,0 z m 0,0.375 0.125,0 0,-0.125 -0.125,0 z m 0,0.34375 0.125,0 0,-0.125 -0.125,0 z m 0,0.34375 0.125,0 0,-0.09375 -0.125,0 z m 0,0.375 0.125,0 0,-0.125 -0.125,0 z m 0,0.34375 0.125,0 0,-0.125 -0.125,0 z m 0,0.34375 0.125,0 0,-0.125 -0.125,0 z m 0,0.375 0.125,0 0,-0.125 -0.125,0 z m 0,0.34375 0.125,0 0,-0.125 -0.125,0 z m 0,0.34375 0.125,0 0,-0.125 -0.125,0 z m 0,0.375 0.125,0 0,-0.125 -0.125,0 z m 0,0.34375 0.125,0 0,-0.125 -0.125,0 z m 0,0.34375 0.125,0 0,-0.125 -0.125,0 z m 0,0.375 0.125,0 0,-0.125 -0.125,0 z m 0,0.34375 0.125,0 0,-0.125 -0.125,0 z m 0,0.34375 0.125,0 0,-0.125 -0.125,0 z m 0,0.375 0.125,0 0,-0.125 -0.125,0 z m 0,0.34375 0.125,0 0,-0.125 -0.125,0 z m 0,0.34375 0.125,0 0,-0.125 -0.125,0 z m 0,0.34375 0.125,0 0,-0.09375 -0.125,0 z m 0,0.375 0.125,0 0,-0.125 -0.125,0 z m 0,0.34375 0.125,0 0,-0.125 -0.125,0 z m 0,0.34375 0.125,0 0,-0.09375 -0.125,0 z m 0,0.375 0.125,0 0,-0.125 -0.125,0 z M 7,22.125 l 0.125,0 L 7.125,22 7,22 z m 0.34375,0 0.125,0 0,-0.125 -0.125,0 z m 0.375,0 0.09375,0 0,-0.125 -0.09375,0 z m 0.34375,0 0.125,0 0,-0.125 -0.125,0 z m 0.34375,0 0.125,0 0,-0.125 -0.125,0 z m 0.375,0 0.09375,0 0,-0.125 -0.09375,0 z m 0.34375,0 0.125,0 0,-0.125 -0.125,0 z m 0.34375,0 0.125,0 0,-0.125 -0.125,0 z m 0.375,0 0.09375,0 0,-0.125 -0.09375,0 z m 0.34375,0 0.125,0 0,-0.125 -0.125,0 z m 0.34375,0 0.125,0 0,-0.125 -0.125,0 z m 0.375,0 0.09375,0 0,-0.125 -0.09375,0 z m 0.34375,0 0.09375,0 0.0625,0 0,-0.0625 0,-0.03125 -0.0625,0 0,-0.03125 -0.09375,0 z"
     inkscape:connector-curvature="0"
     sodipodi:nodetypes="ccccccccccccccccccccccccccccccccccccccccccccccccccccccccccccccccccccccccccccccccccccccccccccccccccccccccccccccccccccccccccccccccccccccccccccccccccccccccccccccccccccccccccccccccccccccccccccccccccccccccccccccccccccccccccccccccccccccccccccccccccccccccccccccccccccccccccccccccccccccccccccccccccccccccccccccccccccccccccccccccccccccccccccccccccccccccccccccccccccccccccccccccccccccccccccccccccccccccccccccccccccccccccccccccccccccccccccccccccccccccccccccccccccccccccccccccccccccccccccccccccccccccccccccccccccccccccccccccccccccccccccccccccccccccccccccccccccccccccccccccccccccccccccccccccccccccccccccccc" />
</svg>
