; NON-PLATED HOLES START AT T1
; THROUGH (PLATED) HOLES START AT T100
M48
INCH
T1C0.125984
T2C0.196850
T100C0.019685
T101C0.042000
T102C0.030000
T103C0.032000
T104C0.039370
T105C0.027559
T106C0.070866
T107C0.040157
T108C0.040158
T109C0.047244
T110C0.035433
T111C0.031496
T112C0.031497
T113C0.023622
T114C0.035000
T115C0.052000
%
T1
X024344Y001370
X001344Y001370
T2
X019470Y032746
T100
X019844Y016870
T101
X020094Y037870
X017224Y038674
T102
X000719Y010870
X017594Y030995
X043219Y038245
X027219Y028995
X029788Y025786
X024594Y012745
X030094Y027995
X044094Y005745
X026929Y026346
X042344Y006870
X044483Y035620
X005344Y016870
X010469Y015995
X030094Y026995
X033844Y031245
X021818Y028950
X028844Y029745
X027094Y011745
X042844Y028370
X033844Y030245
X001719Y010870
X025219Y028995
X042344Y004870
X003344Y005495
X039844Y009245
X027788Y025786
X024969Y026745
X042844Y030370
X038219Y035620
X016094Y027745
X025594Y012745
X038219Y034620
X038969Y031370
X025094Y011745
X001961Y007495
X006344Y016870
X001961Y005495
X030844Y029745
X004344Y005495
X008469Y015995
X023594Y029870
X016986Y028197
X019594Y030995
X045219Y038245
X043094Y005745
X036969Y031370
X043483Y035620
X009344Y013745
X041844Y009245
X010344Y013745
T103
X026719Y030870
X025719Y030870
X027719Y027870
X022719Y030870
X024719Y027870
X021719Y030870
X023719Y027870
X027719Y030870
X024719Y030870
X026719Y027870
X023719Y030870
X025719Y027870
X022719Y027870
X021719Y027870
T104
X025094Y018245
X001719Y024731
X025094Y015245
X004719Y022731
X001094Y030620
X026219Y018245
X026219Y015245
X004719Y024731
X005094Y030620
X023094Y018245
X023094Y015245
X028219Y018245
X028219Y015245
X001719Y022731
T105
X004469Y025995
X022969Y025620
X005469Y025995
X022969Y024620
T106
X014369Y034853
X006078Y034742
X002288Y034759
X010622Y034759
T107
X022969Y036120
X004316Y003245
X000719Y018120
X046219Y007620
X032469Y036120
X016532Y025957
X030469Y036120
X008233Y009245
X046219Y017495
X014532Y025957
X010844Y007245
X046219Y009620
X008344Y019370
X036719Y037995
X011899Y033490
X012532Y025957
X042469Y037870
X009344Y021370
X036344Y009870
X003844Y004245
X021608Y033490
X027219Y034120
X029469Y034120
X027594Y000995
X021219Y002495
X007344Y021370
X037344Y011870
X025219Y034120
X023594Y012495
X014538Y029814
X005344Y021370
X027219Y036120
X044963Y011000
X029469Y036120
X021594Y012495
X012538Y029814
X003344Y021370
X033094Y000995
X009844Y007245
X037344Y013870
X025219Y036120
X010538Y029814
X031094Y000995
X007844Y007245
X009532Y025957
X001358Y037120
X005844Y007245
X037344Y015870
X033594Y017745
X018219Y002495
X006344Y002245
X031594Y017745
X012969Y003620
X016219Y002495
X004344Y002245
X034719Y034120
X041344Y007120
X014219Y002495
X009538Y029814
X033594Y018870
X000719Y023745
X036719Y033120
X021344Y019370
X012969Y005620
X031594Y018870
X034719Y036120
X022344Y021370
X036719Y035120
X020344Y021370
X011538Y030897
X004469Y028245
X006344Y008245
X020219Y036620
X010233Y008245
X012969Y009620
X004344Y008245
X038344Y007120
X040719Y037870
X005344Y010245
X011344Y020370
X019344Y021370
X003344Y010245
X003719Y014120
X014344Y019370
X017344Y021370
X011844Y004245
X001719Y014120
X012344Y019370
X015344Y021370
X011344Y022370
X017469Y034620
X003719Y016120
X008538Y030897
X009233Y008245
X010344Y019370
X023969Y034120
X013344Y021370
X005316Y001245
X001719Y016120
X030094Y029120
X017469Y036620
X014311Y033490
X031469Y034120
X003719Y018120
X008233Y010245
X023969Y036120
X005316Y003245
X001719Y018120
X026719Y014120
X022219Y001495
X014719Y032245
X008344Y020370
X020219Y001495
X031469Y036120
X006344Y020370
X046219Y020495
X008844Y004245
X036344Y010870
X009344Y019370
X004344Y020370
X011533Y024922
X008344Y022370
X006844Y004245
X007344Y019370
X006344Y022370
X037344Y009870
X046219Y022495
X004844Y004245
X036344Y012870
X028219Y034120
X000677Y026647
X022219Y005495
X002844Y004245
X038344Y011870
X026219Y034120
X015538Y029814
X020219Y005495
X012219Y015995
X046219Y024495
X036344Y014870
X028219Y036120
X019219Y001495
X022594Y012495
X013538Y029814
X028594Y005995
X040344Y004120
X038344Y013870
X026219Y036120
X017219Y001495
X020594Y012495
X026594Y005995
X015219Y001495
X008533Y024922
X038344Y015870
X022969Y037995
X034594Y017745
X032094Y005995
X032469Y037995
X019219Y005495
X021344Y020370
X032594Y017745
X001469Y021120
X030469Y037995
X005344Y002245
X017219Y005495
X035719Y034120
X046219Y019510
X039344Y004120
X030594Y017745
X003344Y002245
X034594Y018870
X015219Y005495
X033719Y034120
X037344Y004120
X032594Y018870
X020344Y019370
X035719Y036120
X030594Y018870
X016538Y030897
X033719Y036120
X014538Y030897
X027219Y037995
X029469Y037995
X012538Y030897
X005469Y028245
X033483Y026245
X002719Y013120
X029594Y017745
X025219Y037995
X010538Y030897
X003469Y028245
X005344Y008245
X016344Y020370
X000719Y013120
X046219Y002620
X044969Y012995
X011344Y018370
X019344Y019370
X014344Y020370
X033483Y028245
X002719Y015120
X029594Y018870
X022969Y033120
X017344Y019370
X011899Y037786
X012344Y020370
X000719Y015120
X046219Y004620
X032469Y033120
X010344Y020370
X018344Y021370
X014344Y022370
X021608Y037786
X030469Y033120
X002719Y017120
X046219Y014495
X013344Y019370
X022969Y035120
X012344Y022370
X010844Y004245
X009538Y030897
X000719Y017120
X046219Y006620
X032469Y035120
X010344Y022370
X007538Y030897
X030469Y035120
X008233Y008245
X046219Y016495
X034719Y037995
X010532Y025957
X046219Y008620
X014291Y037786
X038719Y037870
X027719Y014120
X042469Y036870
X011344Y001245
X009344Y020370
X016533Y024922
X027219Y033120
X029469Y033120
X046219Y037870
X021219Y001495
X013719Y032245
X007344Y020370
X014533Y024922
X009844Y004245
X037344Y010870
X025219Y033120
X044219Y037870
X011344Y003245
X005344Y020370
X012533Y024922
X019219Y015995
X007844Y004245
X021844Y022370
X027219Y035120
X029469Y035120
X003344Y020370
X010533Y024922
X007344Y022370
X038344Y009870
X017219Y015995
X005844Y004245
X037344Y012870
X033594Y013620
X025219Y035120
X023594Y014120
X015219Y015995
X007532Y025957
X031594Y013620
X003844Y007245
X033594Y014745
X021219Y005495
X013219Y015995
X031594Y014745
X037344Y014870
X041344Y004120
X018219Y001495
X027594Y005995
X016219Y001495
X034719Y033120
X009533Y024922
X008983Y032258
X018844Y022370
X014219Y001495
X023969Y037995
X007533Y024922
X006983Y032258
X033094Y005995
X012969Y004620
X034719Y035120
X022344Y020370
X031094Y005995
X031469Y037995
X040344Y000870
X018219Y005495
X000719Y024745
X036719Y034120
X020344Y020370
X016219Y005495
X038344Y004120
X014219Y005495
X036719Y036120
X011372Y002245
X002733Y037120
X012969Y008620
X015538Y030897
X029219Y022495
X006344Y009245
X004620Y037786
X028219Y037995
X013538Y030897
X039344Y000870
X010233Y009245
X027219Y022495
X019344Y020370
X004344Y009245
X003719Y013120
X026219Y037995
X037344Y000870
X025219Y022495
X017344Y020370
X001719Y013120
X015344Y020370
X011344Y021370
X003719Y015120
X023969Y033120
X018344Y019370
X013344Y020370
X001719Y015120
X015344Y022370
X017469Y035620
X031469Y033120
X003719Y017120
X009233Y009245
X023969Y035120
X015532Y025957
X011844Y007245
X001719Y017120
X013532Y025957
X017469Y037620
X031469Y035120
X035719Y037995
X011532Y025957
X028594Y000995
X022219Y002495
X033719Y037995
X008344Y021370
X026594Y000995
X020219Y002495
X006344Y021370
X046219Y021495
X029094Y028120
X036344Y011870
X028219Y033120
X010344Y001245
X015533Y024922
X004344Y021370
X038344Y010870
X026219Y033120
X011538Y029814
X013533Y024922
X046219Y023495
X032094Y000995
X008844Y007245
X036344Y013870
X028219Y035120
X010344Y003245
X018219Y015995
X038344Y012870
X034594Y013620
X006844Y007245
X020844Y022370
X026219Y035120
X024594Y014120
X020219Y035245
X016219Y015995
X008532Y025957
X046219Y025495
X032594Y013620
X004844Y007245
X034594Y014745
X036344Y015870
X019219Y002495
X014219Y015995
X030594Y013620
X002844Y007245
X032594Y014745
X038344Y014870
X017219Y002495
X009344Y001245
X030594Y014745
X015219Y002495
X040344Y007120
X001469Y020120
X008538Y029814
X009344Y003245
X035719Y033120
X046219Y018510
X009983Y032258
X019844Y022370
X003344Y001245
X033719Y033120
X021344Y021370
X007983Y032258
X035719Y035120
X029594Y013620
X033719Y035120
X029594Y014745
X039344Y007120
X037344Y007120
X006344Y010245
X010233Y010245
X004344Y010245
X010372Y002245
X046219Y001620
X033483Y027245
X002719Y014120
X028219Y022495
X005344Y009245
X016344Y021370
X000719Y014120
X046219Y003620
X038344Y000870
X011344Y019370
X026219Y022495
X018344Y020370
X003344Y009245
X014344Y021370
X006316Y001245
X033483Y029245
X002719Y016120
X022969Y034120
X024219Y022495
X012344Y021370
X004316Y001245
X000719Y016120
X004603Y033490
X032469Y034120
X009233Y010245
X010344Y021370
X009372Y002245
X006316Y003245
X030469Y034120
X002719Y018120
X046219Y015495
T108
X005564Y031479
X000703Y031479
T109
X003121Y032092
T110
X039344Y018869
X042344Y018869
X039344Y015869
X042344Y015869
X039344Y012869
X042344Y012869
X039344Y017869
X042344Y017869
X039344Y014869
X042344Y014869
X042344Y011869
X039344Y016869
X039344Y009869
X042344Y016869
X042344Y009869
X039344Y013869
X042344Y013869
X039344Y010869
X042344Y010869
T111
X045969Y030370
X045969Y032370
X040969Y030370
X040969Y032370
T112
X044844Y008620
X044844Y017479
X044844Y021479
X044844Y018510
X044844Y019495
X044844Y016495
X044844Y020495
X044844Y002604
X044844Y023479
X027203Y021120
X026219Y021120
X044844Y007604
X044844Y001620
X044844Y022495
X044844Y004604
X044844Y025479
X044844Y006620
X044844Y015479
X044844Y009604
X044844Y003620
X029203Y021120
X044844Y024495
X024719Y020510
X028219Y021120
X044844Y014495
X024719Y021495
T113
X041719Y001995
X037844Y017495
X004469Y011745
X020094Y013870
X037719Y029870
X005469Y027120
X039969Y021870
X001094Y004620
X037844Y019245
X023969Y004620
X022969Y016120
X037844Y018370
X011469Y013870
X023969Y002995
X040885Y003161
X031719Y032120
X038844Y033870
X035594Y018370
X006469Y014245
X020844Y009745
X033469Y032120
X015469Y017620
X034594Y004995
X003344Y029745
X019844Y011745
X039469Y035370
X046594Y029370
X041094Y021370
X041844Y026995
T114
X042719Y007995
X023844Y025245
X040594Y027620
X029344Y031120
X006969Y011995
X025778Y025752
X020344Y027995
X036094Y024370
X039094Y019870
X009969Y014995
X035719Y003120
X033219Y010745
X026192Y027258
X039094Y027370
X028219Y007745
X041969Y034870
X044094Y029370
X040719Y023745
X022219Y007745
X016969Y014995
X007969Y011995
X035219Y007745
X034385Y027717
X034344Y020620
X034219Y010745
X042840Y021623
X039094Y022370
X024811Y025498
X014969Y011995
X044969Y032870
X023219Y007745
X041969Y028870
X017969Y014995
X043894Y010755
X036094Y025370
X033469Y025120
X011969Y014995
X039094Y028370
X030219Y007745
X015969Y011995
X023969Y017495
X005969Y014995
X024219Y007745
X046594Y011370
X040719Y024870
X027219Y010745
X042840Y022748
X029094Y026495
X042094Y019870
X012969Y014995
X031219Y007745
X039094Y023370
X041969Y030870
X044969Y033870
X020344Y030995
X029219Y007745
X041969Y029870
X010969Y011995
X039094Y030370
X028219Y010745
X036094Y026370
X013969Y014995
X020969Y026995
X039094Y029370
X008969Y011995
X040719Y018620
X022219Y010745
X040719Y025995
X035219Y010745
X043830Y012536
X044969Y027870
X036094Y021370
X018969Y014995
X042840Y023873
X009969Y011995
X039094Y024370
X023219Y010745
X041969Y031870
X044969Y034870
X019765Y029185
X016969Y011995
X006969Y014995
X030219Y010745
X036094Y027370
X025219Y007745
X035719Y006120
X034385Y024717
X023969Y020495
X024219Y010745
X043366Y025436
X032219Y007745
X017969Y011995
X007969Y014995
X031219Y010745
X026219Y007745
X044969Y028870
X042388Y025215
X036094Y022370
X034344Y023620
X011969Y011995
X039094Y025370
X029219Y010745
X041969Y032870
X042840Y020498
X014969Y014995
X005969Y011995
X033219Y007745
X030469Y025120
X036094Y028370
X012969Y011995
X015969Y014995
X034219Y007745
X044969Y030870
X044969Y029870
X036094Y023370
X013969Y011995
X039094Y026370
X041969Y033870
X040719Y015620
X023969Y026995
X030344Y031120
X036094Y030370
X025219Y010745
X016844Y029870
X010969Y014995
X036094Y029370
X040719Y022620
X018969Y011995
X008969Y014995
X032219Y010745
X039094Y021370
X027219Y007745
X026219Y010745
X044969Y031870
X041969Y027870
T115
X033594Y004995
X029094Y001995
X026094Y004995
X027594Y004995
X032094Y001995
X030608Y004995
X033594Y001995
X029094Y004995
X026094Y001995
X027594Y001995
X032094Y004995
X030608Y001995
T00
M30
