G04 MADE WITH FRITZING*
G04 WWW.FRITZING.ORG*
G04 DOUBLE SIDED*
G04 HOLES PLATED*
G04 CONTOUR ON CENTER OF CONTOUR VECTOR*
%ASAXBY*%
%FSLAX23Y23*%
%MOIN*%
%OFA0B0*%
%SFA1.0B1.0*%
%ADD10C,0.069370*%
%ADD11C,0.062000*%
%ADD12C,0.075000*%
%ADD13C,0.090157*%
%ADD14C,0.080000*%
%ADD15C,0.085000*%
%ADD16C,0.135984*%
%ADD17C,0.206850*%
%ADD18C,0.143858*%
%ADD19C,0.105276*%
%ADD20C,0.113150*%
%ADD21C,0.097402*%
%ADD22C,0.088000*%
%ADD23C,0.102000*%
%ADD24C,0.073622*%
%ADD25C,0.072992*%
%ADD26R,0.085000X0.085000*%
%ADD27R,0.102000X0.102000*%
%ADD28R,0.090158X0.090158*%
%ADD29R,0.072992X0.072992*%
%ADD30R,0.001000X0.001000*%
%LNMASK1*%
G90*
G70*
G54D10*
X472Y2262D03*
X172Y2262D03*
X472Y2462D03*
X172Y2462D03*
X472Y2262D03*
X172Y2262D03*
X472Y2462D03*
X172Y2462D03*
X2309Y1525D03*
X2309Y1825D03*
X2509Y1525D03*
X2509Y1825D03*
X2309Y1525D03*
X2309Y1825D03*
X2509Y1525D03*
X2509Y1825D03*
X2622Y1525D03*
X2622Y1825D03*
X2822Y1525D03*
X2822Y1825D03*
X2622Y1525D03*
X2622Y1825D03*
X2822Y1525D03*
X2822Y1825D03*
G54D11*
X2772Y3087D03*
X2672Y3087D03*
X2572Y3087D03*
X2472Y3087D03*
X2372Y3087D03*
X2272Y3087D03*
X2172Y3087D03*
X2172Y2787D03*
X2272Y2787D03*
X2372Y2787D03*
X2472Y2787D03*
X2572Y2787D03*
X2672Y2787D03*
X2772Y2787D03*
X2772Y3087D03*
X2672Y3087D03*
X2572Y3087D03*
X2472Y3087D03*
X2372Y3087D03*
X2272Y3087D03*
X2172Y3087D03*
X2172Y2787D03*
X2272Y2787D03*
X2372Y2787D03*
X2472Y2787D03*
X2572Y2787D03*
X2672Y2787D03*
X2772Y2787D03*
G54D12*
X2297Y2562D03*
X2297Y2462D03*
X2297Y2562D03*
X2297Y2462D03*
X2297Y2562D03*
X2297Y2462D03*
X547Y2600D03*
X447Y2600D03*
X547Y2600D03*
X447Y2600D03*
X547Y2600D03*
X447Y2600D03*
G54D13*
X4422Y3787D03*
X4622Y3787D03*
X4072Y3787D03*
X3872Y3787D03*
X136Y3712D03*
X273Y3712D03*
X2034Y3650D03*
X2034Y3787D03*
G54D14*
X4272Y425D03*
X4272Y625D03*
X847Y1600D03*
X1047Y1600D03*
X2509Y1175D03*
X2709Y1175D03*
X3947Y911D03*
X4147Y911D03*
X184Y750D03*
X184Y550D03*
X3897Y3137D03*
X3697Y3137D03*
X4284Y2837D03*
X4284Y3037D03*
X2872Y2900D03*
X3072Y2900D03*
X1759Y3100D03*
X1959Y3100D03*
X2572Y2675D03*
X2772Y2675D03*
X2182Y2895D03*
X2359Y2987D03*
X2522Y2900D03*
X2722Y2900D03*
X2709Y2587D03*
X2809Y2587D03*
X2709Y2587D03*
X2809Y2587D03*
X438Y567D03*
X338Y567D03*
X438Y567D03*
X338Y567D03*
X934Y1375D03*
X1034Y1375D03*
X934Y1375D03*
X1034Y1375D03*
X2559Y1275D03*
X2459Y1275D03*
X2559Y1275D03*
X2459Y1275D03*
X3622Y825D03*
X3722Y825D03*
X3622Y825D03*
X3722Y825D03*
X3822Y3462D03*
X3822Y3562D03*
X3822Y3462D03*
X3822Y3562D03*
X172Y1062D03*
X72Y1062D03*
X172Y1062D03*
X72Y1062D03*
X534Y1687D03*
X634Y1687D03*
X534Y1687D03*
X634Y1687D03*
X3384Y3037D03*
X3384Y3137D03*
X3384Y3037D03*
X3384Y3137D03*
X4359Y3562D03*
X4459Y3562D03*
X4359Y3562D03*
X4459Y3562D03*
G54D15*
X4497Y2787D03*
X4197Y2787D03*
X4497Y2887D03*
X4197Y2887D03*
X4497Y2987D03*
X4197Y2987D03*
X4497Y3087D03*
X4197Y3087D03*
X4497Y3187D03*
X4197Y3187D03*
X4497Y3287D03*
X4197Y3287D03*
X4497Y3387D03*
X4197Y3387D03*
X4497Y3487D03*
X4197Y3487D03*
X1897Y1500D03*
X1897Y1200D03*
X1797Y1500D03*
X1797Y1200D03*
X1697Y1500D03*
X1697Y1200D03*
X1597Y1500D03*
X1597Y1200D03*
X1497Y1500D03*
X1497Y1200D03*
X1397Y1500D03*
X1397Y1200D03*
X1297Y1500D03*
X1297Y1200D03*
X1197Y1500D03*
X1197Y1200D03*
X1097Y1500D03*
X1097Y1200D03*
X997Y1500D03*
X997Y1200D03*
X897Y1500D03*
X897Y1200D03*
X797Y1500D03*
X797Y1200D03*
X697Y1500D03*
X697Y1200D03*
X597Y1500D03*
X597Y1200D03*
X3522Y1075D03*
X3522Y775D03*
X3422Y1075D03*
X3422Y775D03*
X3322Y1075D03*
X3322Y775D03*
X3222Y1075D03*
X3222Y775D03*
X3122Y1075D03*
X3122Y775D03*
X3022Y1075D03*
X3022Y775D03*
X2922Y1075D03*
X2922Y775D03*
X2822Y1075D03*
X2822Y775D03*
X2722Y1075D03*
X2722Y775D03*
X2622Y1075D03*
X2622Y775D03*
X2522Y1075D03*
X2522Y775D03*
X2422Y1075D03*
X2422Y775D03*
X2322Y1075D03*
X2322Y775D03*
X2222Y1075D03*
X2222Y775D03*
X4233Y987D03*
X3933Y987D03*
X4233Y1087D03*
X3933Y1087D03*
X4233Y1187D03*
X3933Y1187D03*
X4233Y1287D03*
X3933Y1287D03*
X4233Y1387D03*
X3933Y1387D03*
X4233Y1487D03*
X3933Y1487D03*
X4233Y1587D03*
X3933Y1587D03*
X4233Y1687D03*
X3933Y1687D03*
X4233Y1787D03*
X3933Y1787D03*
X4233Y1887D03*
X3933Y1887D03*
X3609Y3037D03*
X3909Y3037D03*
X3609Y2937D03*
X3909Y2937D03*
X3609Y2837D03*
X3909Y2837D03*
X3609Y2737D03*
X3909Y2737D03*
X3609Y2637D03*
X3909Y2637D03*
X3609Y2537D03*
X3909Y2537D03*
X3609Y2437D03*
X3909Y2437D03*
X3609Y2337D03*
X3909Y2337D03*
X3609Y2237D03*
X3909Y2237D03*
X3609Y2137D03*
X3909Y2137D03*
G54D13*
X334Y2137D03*
X434Y2137D03*
X534Y2137D03*
X634Y2137D03*
X734Y2137D03*
X834Y2137D03*
X934Y2137D03*
X1034Y2137D03*
X1134Y2137D03*
X1234Y2137D03*
X1334Y2137D03*
X1434Y2137D03*
X1534Y2137D03*
X1634Y2137D03*
X1734Y2137D03*
X1834Y2137D03*
X1934Y2137D03*
X2034Y2137D03*
X2134Y2137D03*
X2234Y2137D03*
X334Y2137D03*
X434Y2137D03*
X534Y2137D03*
X634Y2137D03*
X734Y2137D03*
X834Y2137D03*
X934Y2137D03*
X1034Y2137D03*
X1134Y2137D03*
X1234Y2137D03*
X1334Y2137D03*
X1434Y2137D03*
X1534Y2137D03*
X1634Y2137D03*
X1734Y2137D03*
X1834Y2137D03*
X1934Y2137D03*
X2034Y2137D03*
X2134Y2137D03*
X2234Y2137D03*
X2234Y2037D03*
X2134Y2037D03*
X2034Y2037D03*
X1934Y2037D03*
X1834Y2037D03*
X1734Y2037D03*
X1634Y2037D03*
X1534Y2037D03*
X1434Y2037D03*
X1334Y2037D03*
X1234Y2037D03*
X1134Y2037D03*
X1034Y2037D03*
X934Y2037D03*
X834Y2037D03*
X734Y2037D03*
X634Y2037D03*
X534Y2037D03*
X434Y2037D03*
X334Y2037D03*
X334Y2137D03*
X434Y2137D03*
X534Y2137D03*
X634Y2137D03*
X734Y2137D03*
X834Y2137D03*
X934Y2137D03*
X1034Y2137D03*
X1134Y2137D03*
X1234Y2137D03*
X1334Y2137D03*
X1434Y2137D03*
X1534Y2137D03*
X1634Y2137D03*
X1734Y2137D03*
X1834Y2137D03*
X1934Y2137D03*
X2034Y2137D03*
X2134Y2137D03*
X2234Y2137D03*
X334Y2137D03*
X434Y2137D03*
X534Y2137D03*
X634Y2137D03*
X734Y2137D03*
X834Y2137D03*
X934Y2137D03*
X1034Y2137D03*
X1134Y2137D03*
X1234Y2137D03*
X1334Y2137D03*
X1434Y2137D03*
X1534Y2137D03*
X1634Y2137D03*
X1734Y2137D03*
X1834Y2137D03*
X1934Y2137D03*
X2034Y2137D03*
X2134Y2137D03*
X2234Y2137D03*
X2234Y2037D03*
X2134Y2037D03*
X2034Y2037D03*
X1934Y2037D03*
X1834Y2037D03*
X1734Y2037D03*
X1634Y2037D03*
X1534Y2037D03*
X1434Y2037D03*
X1334Y2037D03*
X1234Y2037D03*
X1134Y2037D03*
X1034Y2037D03*
X934Y2037D03*
X834Y2037D03*
X734Y2037D03*
X634Y2037D03*
X534Y2037D03*
X434Y2037D03*
X334Y2037D03*
G54D16*
X2434Y137D03*
G54D17*
X1947Y3275D03*
G54D16*
X134Y137D03*
G54D13*
X147Y2112D03*
X147Y2012D03*
X1134Y1837D03*
X1134Y1937D03*
X1434Y2237D03*
X1534Y2237D03*
X634Y2237D03*
X734Y2237D03*
X834Y2237D03*
X1034Y2237D03*
X1134Y2237D03*
X1234Y2237D03*
X734Y1937D03*
X834Y1937D03*
X934Y1937D03*
X1034Y1937D03*
X1234Y1937D03*
X1334Y1937D03*
X1434Y1937D03*
X1734Y1937D03*
X1834Y1937D03*
X1934Y1937D03*
X2034Y1937D03*
X2134Y1937D03*
X2059Y1250D03*
X2159Y1250D03*
X2259Y1250D03*
X2359Y1250D03*
X1884Y2237D03*
X1984Y2237D03*
X2084Y2237D03*
X2184Y2237D03*
G54D18*
X1437Y3485D03*
X1062Y3476D03*
X229Y3476D03*
X608Y3474D03*
G54D19*
X312Y3209D03*
G54D20*
X68Y2665D03*
G54D21*
X556Y3148D03*
X70Y3148D03*
G54D22*
X509Y3062D03*
X109Y3062D03*
X509Y3062D03*
X109Y3062D03*
X509Y3062D03*
X109Y3062D03*
G54D13*
X72Y2475D03*
X72Y2375D03*
G54D23*
X3484Y475D03*
X3484Y175D03*
X3334Y475D03*
X3334Y175D03*
X3186Y475D03*
X3186Y175D03*
X3034Y475D03*
X3034Y175D03*
X2884Y475D03*
X2884Y175D03*
X2734Y475D03*
X2734Y175D03*
G54D13*
X854Y2981D03*
X954Y2981D03*
X1054Y2981D03*
X1154Y2981D03*
X1254Y2981D03*
X1354Y2981D03*
X1454Y2981D03*
X1554Y2981D03*
X754Y3090D03*
X854Y3090D03*
X954Y3090D03*
X1054Y3090D03*
X1154Y3090D03*
X1254Y3090D03*
X1354Y3090D03*
X1454Y3090D03*
X1554Y3090D03*
X1654Y3090D03*
X754Y3090D03*
X854Y3090D03*
X954Y3090D03*
X1054Y3090D03*
X1154Y3090D03*
X1254Y3090D03*
X1354Y3090D03*
X1454Y3090D03*
X1554Y3090D03*
X1654Y3090D03*
X753Y2492D03*
X853Y2492D03*
X953Y2492D03*
X1053Y2492D03*
X1153Y2492D03*
X1253Y2492D03*
X1353Y2492D03*
X1453Y2492D03*
X1553Y2492D03*
X1653Y2492D03*
X753Y2492D03*
X853Y2492D03*
X953Y2492D03*
X1053Y2492D03*
X1153Y2492D03*
X1253Y2492D03*
X1353Y2492D03*
X1453Y2492D03*
X1553Y2492D03*
X1653Y2492D03*
X753Y2596D03*
X853Y2596D03*
X953Y2596D03*
X1053Y2596D03*
X1153Y2596D03*
X1253Y2596D03*
X1353Y2596D03*
X1453Y2596D03*
X1553Y2596D03*
X1653Y2596D03*
X753Y2596D03*
X853Y2596D03*
X953Y2596D03*
X1053Y2596D03*
X1153Y2596D03*
X1253Y2596D03*
X1353Y2596D03*
X1453Y2596D03*
X1553Y2596D03*
X1653Y2596D03*
X1431Y3349D03*
X460Y3349D03*
X2161Y3349D03*
X1190Y3349D03*
X2161Y3779D03*
X1190Y3779D03*
X1429Y3779D03*
X462Y3779D03*
G54D24*
X3997Y2287D03*
X2522Y625D03*
X447Y1175D03*
X109Y462D03*
X1147Y1387D03*
X647Y1425D03*
X2297Y1625D03*
X4209Y187D03*
X4134Y275D03*
X2447Y262D03*
X2397Y462D03*
X2034Y1500D03*
X1547Y1762D03*
X1497Y2787D03*
X3759Y2887D03*
X3609Y1825D03*
X3634Y1600D03*
X3784Y1837D03*
X3784Y1750D03*
X4132Y812D03*
X3784Y1925D03*
X4159Y2037D03*
X4209Y2700D03*
X4259Y2637D03*
X3884Y3387D03*
X3109Y3162D03*
X4659Y2975D03*
X3284Y3212D03*
X3947Y3537D03*
X1884Y3787D03*
X1734Y3875D03*
X334Y2975D03*
X547Y2712D03*
G54D13*
X798Y3226D03*
X698Y3226D03*
X2297Y3612D03*
X2297Y3512D03*
X2297Y3412D03*
X2297Y3312D03*
X2297Y3612D03*
X2297Y3512D03*
X2297Y3412D03*
X2297Y3312D03*
X2397Y3312D03*
X2397Y3412D03*
X2397Y3512D03*
X2397Y3612D03*
X2947Y3612D03*
X2947Y3512D03*
X2947Y3412D03*
X2947Y3312D03*
X2947Y3612D03*
X2947Y3512D03*
X2947Y3412D03*
X2947Y3312D03*
X3047Y3312D03*
X3047Y3412D03*
X3047Y3512D03*
X3047Y3612D03*
X3147Y3612D03*
X3147Y3512D03*
X3147Y3412D03*
X3147Y3312D03*
X3147Y3612D03*
X3147Y3512D03*
X3147Y3412D03*
X3147Y3312D03*
X3247Y3312D03*
X3247Y3412D03*
X3247Y3512D03*
X3247Y3612D03*
X2522Y3612D03*
X2522Y3512D03*
X2522Y3412D03*
X2522Y3312D03*
X2522Y3612D03*
X2522Y3512D03*
X2522Y3412D03*
X2522Y3312D03*
X2622Y3312D03*
X2622Y3412D03*
X2622Y3512D03*
X2622Y3612D03*
X2722Y3612D03*
X2722Y3512D03*
X2722Y3412D03*
X2722Y3312D03*
X2722Y3612D03*
X2722Y3512D03*
X2722Y3412D03*
X2722Y3312D03*
X2822Y3312D03*
X2822Y3412D03*
X2822Y3512D03*
X2822Y3612D03*
X3372Y3612D03*
X3372Y3512D03*
X3372Y3412D03*
X3372Y3312D03*
X3372Y3612D03*
X3372Y3512D03*
X3372Y3412D03*
X3372Y3312D03*
X3472Y3312D03*
X3472Y3412D03*
X3472Y3512D03*
X3472Y3612D03*
X3572Y3612D03*
X3572Y3512D03*
X3572Y3412D03*
X3572Y3312D03*
X3572Y3612D03*
X3572Y3512D03*
X3572Y3412D03*
X3572Y3312D03*
X3672Y3312D03*
X3672Y3412D03*
X3672Y3512D03*
X3672Y3612D03*
X1747Y3762D03*
X1747Y3662D03*
X1747Y3562D03*
X1747Y3462D03*
X1472Y3225D03*
X1372Y3225D03*
X998Y3226D03*
X898Y3226D03*
X2972Y2812D03*
X3072Y2712D03*
X2872Y2712D03*
G54D15*
X4072Y1562D03*
X4072Y1862D03*
X4072Y1562D03*
X4072Y1862D03*
X4409Y2937D03*
X4337Y2544D03*
X4409Y2937D03*
X4337Y2544D03*
X3434Y2625D03*
X3434Y2925D03*
X3434Y2625D03*
X3434Y2925D03*
X4397Y600D03*
X4397Y900D03*
X4397Y600D03*
X4397Y900D03*
X3672Y337D03*
X3672Y637D03*
X3672Y337D03*
X3672Y637D03*
X3597Y262D03*
X3597Y562D03*
X3597Y262D03*
X3597Y562D03*
X1447Y1387D03*
X1747Y1387D03*
X1447Y1387D03*
X1747Y1387D03*
X1984Y1425D03*
X1984Y1125D03*
X1984Y1425D03*
X1984Y1125D03*
X3442Y2343D03*
X3284Y2087D03*
X3442Y2343D03*
X3284Y2087D03*
X3347Y2525D03*
X3047Y2525D03*
X3347Y2525D03*
X3047Y2525D03*
X2014Y2931D03*
X1722Y3000D03*
X2014Y2931D03*
X1722Y3000D03*
X2072Y2800D03*
X2072Y3100D03*
X2072Y2800D03*
X2072Y3100D03*
X2397Y2700D03*
X2097Y2700D03*
X2397Y2700D03*
X2097Y2700D03*
G54D13*
X2959Y1362D03*
X3059Y1362D03*
X3159Y1362D03*
X3259Y1362D03*
X3359Y1362D03*
X3459Y1362D03*
X2959Y1887D03*
X3059Y1887D03*
X3159Y1887D03*
X3259Y1887D03*
X3359Y1887D03*
X3459Y1887D03*
X4622Y362D03*
X4622Y462D03*
X4622Y162D03*
X4622Y262D03*
X2822Y2250D03*
X2922Y2250D03*
X2622Y2250D03*
X2722Y2250D03*
X2422Y2250D03*
X2522Y2250D03*
X3784Y987D03*
X3784Y1087D03*
X3784Y1187D03*
X3784Y1287D03*
X3784Y1387D03*
X3784Y1487D03*
X3784Y1587D03*
X4622Y662D03*
X4622Y762D03*
X4622Y862D03*
X4622Y962D03*
X4622Y1450D03*
X4622Y1550D03*
X4622Y1650D03*
X4622Y1750D03*
X4622Y1851D03*
X4622Y1951D03*
X4622Y2050D03*
X4622Y2150D03*
X4622Y2250D03*
X4622Y2350D03*
X4622Y2450D03*
X4622Y2550D03*
X4247Y3687D03*
X4247Y3787D03*
X2297Y3800D03*
X2397Y3800D03*
X3147Y3800D03*
X3247Y3800D03*
X2947Y3800D03*
X3047Y3800D03*
X2722Y3800D03*
X2822Y3800D03*
X2522Y3800D03*
X2622Y3800D03*
X3372Y3800D03*
X3472Y3800D03*
X3572Y3800D03*
X3672Y3800D03*
X172Y1812D03*
X172Y1712D03*
X172Y1612D03*
X172Y1512D03*
X172Y1412D03*
X172Y1312D03*
X72Y1812D03*
X72Y1712D03*
X72Y1612D03*
X72Y1512D03*
X72Y1412D03*
X72Y1312D03*
X272Y1812D03*
X272Y1712D03*
X272Y1612D03*
X272Y1512D03*
X272Y1412D03*
X272Y1312D03*
X272Y1812D03*
X272Y1712D03*
X272Y1612D03*
X272Y1512D03*
X272Y1412D03*
X272Y1312D03*
X372Y1312D03*
X372Y1412D03*
X372Y1512D03*
X372Y1612D03*
X372Y1712D03*
X372Y1812D03*
X334Y1025D03*
X284Y425D03*
X284Y725D03*
X384Y425D03*
X384Y725D03*
X484Y425D03*
X484Y725D03*
X584Y425D03*
X584Y725D03*
X684Y425D03*
X684Y725D03*
X784Y425D03*
X784Y725D03*
X884Y425D03*
X884Y725D03*
X984Y425D03*
X984Y725D03*
X1084Y425D03*
X1084Y725D03*
X1184Y425D03*
X1184Y725D03*
X632Y325D03*
X532Y325D03*
X432Y325D03*
X1134Y325D03*
X1034Y325D03*
X934Y325D03*
X1023Y825D03*
X923Y825D03*
X823Y825D03*
X634Y825D03*
X534Y825D03*
X434Y825D03*
X334Y225D03*
X434Y225D03*
X534Y225D03*
X634Y225D03*
X334Y925D03*
X434Y925D03*
X534Y925D03*
X634Y925D03*
X1134Y125D03*
X1034Y125D03*
X934Y125D03*
X1137Y225D03*
X1037Y225D03*
X937Y225D03*
X632Y125D03*
X532Y125D03*
X432Y125D03*
X547Y2825D03*
X447Y2825D03*
X347Y2825D03*
X1023Y925D03*
X923Y925D03*
X823Y925D03*
X1023Y1025D03*
X923Y1025D03*
X823Y1025D03*
X1222Y1600D03*
X1322Y1600D03*
X1422Y1600D03*
X1522Y1600D03*
X1622Y1600D03*
X1722Y1600D03*
X1822Y1600D03*
X1922Y1600D03*
X634Y1025D03*
X534Y1025D03*
X434Y1025D03*
X334Y125D03*
G54D25*
X4484Y460D03*
X4484Y362D03*
X4484Y260D03*
X4484Y162D03*
X2920Y2112D03*
X2822Y2112D03*
X2672Y2064D03*
X2672Y2162D03*
X2520Y2112D03*
X2422Y2112D03*
X4484Y760D03*
X4484Y662D03*
X4484Y960D03*
X4484Y862D03*
X4484Y1548D03*
X4484Y1450D03*
X4484Y1748D03*
X4484Y1650D03*
X4484Y1950D03*
X4484Y1851D03*
X4484Y2148D03*
X4484Y2050D03*
X4484Y2348D03*
X4484Y2250D03*
X4484Y2548D03*
X4484Y2450D03*
G54D15*
X2997Y3025D03*
X2897Y3025D03*
X2615Y2588D03*
X2519Y2562D03*
X2422Y2537D03*
G54D13*
X1784Y350D03*
X1884Y350D03*
X1784Y350D03*
X1884Y350D03*
X1284Y350D03*
X1384Y350D03*
X1484Y350D03*
X1284Y350D03*
X1384Y350D03*
X1484Y350D03*
X2222Y550D03*
X2222Y250D03*
X2122Y550D03*
X2122Y250D03*
X2022Y550D03*
X2022Y250D03*
X1922Y550D03*
X1922Y250D03*
X1822Y550D03*
X1822Y250D03*
X1722Y550D03*
X1722Y250D03*
X1622Y550D03*
X1622Y250D03*
X1522Y550D03*
X1522Y250D03*
X1422Y550D03*
X1422Y250D03*
X4496Y1100D03*
X4497Y1300D03*
X2222Y150D03*
X2122Y150D03*
X2022Y150D03*
X1922Y150D03*
X1822Y150D03*
X1722Y150D03*
X1622Y150D03*
X1522Y150D03*
X1422Y150D03*
X3234Y575D03*
X3334Y575D03*
X3434Y575D03*
X2784Y575D03*
X2884Y575D03*
X2984Y575D03*
X2772Y1412D03*
X2672Y1412D03*
X2459Y1412D03*
X2359Y1412D03*
X3234Y75D03*
X3334Y75D03*
X3434Y75D03*
X2784Y75D03*
X2884Y75D03*
X2984Y75D03*
X3459Y1775D03*
X3459Y1475D03*
X3359Y1775D03*
X3359Y1475D03*
X3259Y1775D03*
X3259Y1475D03*
X3159Y1775D03*
X3159Y1475D03*
X3059Y1775D03*
X3059Y1475D03*
X2959Y1775D03*
X2959Y1475D03*
X4072Y75D03*
X3972Y75D03*
X3872Y75D03*
X3772Y75D03*
X4180Y370D03*
X4080Y370D03*
X3980Y370D03*
X3880Y370D03*
X3780Y370D03*
X4180Y670D03*
X4080Y670D03*
X3980Y670D03*
X3880Y670D03*
X3780Y670D03*
G54D26*
X4497Y2787D03*
X1897Y1500D03*
X3522Y1075D03*
X4233Y987D03*
X3609Y3037D03*
G54D27*
X3484Y475D03*
X3334Y475D03*
X3186Y475D03*
X3034Y475D03*
X2884Y475D03*
X2734Y475D03*
G54D28*
X2297Y3800D03*
X3147Y3800D03*
X2947Y3800D03*
X2722Y3800D03*
X2522Y3800D03*
X3372Y3800D03*
X3572Y3800D03*
X284Y425D03*
G54D29*
X4484Y460D03*
X4484Y260D03*
X2920Y2112D03*
X2672Y2064D03*
X2520Y2112D03*
X4484Y760D03*
X4484Y960D03*
X4484Y1548D03*
X4484Y1748D03*
X4484Y1950D03*
X4484Y2148D03*
X4484Y2348D03*
X4484Y2548D03*
G54D26*
X2997Y3025D03*
G54D28*
X2222Y550D03*
X3459Y1775D03*
G54D30*
X2167Y3144D02*
X2176Y3144D01*
X2267Y3144D02*
X2276Y3144D01*
X2366Y3144D02*
X2376Y3144D01*
X2466Y3144D02*
X2476Y3144D01*
X2566Y3144D02*
X2576Y3144D01*
X2666Y3144D02*
X2676Y3144D01*
X2766Y3144D02*
X2776Y3144D01*
X2163Y3143D02*
X2180Y3143D01*
X2263Y3143D02*
X2280Y3143D01*
X2363Y3143D02*
X2380Y3143D01*
X2463Y3143D02*
X2480Y3143D01*
X2563Y3143D02*
X2580Y3143D01*
X2663Y3143D02*
X2680Y3143D01*
X2763Y3143D02*
X2780Y3143D01*
X2160Y3142D02*
X2182Y3142D01*
X2260Y3142D02*
X2282Y3142D01*
X2360Y3142D02*
X2382Y3142D01*
X2460Y3142D02*
X2482Y3142D01*
X2560Y3142D02*
X2582Y3142D01*
X2660Y3142D02*
X2682Y3142D01*
X2760Y3142D02*
X2782Y3142D01*
X2158Y3141D02*
X2184Y3141D01*
X2258Y3141D02*
X2284Y3141D01*
X2358Y3141D02*
X2384Y3141D01*
X2458Y3141D02*
X2484Y3141D01*
X2558Y3141D02*
X2584Y3141D01*
X2658Y3141D02*
X2684Y3141D01*
X2758Y3141D02*
X2784Y3141D01*
X2156Y3140D02*
X2186Y3140D01*
X2256Y3140D02*
X2286Y3140D01*
X2356Y3140D02*
X2386Y3140D01*
X2456Y3140D02*
X2486Y3140D01*
X2556Y3140D02*
X2586Y3140D01*
X2656Y3140D02*
X2686Y3140D01*
X2756Y3140D02*
X2786Y3140D01*
X2155Y3139D02*
X2188Y3139D01*
X2255Y3139D02*
X2288Y3139D01*
X2355Y3139D02*
X2388Y3139D01*
X2455Y3139D02*
X2488Y3139D01*
X2555Y3139D02*
X2588Y3139D01*
X2655Y3139D02*
X2688Y3139D01*
X2755Y3139D02*
X2788Y3139D01*
X2153Y3138D02*
X2189Y3138D01*
X2253Y3138D02*
X2289Y3138D01*
X2353Y3138D02*
X2389Y3138D01*
X2453Y3138D02*
X2489Y3138D01*
X2553Y3138D02*
X2589Y3138D01*
X2653Y3138D02*
X2689Y3138D01*
X2753Y3138D02*
X2789Y3138D01*
X2152Y3137D02*
X2190Y3137D01*
X2252Y3137D02*
X2290Y3137D01*
X2352Y3137D02*
X2390Y3137D01*
X2452Y3137D02*
X2490Y3137D01*
X2552Y3137D02*
X2590Y3137D01*
X2652Y3137D02*
X2690Y3137D01*
X2752Y3137D02*
X2790Y3137D01*
X2151Y3136D02*
X2191Y3136D01*
X2251Y3136D02*
X2291Y3136D01*
X2351Y3136D02*
X2391Y3136D01*
X2451Y3136D02*
X2491Y3136D01*
X2551Y3136D02*
X2591Y3136D01*
X2651Y3136D02*
X2691Y3136D01*
X2751Y3136D02*
X2791Y3136D01*
X2150Y3135D02*
X2193Y3135D01*
X2250Y3135D02*
X2293Y3135D01*
X2350Y3135D02*
X2393Y3135D01*
X2450Y3135D02*
X2493Y3135D01*
X2550Y3135D02*
X2592Y3135D01*
X2650Y3135D02*
X2692Y3135D01*
X2750Y3135D02*
X2792Y3135D01*
X2149Y3134D02*
X2193Y3134D01*
X2249Y3134D02*
X2293Y3134D01*
X2349Y3134D02*
X2393Y3134D01*
X2449Y3134D02*
X2493Y3134D01*
X2549Y3134D02*
X2593Y3134D01*
X2649Y3134D02*
X2693Y3134D01*
X2749Y3134D02*
X2793Y3134D01*
X2148Y3133D02*
X2194Y3133D01*
X2248Y3133D02*
X2294Y3133D01*
X2348Y3133D02*
X2394Y3133D01*
X2448Y3133D02*
X2494Y3133D01*
X2548Y3133D02*
X2594Y3133D01*
X2648Y3133D02*
X2694Y3133D01*
X2748Y3133D02*
X2794Y3133D01*
X2147Y3132D02*
X2195Y3132D01*
X2247Y3132D02*
X2295Y3132D01*
X2347Y3132D02*
X2395Y3132D01*
X2447Y3132D02*
X2495Y3132D01*
X2547Y3132D02*
X2595Y3132D01*
X2647Y3132D02*
X2695Y3132D01*
X2747Y3132D02*
X2795Y3132D01*
X2147Y3131D02*
X2196Y3131D01*
X2247Y3131D02*
X2296Y3131D01*
X2347Y3131D02*
X2396Y3131D01*
X2447Y3131D02*
X2496Y3131D01*
X2547Y3131D02*
X2596Y3131D01*
X2647Y3131D02*
X2696Y3131D01*
X2747Y3131D02*
X2796Y3131D01*
X2146Y3130D02*
X2197Y3130D01*
X2246Y3130D02*
X2297Y3130D01*
X2346Y3130D02*
X2397Y3130D01*
X2446Y3130D02*
X2497Y3130D01*
X2546Y3130D02*
X2597Y3130D01*
X2646Y3130D02*
X2697Y3130D01*
X2746Y3130D02*
X2797Y3130D01*
X2145Y3129D02*
X2197Y3129D01*
X2245Y3129D02*
X2297Y3129D01*
X2345Y3129D02*
X2397Y3129D01*
X2445Y3129D02*
X2497Y3129D01*
X2545Y3129D02*
X2597Y3129D01*
X2645Y3129D02*
X2697Y3129D01*
X2745Y3129D02*
X2797Y3129D01*
X2145Y3128D02*
X2198Y3128D01*
X2245Y3128D02*
X2298Y3128D01*
X2345Y3128D02*
X2398Y3128D01*
X2445Y3128D02*
X2498Y3128D01*
X2545Y3128D02*
X2598Y3128D01*
X2645Y3128D02*
X2698Y3128D01*
X2745Y3128D02*
X2798Y3128D01*
X2144Y3127D02*
X2198Y3127D01*
X2244Y3127D02*
X2298Y3127D01*
X2344Y3127D02*
X2398Y3127D01*
X2444Y3127D02*
X2498Y3127D01*
X2544Y3127D02*
X2598Y3127D01*
X2644Y3127D02*
X2698Y3127D01*
X2744Y3127D02*
X2798Y3127D01*
X2144Y3126D02*
X2199Y3126D01*
X2244Y3126D02*
X2299Y3126D01*
X2344Y3126D02*
X2399Y3126D01*
X2444Y3126D02*
X2499Y3126D01*
X2544Y3126D02*
X2599Y3126D01*
X2644Y3126D02*
X2699Y3126D01*
X2744Y3126D02*
X2799Y3126D01*
X2143Y3125D02*
X2199Y3125D01*
X2243Y3125D02*
X2299Y3125D01*
X2343Y3125D02*
X2399Y3125D01*
X2443Y3125D02*
X2499Y3125D01*
X2543Y3125D02*
X2599Y3125D01*
X2643Y3125D02*
X2699Y3125D01*
X2743Y3125D02*
X2799Y3125D01*
X2143Y3124D02*
X2200Y3124D01*
X2243Y3124D02*
X2300Y3124D01*
X2343Y3124D02*
X2400Y3124D01*
X2443Y3124D02*
X2500Y3124D01*
X2543Y3124D02*
X2600Y3124D01*
X2643Y3124D02*
X2700Y3124D01*
X2743Y3124D02*
X2800Y3124D01*
X2142Y3123D02*
X2200Y3123D01*
X2242Y3123D02*
X2300Y3123D01*
X2342Y3123D02*
X2400Y3123D01*
X2442Y3123D02*
X2500Y3123D01*
X2542Y3123D02*
X2600Y3123D01*
X2642Y3123D02*
X2700Y3123D01*
X2742Y3123D02*
X2800Y3123D01*
X2142Y3122D02*
X2200Y3122D01*
X2242Y3122D02*
X2300Y3122D01*
X2342Y3122D02*
X2400Y3122D01*
X2442Y3122D02*
X2500Y3122D01*
X2542Y3122D02*
X2600Y3122D01*
X2642Y3122D02*
X2700Y3122D01*
X2742Y3122D02*
X2800Y3122D01*
X2142Y3121D02*
X2201Y3121D01*
X2242Y3121D02*
X2301Y3121D01*
X2342Y3121D02*
X2401Y3121D01*
X2442Y3121D02*
X2501Y3121D01*
X2542Y3121D02*
X2601Y3121D01*
X2642Y3121D02*
X2701Y3121D01*
X2742Y3121D02*
X2801Y3121D01*
X2142Y3120D02*
X2201Y3120D01*
X2241Y3120D02*
X2301Y3120D01*
X2341Y3120D02*
X2401Y3120D01*
X2441Y3120D02*
X2501Y3120D01*
X2541Y3120D02*
X2601Y3120D01*
X2641Y3120D02*
X2701Y3120D01*
X2741Y3120D02*
X2801Y3120D01*
X2141Y3119D02*
X2201Y3119D01*
X2241Y3119D02*
X2301Y3119D01*
X2341Y3119D02*
X2401Y3119D01*
X2441Y3119D02*
X2501Y3119D01*
X2541Y3119D02*
X2601Y3119D01*
X2641Y3119D02*
X2701Y3119D01*
X2741Y3119D02*
X2801Y3119D01*
X2141Y3118D02*
X2201Y3118D01*
X2241Y3118D02*
X2301Y3118D01*
X2341Y3118D02*
X2401Y3118D01*
X2441Y3118D02*
X2501Y3118D01*
X2541Y3118D02*
X2601Y3118D01*
X2641Y3118D02*
X2701Y3118D01*
X2741Y3118D02*
X2801Y3118D01*
X2141Y3117D02*
X2201Y3117D01*
X2241Y3117D02*
X2301Y3117D01*
X2341Y3117D02*
X2401Y3117D01*
X2441Y3117D02*
X2501Y3117D01*
X2541Y3117D02*
X2601Y3117D01*
X2641Y3117D02*
X2701Y3117D01*
X2741Y3117D02*
X2801Y3117D01*
X2141Y3116D02*
X2202Y3116D01*
X2241Y3116D02*
X2302Y3116D01*
X2341Y3116D02*
X2402Y3116D01*
X2441Y3116D02*
X2502Y3116D01*
X2541Y3116D02*
X2602Y3116D01*
X2641Y3116D02*
X2702Y3116D01*
X2741Y3116D02*
X2802Y3116D01*
X2141Y3115D02*
X2202Y3115D01*
X2241Y3115D02*
X2302Y3115D01*
X2341Y3115D02*
X2402Y3115D01*
X2441Y3115D02*
X2502Y3115D01*
X2541Y3115D02*
X2602Y3115D01*
X2641Y3115D02*
X2702Y3115D01*
X2741Y3115D02*
X2802Y3115D01*
X2141Y3114D02*
X2202Y3114D01*
X2241Y3114D02*
X2302Y3114D01*
X2341Y3114D02*
X2402Y3114D01*
X2441Y3114D02*
X2502Y3114D01*
X2541Y3114D02*
X2602Y3114D01*
X2641Y3114D02*
X2702Y3114D01*
X2741Y3114D02*
X2802Y3114D01*
X2141Y3113D02*
X2202Y3113D01*
X2241Y3113D02*
X2302Y3113D01*
X2341Y3113D02*
X2402Y3113D01*
X2441Y3113D02*
X2502Y3113D01*
X2541Y3113D02*
X2602Y3113D01*
X2641Y3113D02*
X2702Y3113D01*
X2741Y3113D02*
X2802Y3113D01*
X2141Y3112D02*
X2202Y3112D01*
X2241Y3112D02*
X2302Y3112D01*
X2341Y3112D02*
X2402Y3112D01*
X2441Y3112D02*
X2502Y3112D01*
X2541Y3112D02*
X2602Y3112D01*
X2641Y3112D02*
X2702Y3112D01*
X2741Y3112D02*
X2802Y3112D01*
X2141Y3111D02*
X2202Y3111D01*
X2241Y3111D02*
X2302Y3111D01*
X2341Y3111D02*
X2402Y3111D01*
X2441Y3111D02*
X2502Y3111D01*
X2541Y3111D02*
X2602Y3111D01*
X2641Y3111D02*
X2702Y3111D01*
X2741Y3111D02*
X2802Y3111D01*
X2141Y3110D02*
X2202Y3110D01*
X2241Y3110D02*
X2302Y3110D01*
X2341Y3110D02*
X2402Y3110D01*
X2441Y3110D02*
X2502Y3110D01*
X2541Y3110D02*
X2602Y3110D01*
X2641Y3110D02*
X2702Y3110D01*
X2741Y3110D02*
X2802Y3110D01*
X2141Y3109D02*
X2202Y3109D01*
X2241Y3109D02*
X2302Y3109D01*
X2341Y3109D02*
X2402Y3109D01*
X2441Y3109D02*
X2502Y3109D01*
X2541Y3109D02*
X2602Y3109D01*
X2641Y3109D02*
X2702Y3109D01*
X2741Y3109D02*
X2802Y3109D01*
X2141Y3108D02*
X2202Y3108D01*
X2241Y3108D02*
X2302Y3108D01*
X2341Y3108D02*
X2402Y3108D01*
X2441Y3108D02*
X2502Y3108D01*
X2541Y3108D02*
X2602Y3108D01*
X2641Y3108D02*
X2702Y3108D01*
X2741Y3108D02*
X2802Y3108D01*
X2141Y3107D02*
X2202Y3107D01*
X2241Y3107D02*
X2302Y3107D01*
X2341Y3107D02*
X2402Y3107D01*
X2441Y3107D02*
X2502Y3107D01*
X2541Y3107D02*
X2602Y3107D01*
X2641Y3107D02*
X2702Y3107D01*
X2741Y3107D02*
X2802Y3107D01*
X2141Y3106D02*
X2202Y3106D01*
X2241Y3106D02*
X2302Y3106D01*
X2341Y3106D02*
X2402Y3106D01*
X2441Y3106D02*
X2502Y3106D01*
X2541Y3106D02*
X2602Y3106D01*
X2641Y3106D02*
X2702Y3106D01*
X2741Y3106D02*
X2802Y3106D01*
X2141Y3105D02*
X2202Y3105D01*
X2241Y3105D02*
X2302Y3105D01*
X2341Y3105D02*
X2402Y3105D01*
X2441Y3105D02*
X2502Y3105D01*
X2541Y3105D02*
X2602Y3105D01*
X2641Y3105D02*
X2702Y3105D01*
X2741Y3105D02*
X2802Y3105D01*
X2141Y3104D02*
X2202Y3104D01*
X2241Y3104D02*
X2302Y3104D01*
X2341Y3104D02*
X2402Y3104D01*
X2441Y3104D02*
X2502Y3104D01*
X2541Y3104D02*
X2602Y3104D01*
X2641Y3104D02*
X2702Y3104D01*
X2741Y3104D02*
X2802Y3104D01*
X2141Y3103D02*
X2202Y3103D01*
X2241Y3103D02*
X2302Y3103D01*
X2341Y3103D02*
X2402Y3103D01*
X2441Y3103D02*
X2502Y3103D01*
X2541Y3103D02*
X2602Y3103D01*
X2641Y3103D02*
X2702Y3103D01*
X2741Y3103D02*
X2802Y3103D01*
X2141Y3102D02*
X2202Y3102D01*
X2241Y3102D02*
X2302Y3102D01*
X2341Y3102D02*
X2402Y3102D01*
X2441Y3102D02*
X2502Y3102D01*
X2541Y3102D02*
X2602Y3102D01*
X2641Y3102D02*
X2702Y3102D01*
X2741Y3102D02*
X2802Y3102D01*
X2141Y3101D02*
X2202Y3101D01*
X2241Y3101D02*
X2302Y3101D01*
X2341Y3101D02*
X2402Y3101D01*
X2441Y3101D02*
X2502Y3101D01*
X2541Y3101D02*
X2602Y3101D01*
X2641Y3101D02*
X2702Y3101D01*
X2741Y3101D02*
X2802Y3101D01*
X2141Y3100D02*
X2202Y3100D01*
X2241Y3100D02*
X2302Y3100D01*
X2341Y3100D02*
X2402Y3100D01*
X2441Y3100D02*
X2502Y3100D01*
X2541Y3100D02*
X2602Y3100D01*
X2641Y3100D02*
X2702Y3100D01*
X2741Y3100D02*
X2802Y3100D01*
X2141Y3099D02*
X2202Y3099D01*
X2241Y3099D02*
X2302Y3099D01*
X2341Y3099D02*
X2402Y3099D01*
X2441Y3099D02*
X2502Y3099D01*
X2541Y3099D02*
X2602Y3099D01*
X2641Y3099D02*
X2702Y3099D01*
X2741Y3099D02*
X2802Y3099D01*
X2141Y3098D02*
X2167Y3098D01*
X2175Y3098D02*
X2202Y3098D01*
X2241Y3098D02*
X2267Y3098D01*
X2275Y3098D02*
X2302Y3098D01*
X2341Y3098D02*
X2367Y3098D01*
X2375Y3098D02*
X2402Y3098D01*
X2441Y3098D02*
X2467Y3098D01*
X2475Y3098D02*
X2502Y3098D01*
X2541Y3098D02*
X2567Y3098D01*
X2575Y3098D02*
X2602Y3098D01*
X2641Y3098D02*
X2667Y3098D01*
X2675Y3098D02*
X2702Y3098D01*
X2741Y3098D02*
X2767Y3098D01*
X2775Y3098D02*
X2802Y3098D01*
X2141Y3097D02*
X2165Y3097D01*
X2178Y3097D02*
X2202Y3097D01*
X2241Y3097D02*
X2265Y3097D01*
X2278Y3097D02*
X2302Y3097D01*
X2341Y3097D02*
X2365Y3097D01*
X2378Y3097D02*
X2402Y3097D01*
X2441Y3097D02*
X2465Y3097D01*
X2478Y3097D02*
X2502Y3097D01*
X2541Y3097D02*
X2565Y3097D01*
X2578Y3097D02*
X2602Y3097D01*
X2641Y3097D02*
X2665Y3097D01*
X2678Y3097D02*
X2702Y3097D01*
X2741Y3097D02*
X2765Y3097D01*
X2778Y3097D02*
X2802Y3097D01*
X2141Y3096D02*
X2163Y3096D01*
X2179Y3096D02*
X2202Y3096D01*
X2241Y3096D02*
X2263Y3096D01*
X2279Y3096D02*
X2302Y3096D01*
X2341Y3096D02*
X2363Y3096D01*
X2379Y3096D02*
X2402Y3096D01*
X2441Y3096D02*
X2463Y3096D01*
X2479Y3096D02*
X2502Y3096D01*
X2541Y3096D02*
X2563Y3096D01*
X2579Y3096D02*
X2602Y3096D01*
X2641Y3096D02*
X2663Y3096D01*
X2679Y3096D02*
X2702Y3096D01*
X2741Y3096D02*
X2763Y3096D01*
X2779Y3096D02*
X2802Y3096D01*
X2141Y3095D02*
X2162Y3095D01*
X2180Y3095D02*
X2202Y3095D01*
X2241Y3095D02*
X2262Y3095D01*
X2280Y3095D02*
X2302Y3095D01*
X2341Y3095D02*
X2362Y3095D01*
X2380Y3095D02*
X2402Y3095D01*
X2441Y3095D02*
X2462Y3095D01*
X2480Y3095D02*
X2502Y3095D01*
X2541Y3095D02*
X2562Y3095D01*
X2580Y3095D02*
X2602Y3095D01*
X2641Y3095D02*
X2662Y3095D01*
X2680Y3095D02*
X2702Y3095D01*
X2741Y3095D02*
X2762Y3095D01*
X2780Y3095D02*
X2802Y3095D01*
X2141Y3094D02*
X2161Y3094D01*
X2181Y3094D02*
X2202Y3094D01*
X2241Y3094D02*
X2261Y3094D01*
X2281Y3094D02*
X2302Y3094D01*
X2341Y3094D02*
X2361Y3094D01*
X2381Y3094D02*
X2402Y3094D01*
X2441Y3094D02*
X2461Y3094D01*
X2481Y3094D02*
X2502Y3094D01*
X2541Y3094D02*
X2561Y3094D01*
X2581Y3094D02*
X2602Y3094D01*
X2641Y3094D02*
X2661Y3094D01*
X2681Y3094D02*
X2702Y3094D01*
X2741Y3094D02*
X2761Y3094D01*
X2781Y3094D02*
X2802Y3094D01*
X2141Y3093D02*
X2161Y3093D01*
X2181Y3093D02*
X2202Y3093D01*
X2241Y3093D02*
X2261Y3093D01*
X2281Y3093D02*
X2302Y3093D01*
X2341Y3093D02*
X2361Y3093D01*
X2381Y3093D02*
X2402Y3093D01*
X2441Y3093D02*
X2461Y3093D01*
X2481Y3093D02*
X2502Y3093D01*
X2541Y3093D02*
X2561Y3093D01*
X2581Y3093D02*
X2602Y3093D01*
X2641Y3093D02*
X2661Y3093D01*
X2681Y3093D02*
X2702Y3093D01*
X2741Y3093D02*
X2761Y3093D01*
X2781Y3093D02*
X2802Y3093D01*
X2141Y3092D02*
X2160Y3092D01*
X2182Y3092D02*
X2202Y3092D01*
X2241Y3092D02*
X2260Y3092D01*
X2282Y3092D02*
X2302Y3092D01*
X2341Y3092D02*
X2360Y3092D01*
X2382Y3092D02*
X2402Y3092D01*
X2441Y3092D02*
X2460Y3092D01*
X2482Y3092D02*
X2502Y3092D01*
X2541Y3092D02*
X2560Y3092D01*
X2582Y3092D02*
X2602Y3092D01*
X2641Y3092D02*
X2660Y3092D01*
X2682Y3092D02*
X2702Y3092D01*
X2741Y3092D02*
X2760Y3092D01*
X2782Y3092D02*
X2802Y3092D01*
X2141Y3091D02*
X2160Y3091D01*
X2182Y3091D02*
X2202Y3091D01*
X2241Y3091D02*
X2260Y3091D01*
X2282Y3091D02*
X2302Y3091D01*
X2341Y3091D02*
X2360Y3091D01*
X2382Y3091D02*
X2402Y3091D01*
X2441Y3091D02*
X2460Y3091D01*
X2482Y3091D02*
X2502Y3091D01*
X2541Y3091D02*
X2560Y3091D01*
X2582Y3091D02*
X2602Y3091D01*
X2641Y3091D02*
X2660Y3091D01*
X2682Y3091D02*
X2702Y3091D01*
X2741Y3091D02*
X2760Y3091D01*
X2782Y3091D02*
X2802Y3091D01*
X2141Y3090D02*
X2160Y3090D01*
X2182Y3090D02*
X2202Y3090D01*
X2241Y3090D02*
X2260Y3090D01*
X2282Y3090D02*
X2302Y3090D01*
X2341Y3090D02*
X2360Y3090D01*
X2382Y3090D02*
X2402Y3090D01*
X2441Y3090D02*
X2460Y3090D01*
X2482Y3090D02*
X2502Y3090D01*
X2541Y3090D02*
X2560Y3090D01*
X2582Y3090D02*
X2602Y3090D01*
X2641Y3090D02*
X2660Y3090D01*
X2682Y3090D02*
X2702Y3090D01*
X2741Y3090D02*
X2760Y3090D01*
X2782Y3090D02*
X2802Y3090D01*
X2141Y3089D02*
X2160Y3089D01*
X2183Y3089D02*
X2202Y3089D01*
X2241Y3089D02*
X2260Y3089D01*
X2283Y3089D02*
X2302Y3089D01*
X2341Y3089D02*
X2360Y3089D01*
X2383Y3089D02*
X2402Y3089D01*
X2441Y3089D02*
X2460Y3089D01*
X2483Y3089D02*
X2502Y3089D01*
X2541Y3089D02*
X2560Y3089D01*
X2583Y3089D02*
X2602Y3089D01*
X2641Y3089D02*
X2660Y3089D01*
X2683Y3089D02*
X2702Y3089D01*
X2741Y3089D02*
X2760Y3089D01*
X2783Y3089D02*
X2802Y3089D01*
X2141Y3088D02*
X2160Y3088D01*
X2183Y3088D02*
X2202Y3088D01*
X2241Y3088D02*
X2260Y3088D01*
X2283Y3088D02*
X2302Y3088D01*
X2341Y3088D02*
X2360Y3088D01*
X2383Y3088D02*
X2402Y3088D01*
X2441Y3088D02*
X2460Y3088D01*
X2483Y3088D02*
X2502Y3088D01*
X2541Y3088D02*
X2560Y3088D01*
X2583Y3088D02*
X2602Y3088D01*
X2641Y3088D02*
X2660Y3088D01*
X2683Y3088D02*
X2702Y3088D01*
X2741Y3088D02*
X2760Y3088D01*
X2783Y3088D02*
X2802Y3088D01*
X2141Y3087D02*
X2160Y3087D01*
X2183Y3087D02*
X2202Y3087D01*
X2241Y3087D02*
X2260Y3087D01*
X2283Y3087D02*
X2302Y3087D01*
X2341Y3087D02*
X2360Y3087D01*
X2383Y3087D02*
X2402Y3087D01*
X2441Y3087D02*
X2460Y3087D01*
X2483Y3087D02*
X2502Y3087D01*
X2541Y3087D02*
X2560Y3087D01*
X2583Y3087D02*
X2602Y3087D01*
X2641Y3087D02*
X2660Y3087D01*
X2683Y3087D02*
X2702Y3087D01*
X2741Y3087D02*
X2760Y3087D01*
X2783Y3087D02*
X2802Y3087D01*
X2141Y3086D02*
X2160Y3086D01*
X2183Y3086D02*
X2202Y3086D01*
X2241Y3086D02*
X2260Y3086D01*
X2283Y3086D02*
X2302Y3086D01*
X2341Y3086D02*
X2360Y3086D01*
X2383Y3086D02*
X2402Y3086D01*
X2441Y3086D02*
X2460Y3086D01*
X2483Y3086D02*
X2502Y3086D01*
X2541Y3086D02*
X2560Y3086D01*
X2583Y3086D02*
X2602Y3086D01*
X2641Y3086D02*
X2660Y3086D01*
X2683Y3086D02*
X2702Y3086D01*
X2741Y3086D02*
X2760Y3086D01*
X2783Y3086D02*
X2802Y3086D01*
X2141Y3085D02*
X2160Y3085D01*
X2182Y3085D02*
X2202Y3085D01*
X2241Y3085D02*
X2260Y3085D01*
X2282Y3085D02*
X2302Y3085D01*
X2341Y3085D02*
X2360Y3085D01*
X2382Y3085D02*
X2402Y3085D01*
X2441Y3085D02*
X2460Y3085D01*
X2482Y3085D02*
X2502Y3085D01*
X2541Y3085D02*
X2560Y3085D01*
X2582Y3085D02*
X2602Y3085D01*
X2641Y3085D02*
X2660Y3085D01*
X2682Y3085D02*
X2702Y3085D01*
X2741Y3085D02*
X2760Y3085D01*
X2782Y3085D02*
X2802Y3085D01*
X2141Y3084D02*
X2160Y3084D01*
X2182Y3084D02*
X2202Y3084D01*
X2241Y3084D02*
X2260Y3084D01*
X2282Y3084D02*
X2302Y3084D01*
X2341Y3084D02*
X2360Y3084D01*
X2382Y3084D02*
X2402Y3084D01*
X2441Y3084D02*
X2460Y3084D01*
X2482Y3084D02*
X2502Y3084D01*
X2541Y3084D02*
X2560Y3084D01*
X2582Y3084D02*
X2602Y3084D01*
X2641Y3084D02*
X2660Y3084D01*
X2682Y3084D02*
X2702Y3084D01*
X2741Y3084D02*
X2760Y3084D01*
X2782Y3084D02*
X2802Y3084D01*
X2141Y3083D02*
X2160Y3083D01*
X2182Y3083D02*
X2202Y3083D01*
X2241Y3083D02*
X2260Y3083D01*
X2282Y3083D02*
X2302Y3083D01*
X2341Y3083D02*
X2360Y3083D01*
X2382Y3083D02*
X2402Y3083D01*
X2441Y3083D02*
X2460Y3083D01*
X2482Y3083D02*
X2502Y3083D01*
X2541Y3083D02*
X2560Y3083D01*
X2582Y3083D02*
X2602Y3083D01*
X2641Y3083D02*
X2660Y3083D01*
X2682Y3083D02*
X2702Y3083D01*
X2741Y3083D02*
X2760Y3083D01*
X2782Y3083D02*
X2802Y3083D01*
X2141Y3082D02*
X2161Y3082D01*
X2181Y3082D02*
X2202Y3082D01*
X2241Y3082D02*
X2261Y3082D01*
X2281Y3082D02*
X2302Y3082D01*
X2341Y3082D02*
X2361Y3082D01*
X2381Y3082D02*
X2402Y3082D01*
X2441Y3082D02*
X2461Y3082D01*
X2481Y3082D02*
X2502Y3082D01*
X2541Y3082D02*
X2561Y3082D01*
X2581Y3082D02*
X2602Y3082D01*
X2641Y3082D02*
X2661Y3082D01*
X2681Y3082D02*
X2702Y3082D01*
X2741Y3082D02*
X2761Y3082D01*
X2781Y3082D02*
X2802Y3082D01*
X2141Y3081D02*
X2162Y3081D01*
X2181Y3081D02*
X2202Y3081D01*
X2241Y3081D02*
X2261Y3081D01*
X2281Y3081D02*
X2302Y3081D01*
X2341Y3081D02*
X2361Y3081D01*
X2381Y3081D02*
X2402Y3081D01*
X2441Y3081D02*
X2461Y3081D01*
X2481Y3081D02*
X2502Y3081D01*
X2541Y3081D02*
X2561Y3081D01*
X2581Y3081D02*
X2602Y3081D01*
X2641Y3081D02*
X2661Y3081D01*
X2681Y3081D02*
X2702Y3081D01*
X2741Y3081D02*
X2761Y3081D01*
X2781Y3081D02*
X2802Y3081D01*
X2141Y3080D02*
X2162Y3080D01*
X2180Y3080D02*
X2202Y3080D01*
X2241Y3080D02*
X2262Y3080D01*
X2280Y3080D02*
X2302Y3080D01*
X2341Y3080D02*
X2362Y3080D01*
X2380Y3080D02*
X2402Y3080D01*
X2441Y3080D02*
X2462Y3080D01*
X2480Y3080D02*
X2502Y3080D01*
X2541Y3080D02*
X2562Y3080D01*
X2580Y3080D02*
X2602Y3080D01*
X2641Y3080D02*
X2662Y3080D01*
X2680Y3080D02*
X2702Y3080D01*
X2741Y3080D02*
X2762Y3080D01*
X2780Y3080D02*
X2802Y3080D01*
X2141Y3079D02*
X2163Y3079D01*
X2179Y3079D02*
X2202Y3079D01*
X2241Y3079D02*
X2263Y3079D01*
X2279Y3079D02*
X2302Y3079D01*
X2341Y3079D02*
X2363Y3079D01*
X2379Y3079D02*
X2402Y3079D01*
X2441Y3079D02*
X2463Y3079D01*
X2479Y3079D02*
X2502Y3079D01*
X2541Y3079D02*
X2563Y3079D01*
X2579Y3079D02*
X2602Y3079D01*
X2641Y3079D02*
X2663Y3079D01*
X2679Y3079D02*
X2702Y3079D01*
X2741Y3079D02*
X2763Y3079D01*
X2779Y3079D02*
X2802Y3079D01*
X2141Y3078D02*
X2165Y3078D01*
X2178Y3078D02*
X2202Y3078D01*
X2241Y3078D02*
X2265Y3078D01*
X2278Y3078D02*
X2302Y3078D01*
X2341Y3078D02*
X2365Y3078D01*
X2378Y3078D02*
X2402Y3078D01*
X2441Y3078D02*
X2465Y3078D01*
X2478Y3078D02*
X2502Y3078D01*
X2541Y3078D02*
X2565Y3078D01*
X2578Y3078D02*
X2602Y3078D01*
X2641Y3078D02*
X2665Y3078D01*
X2678Y3078D02*
X2702Y3078D01*
X2741Y3078D02*
X2765Y3078D01*
X2778Y3078D02*
X2802Y3078D01*
X2141Y3077D02*
X2167Y3077D01*
X2175Y3077D02*
X2202Y3077D01*
X2241Y3077D02*
X2267Y3077D01*
X2275Y3077D02*
X2302Y3077D01*
X2341Y3077D02*
X2367Y3077D01*
X2375Y3077D02*
X2402Y3077D01*
X2441Y3077D02*
X2467Y3077D01*
X2475Y3077D02*
X2502Y3077D01*
X2541Y3077D02*
X2567Y3077D01*
X2575Y3077D02*
X2602Y3077D01*
X2641Y3077D02*
X2667Y3077D01*
X2675Y3077D02*
X2702Y3077D01*
X2741Y3077D02*
X2767Y3077D01*
X2775Y3077D02*
X2802Y3077D01*
X2141Y3076D02*
X2202Y3076D01*
X2241Y3076D02*
X2302Y3076D01*
X2341Y3076D02*
X2402Y3076D01*
X2441Y3076D02*
X2502Y3076D01*
X2541Y3076D02*
X2602Y3076D01*
X2641Y3076D02*
X2702Y3076D01*
X2741Y3076D02*
X2802Y3076D01*
X2141Y3075D02*
X2202Y3075D01*
X2241Y3075D02*
X2302Y3075D01*
X2341Y3075D02*
X2402Y3075D01*
X2441Y3075D02*
X2502Y3075D01*
X2541Y3075D02*
X2602Y3075D01*
X2641Y3075D02*
X2702Y3075D01*
X2741Y3075D02*
X2802Y3075D01*
X2141Y3074D02*
X2202Y3074D01*
X2241Y3074D02*
X2302Y3074D01*
X2341Y3074D02*
X2402Y3074D01*
X2441Y3074D02*
X2502Y3074D01*
X2541Y3074D02*
X2602Y3074D01*
X2641Y3074D02*
X2702Y3074D01*
X2741Y3074D02*
X2802Y3074D01*
X2141Y3073D02*
X2202Y3073D01*
X2241Y3073D02*
X2302Y3073D01*
X2341Y3073D02*
X2402Y3073D01*
X2441Y3073D02*
X2502Y3073D01*
X2541Y3073D02*
X2602Y3073D01*
X2641Y3073D02*
X2702Y3073D01*
X2741Y3073D02*
X2802Y3073D01*
X2141Y3072D02*
X2202Y3072D01*
X2241Y3072D02*
X2302Y3072D01*
X2341Y3072D02*
X2402Y3072D01*
X2441Y3072D02*
X2502Y3072D01*
X2541Y3072D02*
X2602Y3072D01*
X2641Y3072D02*
X2702Y3072D01*
X2741Y3072D02*
X2802Y3072D01*
X2141Y3071D02*
X2202Y3071D01*
X2241Y3071D02*
X2302Y3071D01*
X2341Y3071D02*
X2402Y3071D01*
X2441Y3071D02*
X2502Y3071D01*
X2541Y3071D02*
X2602Y3071D01*
X2641Y3071D02*
X2702Y3071D01*
X2741Y3071D02*
X2802Y3071D01*
X2141Y3070D02*
X2202Y3070D01*
X2241Y3070D02*
X2302Y3070D01*
X2341Y3070D02*
X2402Y3070D01*
X2441Y3070D02*
X2502Y3070D01*
X2541Y3070D02*
X2602Y3070D01*
X2641Y3070D02*
X2702Y3070D01*
X2741Y3070D02*
X2802Y3070D01*
X2141Y3069D02*
X2202Y3069D01*
X2241Y3069D02*
X2302Y3069D01*
X2341Y3069D02*
X2402Y3069D01*
X2441Y3069D02*
X2502Y3069D01*
X2541Y3069D02*
X2602Y3069D01*
X2641Y3069D02*
X2702Y3069D01*
X2741Y3069D02*
X2802Y3069D01*
X2141Y3068D02*
X2202Y3068D01*
X2241Y3068D02*
X2302Y3068D01*
X2341Y3068D02*
X2402Y3068D01*
X2441Y3068D02*
X2502Y3068D01*
X2541Y3068D02*
X2602Y3068D01*
X2641Y3068D02*
X2702Y3068D01*
X2741Y3068D02*
X2802Y3068D01*
X2141Y3067D02*
X2202Y3067D01*
X2241Y3067D02*
X2302Y3067D01*
X2341Y3067D02*
X2402Y3067D01*
X2441Y3067D02*
X2502Y3067D01*
X2541Y3067D02*
X2602Y3067D01*
X2641Y3067D02*
X2702Y3067D01*
X2741Y3067D02*
X2802Y3067D01*
X2141Y3066D02*
X2202Y3066D01*
X2241Y3066D02*
X2302Y3066D01*
X2341Y3066D02*
X2402Y3066D01*
X2441Y3066D02*
X2502Y3066D01*
X2541Y3066D02*
X2602Y3066D01*
X2641Y3066D02*
X2702Y3066D01*
X2741Y3066D02*
X2802Y3066D01*
X2141Y3065D02*
X2202Y3065D01*
X2241Y3065D02*
X2302Y3065D01*
X2341Y3065D02*
X2402Y3065D01*
X2441Y3065D02*
X2502Y3065D01*
X2541Y3065D02*
X2602Y3065D01*
X2641Y3065D02*
X2702Y3065D01*
X2741Y3065D02*
X2802Y3065D01*
X2141Y3064D02*
X2202Y3064D01*
X2241Y3064D02*
X2302Y3064D01*
X2341Y3064D02*
X2402Y3064D01*
X2441Y3064D02*
X2502Y3064D01*
X2541Y3064D02*
X2602Y3064D01*
X2641Y3064D02*
X2702Y3064D01*
X2741Y3064D02*
X2802Y3064D01*
X2141Y3063D02*
X2202Y3063D01*
X2241Y3063D02*
X2302Y3063D01*
X2341Y3063D02*
X2402Y3063D01*
X2441Y3063D02*
X2502Y3063D01*
X2541Y3063D02*
X2602Y3063D01*
X2641Y3063D02*
X2702Y3063D01*
X2741Y3063D02*
X2802Y3063D01*
X2141Y3062D02*
X2202Y3062D01*
X2241Y3062D02*
X2302Y3062D01*
X2341Y3062D02*
X2402Y3062D01*
X2441Y3062D02*
X2502Y3062D01*
X2541Y3062D02*
X2602Y3062D01*
X2641Y3062D02*
X2702Y3062D01*
X2741Y3062D02*
X2802Y3062D01*
X2141Y3061D02*
X2202Y3061D01*
X2241Y3061D02*
X2302Y3061D01*
X2341Y3061D02*
X2402Y3061D01*
X2441Y3061D02*
X2502Y3061D01*
X2541Y3061D02*
X2602Y3061D01*
X2641Y3061D02*
X2702Y3061D01*
X2741Y3061D02*
X2802Y3061D01*
X2141Y3060D02*
X2202Y3060D01*
X2241Y3060D02*
X2302Y3060D01*
X2341Y3060D02*
X2402Y3060D01*
X2441Y3060D02*
X2502Y3060D01*
X2541Y3060D02*
X2602Y3060D01*
X2641Y3060D02*
X2702Y3060D01*
X2741Y3060D02*
X2802Y3060D01*
X2141Y3059D02*
X2202Y3059D01*
X2241Y3059D02*
X2302Y3059D01*
X2341Y3059D02*
X2402Y3059D01*
X2441Y3059D02*
X2502Y3059D01*
X2541Y3059D02*
X2602Y3059D01*
X2641Y3059D02*
X2702Y3059D01*
X2741Y3059D02*
X2802Y3059D01*
X2141Y3058D02*
X2201Y3058D01*
X2241Y3058D02*
X2301Y3058D01*
X2341Y3058D02*
X2401Y3058D01*
X2441Y3058D02*
X2501Y3058D01*
X2541Y3058D02*
X2601Y3058D01*
X2641Y3058D02*
X2701Y3058D01*
X2741Y3058D02*
X2801Y3058D01*
X2141Y3057D02*
X2201Y3057D01*
X2241Y3057D02*
X2301Y3057D01*
X2341Y3057D02*
X2401Y3057D01*
X2441Y3057D02*
X2501Y3057D01*
X2541Y3057D02*
X2601Y3057D01*
X2641Y3057D02*
X2701Y3057D01*
X2741Y3057D02*
X2801Y3057D01*
X2141Y3056D02*
X2201Y3056D01*
X2241Y3056D02*
X2301Y3056D01*
X2341Y3056D02*
X2401Y3056D01*
X2441Y3056D02*
X2501Y3056D01*
X2541Y3056D02*
X2601Y3056D01*
X2641Y3056D02*
X2701Y3056D01*
X2741Y3056D02*
X2801Y3056D01*
X2142Y3055D02*
X2201Y3055D01*
X2241Y3055D02*
X2301Y3055D01*
X2341Y3055D02*
X2401Y3055D01*
X2441Y3055D02*
X2501Y3055D01*
X2541Y3055D02*
X2601Y3055D01*
X2641Y3055D02*
X2701Y3055D01*
X2741Y3055D02*
X2801Y3055D01*
X2142Y3054D02*
X2201Y3054D01*
X2242Y3054D02*
X2301Y3054D01*
X2342Y3054D02*
X2401Y3054D01*
X2442Y3054D02*
X2501Y3054D01*
X2542Y3054D02*
X2601Y3054D01*
X2642Y3054D02*
X2701Y3054D01*
X2742Y3054D02*
X2801Y3054D01*
X2142Y3053D02*
X2200Y3053D01*
X2242Y3053D02*
X2300Y3053D01*
X2342Y3053D02*
X2400Y3053D01*
X2442Y3053D02*
X2500Y3053D01*
X2542Y3053D02*
X2600Y3053D01*
X2642Y3053D02*
X2700Y3053D01*
X2742Y3053D02*
X2800Y3053D01*
X2142Y3052D02*
X2200Y3052D01*
X2242Y3052D02*
X2300Y3052D01*
X2342Y3052D02*
X2400Y3052D01*
X2442Y3052D02*
X2500Y3052D01*
X2542Y3052D02*
X2600Y3052D01*
X2642Y3052D02*
X2700Y3052D01*
X2742Y3052D02*
X2800Y3052D01*
X2143Y3051D02*
X2200Y3051D01*
X2243Y3051D02*
X2300Y3051D01*
X2343Y3051D02*
X2400Y3051D01*
X2443Y3051D02*
X2500Y3051D01*
X2543Y3051D02*
X2600Y3051D01*
X2643Y3051D02*
X2700Y3051D01*
X2743Y3051D02*
X2800Y3051D01*
X2143Y3050D02*
X2199Y3050D01*
X2243Y3050D02*
X2299Y3050D01*
X2343Y3050D02*
X2399Y3050D01*
X2443Y3050D02*
X2499Y3050D01*
X2543Y3050D02*
X2599Y3050D01*
X2643Y3050D02*
X2699Y3050D01*
X2743Y3050D02*
X2799Y3050D01*
X2144Y3049D02*
X2199Y3049D01*
X2244Y3049D02*
X2299Y3049D01*
X2344Y3049D02*
X2399Y3049D01*
X2444Y3049D02*
X2499Y3049D01*
X2544Y3049D02*
X2599Y3049D01*
X2644Y3049D02*
X2699Y3049D01*
X2744Y3049D02*
X2799Y3049D01*
X2144Y3048D02*
X2198Y3048D01*
X2244Y3048D02*
X2298Y3048D01*
X2344Y3048D02*
X2398Y3048D01*
X2444Y3048D02*
X2498Y3048D01*
X2544Y3048D02*
X2598Y3048D01*
X2644Y3048D02*
X2698Y3048D01*
X2744Y3048D02*
X2798Y3048D01*
X2145Y3047D02*
X2198Y3047D01*
X2245Y3047D02*
X2298Y3047D01*
X2345Y3047D02*
X2398Y3047D01*
X2445Y3047D02*
X2498Y3047D01*
X2545Y3047D02*
X2598Y3047D01*
X2645Y3047D02*
X2698Y3047D01*
X2745Y3047D02*
X2798Y3047D01*
X2145Y3046D02*
X2197Y3046D01*
X2245Y3046D02*
X2297Y3046D01*
X2345Y3046D02*
X2397Y3046D01*
X2445Y3046D02*
X2497Y3046D01*
X2545Y3046D02*
X2597Y3046D01*
X2645Y3046D02*
X2697Y3046D01*
X2745Y3046D02*
X2797Y3046D01*
X2146Y3045D02*
X2197Y3045D01*
X2246Y3045D02*
X2297Y3045D01*
X2346Y3045D02*
X2397Y3045D01*
X2446Y3045D02*
X2497Y3045D01*
X2546Y3045D02*
X2597Y3045D01*
X2646Y3045D02*
X2697Y3045D01*
X2746Y3045D02*
X2797Y3045D01*
X2147Y3044D02*
X2196Y3044D01*
X2247Y3044D02*
X2296Y3044D01*
X2347Y3044D02*
X2396Y3044D01*
X2447Y3044D02*
X2496Y3044D01*
X2547Y3044D02*
X2596Y3044D01*
X2647Y3044D02*
X2696Y3044D01*
X2747Y3044D02*
X2796Y3044D01*
X2147Y3043D02*
X2195Y3043D01*
X2247Y3043D02*
X2295Y3043D01*
X2347Y3043D02*
X2395Y3043D01*
X2447Y3043D02*
X2495Y3043D01*
X2547Y3043D02*
X2595Y3043D01*
X2647Y3043D02*
X2695Y3043D01*
X2747Y3043D02*
X2795Y3043D01*
X2148Y3042D02*
X2194Y3042D01*
X2248Y3042D02*
X2294Y3042D01*
X2348Y3042D02*
X2394Y3042D01*
X2448Y3042D02*
X2494Y3042D01*
X2548Y3042D02*
X2594Y3042D01*
X2648Y3042D02*
X2694Y3042D01*
X2748Y3042D02*
X2794Y3042D01*
X2149Y3041D02*
X2193Y3041D01*
X2249Y3041D02*
X2293Y3041D01*
X2349Y3041D02*
X2393Y3041D01*
X2449Y3041D02*
X2493Y3041D01*
X2549Y3041D02*
X2593Y3041D01*
X2649Y3041D02*
X2693Y3041D01*
X2749Y3041D02*
X2793Y3041D01*
X2150Y3040D02*
X2193Y3040D01*
X2250Y3040D02*
X2293Y3040D01*
X2350Y3040D02*
X2392Y3040D01*
X2450Y3040D02*
X2492Y3040D01*
X2550Y3040D02*
X2592Y3040D01*
X2650Y3040D02*
X2692Y3040D01*
X2750Y3040D02*
X2792Y3040D01*
X2151Y3039D02*
X2191Y3039D01*
X2251Y3039D02*
X2291Y3039D01*
X2351Y3039D02*
X2391Y3039D01*
X2451Y3039D02*
X2491Y3039D01*
X2551Y3039D02*
X2591Y3039D01*
X2651Y3039D02*
X2691Y3039D01*
X2751Y3039D02*
X2791Y3039D01*
X2152Y3038D02*
X2190Y3038D01*
X2252Y3038D02*
X2290Y3038D01*
X2352Y3038D02*
X2390Y3038D01*
X2452Y3038D02*
X2490Y3038D01*
X2552Y3038D02*
X2590Y3038D01*
X2652Y3038D02*
X2690Y3038D01*
X2752Y3038D02*
X2790Y3038D01*
X2153Y3037D02*
X2189Y3037D01*
X2253Y3037D02*
X2289Y3037D01*
X2353Y3037D02*
X2389Y3037D01*
X2453Y3037D02*
X2489Y3037D01*
X2553Y3037D02*
X2589Y3037D01*
X2653Y3037D02*
X2689Y3037D01*
X2753Y3037D02*
X2789Y3037D01*
X2155Y3036D02*
X2188Y3036D01*
X2255Y3036D02*
X2288Y3036D01*
X2355Y3036D02*
X2388Y3036D01*
X2455Y3036D02*
X2488Y3036D01*
X2555Y3036D02*
X2588Y3036D01*
X2655Y3036D02*
X2688Y3036D01*
X2755Y3036D02*
X2788Y3036D01*
X2156Y3035D02*
X2186Y3035D01*
X2256Y3035D02*
X2286Y3035D01*
X2356Y3035D02*
X2386Y3035D01*
X2456Y3035D02*
X2486Y3035D01*
X2556Y3035D02*
X2586Y3035D01*
X2656Y3035D02*
X2686Y3035D01*
X2756Y3035D02*
X2786Y3035D01*
X2158Y3034D02*
X2184Y3034D01*
X2258Y3034D02*
X2284Y3034D01*
X2358Y3034D02*
X2384Y3034D01*
X2458Y3034D02*
X2484Y3034D01*
X2558Y3034D02*
X2584Y3034D01*
X2658Y3034D02*
X2684Y3034D01*
X2758Y3034D02*
X2784Y3034D01*
X2160Y3033D02*
X2182Y3033D01*
X2260Y3033D02*
X2282Y3033D01*
X2360Y3033D02*
X2382Y3033D01*
X2460Y3033D02*
X2482Y3033D01*
X2560Y3033D02*
X2582Y3033D01*
X2660Y3033D02*
X2682Y3033D01*
X2760Y3033D02*
X2782Y3033D01*
X2163Y3032D02*
X2180Y3032D01*
X2263Y3032D02*
X2280Y3032D01*
X2363Y3032D02*
X2380Y3032D01*
X2463Y3032D02*
X2480Y3032D01*
X2563Y3032D02*
X2580Y3032D01*
X2663Y3032D02*
X2680Y3032D01*
X2763Y3032D02*
X2780Y3032D01*
X2167Y3031D02*
X2176Y3031D01*
X2267Y3031D02*
X2276Y3031D01*
X2367Y3031D02*
X2376Y3031D01*
X2467Y3031D02*
X2476Y3031D01*
X2567Y3031D02*
X2576Y3031D01*
X2667Y3031D02*
X2676Y3031D01*
X2767Y3031D02*
X2776Y3031D01*
X2167Y2844D02*
X2176Y2844D01*
X2267Y2844D02*
X2276Y2844D01*
X2366Y2844D02*
X2376Y2844D01*
X2466Y2844D02*
X2476Y2844D01*
X2566Y2844D02*
X2576Y2844D01*
X2666Y2844D02*
X2676Y2844D01*
X2766Y2844D02*
X2776Y2844D01*
X2163Y2843D02*
X2180Y2843D01*
X2263Y2843D02*
X2280Y2843D01*
X2363Y2843D02*
X2380Y2843D01*
X2463Y2843D02*
X2480Y2843D01*
X2563Y2843D02*
X2580Y2843D01*
X2663Y2843D02*
X2680Y2843D01*
X2763Y2843D02*
X2780Y2843D01*
X2160Y2842D02*
X2182Y2842D01*
X2260Y2842D02*
X2282Y2842D01*
X2360Y2842D02*
X2382Y2842D01*
X2460Y2842D02*
X2482Y2842D01*
X2560Y2842D02*
X2582Y2842D01*
X2660Y2842D02*
X2682Y2842D01*
X2760Y2842D02*
X2782Y2842D01*
X2158Y2841D02*
X2184Y2841D01*
X2258Y2841D02*
X2284Y2841D01*
X2358Y2841D02*
X2384Y2841D01*
X2458Y2841D02*
X2484Y2841D01*
X2558Y2841D02*
X2584Y2841D01*
X2658Y2841D02*
X2684Y2841D01*
X2758Y2841D02*
X2784Y2841D01*
X2156Y2840D02*
X2186Y2840D01*
X2256Y2840D02*
X2286Y2840D01*
X2356Y2840D02*
X2386Y2840D01*
X2456Y2840D02*
X2486Y2840D01*
X2556Y2840D02*
X2586Y2840D01*
X2656Y2840D02*
X2686Y2840D01*
X2756Y2840D02*
X2786Y2840D01*
X2155Y2839D02*
X2188Y2839D01*
X2255Y2839D02*
X2288Y2839D01*
X2355Y2839D02*
X2388Y2839D01*
X2455Y2839D02*
X2488Y2839D01*
X2555Y2839D02*
X2588Y2839D01*
X2655Y2839D02*
X2688Y2839D01*
X2755Y2839D02*
X2788Y2839D01*
X2153Y2838D02*
X2189Y2838D01*
X2253Y2838D02*
X2289Y2838D01*
X2353Y2838D02*
X2389Y2838D01*
X2453Y2838D02*
X2489Y2838D01*
X2553Y2838D02*
X2589Y2838D01*
X2653Y2838D02*
X2689Y2838D01*
X2753Y2838D02*
X2789Y2838D01*
X2152Y2837D02*
X2190Y2837D01*
X2252Y2837D02*
X2290Y2837D01*
X2352Y2837D02*
X2390Y2837D01*
X2452Y2837D02*
X2490Y2837D01*
X2552Y2837D02*
X2590Y2837D01*
X2652Y2837D02*
X2690Y2837D01*
X2752Y2837D02*
X2790Y2837D01*
X2151Y2836D02*
X2191Y2836D01*
X2251Y2836D02*
X2291Y2836D01*
X2351Y2836D02*
X2391Y2836D01*
X2451Y2836D02*
X2491Y2836D01*
X2551Y2836D02*
X2591Y2836D01*
X2651Y2836D02*
X2691Y2836D01*
X2751Y2836D02*
X2791Y2836D01*
X2150Y2835D02*
X2193Y2835D01*
X2250Y2835D02*
X2293Y2835D01*
X2350Y2835D02*
X2393Y2835D01*
X2450Y2835D02*
X2493Y2835D01*
X2550Y2835D02*
X2592Y2835D01*
X2650Y2835D02*
X2692Y2835D01*
X2750Y2835D02*
X2792Y2835D01*
X2149Y2834D02*
X2193Y2834D01*
X2249Y2834D02*
X2293Y2834D01*
X2349Y2834D02*
X2393Y2834D01*
X2449Y2834D02*
X2493Y2834D01*
X2549Y2834D02*
X2593Y2834D01*
X2649Y2834D02*
X2693Y2834D01*
X2749Y2834D02*
X2793Y2834D01*
X2148Y2833D02*
X2194Y2833D01*
X2248Y2833D02*
X2294Y2833D01*
X2348Y2833D02*
X2394Y2833D01*
X2448Y2833D02*
X2494Y2833D01*
X2548Y2833D02*
X2594Y2833D01*
X2648Y2833D02*
X2694Y2833D01*
X2748Y2833D02*
X2794Y2833D01*
X2147Y2832D02*
X2195Y2832D01*
X2247Y2832D02*
X2295Y2832D01*
X2347Y2832D02*
X2395Y2832D01*
X2447Y2832D02*
X2495Y2832D01*
X2547Y2832D02*
X2595Y2832D01*
X2647Y2832D02*
X2695Y2832D01*
X2747Y2832D02*
X2795Y2832D01*
X2147Y2831D02*
X2196Y2831D01*
X2247Y2831D02*
X2296Y2831D01*
X2347Y2831D02*
X2396Y2831D01*
X2447Y2831D02*
X2496Y2831D01*
X2547Y2831D02*
X2596Y2831D01*
X2646Y2831D02*
X2696Y2831D01*
X2746Y2831D02*
X2796Y2831D01*
X2146Y2830D02*
X2197Y2830D01*
X2246Y2830D02*
X2297Y2830D01*
X2346Y2830D02*
X2397Y2830D01*
X2446Y2830D02*
X2497Y2830D01*
X2546Y2830D02*
X2597Y2830D01*
X2646Y2830D02*
X2697Y2830D01*
X2746Y2830D02*
X2797Y2830D01*
X2145Y2829D02*
X2197Y2829D01*
X2245Y2829D02*
X2297Y2829D01*
X2345Y2829D02*
X2397Y2829D01*
X2445Y2829D02*
X2497Y2829D01*
X2545Y2829D02*
X2597Y2829D01*
X2645Y2829D02*
X2697Y2829D01*
X2745Y2829D02*
X2797Y2829D01*
X2145Y2828D02*
X2198Y2828D01*
X2245Y2828D02*
X2298Y2828D01*
X2345Y2828D02*
X2398Y2828D01*
X2445Y2828D02*
X2498Y2828D01*
X2545Y2828D02*
X2598Y2828D01*
X2645Y2828D02*
X2698Y2828D01*
X2745Y2828D02*
X2798Y2828D01*
X2144Y2827D02*
X2198Y2827D01*
X2244Y2827D02*
X2298Y2827D01*
X2344Y2827D02*
X2398Y2827D01*
X2444Y2827D02*
X2498Y2827D01*
X2544Y2827D02*
X2598Y2827D01*
X2644Y2827D02*
X2698Y2827D01*
X2744Y2827D02*
X2798Y2827D01*
X2144Y2826D02*
X2199Y2826D01*
X2244Y2826D02*
X2299Y2826D01*
X2344Y2826D02*
X2399Y2826D01*
X2444Y2826D02*
X2499Y2826D01*
X2544Y2826D02*
X2599Y2826D01*
X2644Y2826D02*
X2699Y2826D01*
X2744Y2826D02*
X2799Y2826D01*
X2143Y2825D02*
X2199Y2825D01*
X2243Y2825D02*
X2299Y2825D01*
X2343Y2825D02*
X2399Y2825D01*
X2443Y2825D02*
X2499Y2825D01*
X2543Y2825D02*
X2599Y2825D01*
X2643Y2825D02*
X2699Y2825D01*
X2743Y2825D02*
X2799Y2825D01*
X2143Y2824D02*
X2200Y2824D01*
X2243Y2824D02*
X2300Y2824D01*
X2343Y2824D02*
X2400Y2824D01*
X2443Y2824D02*
X2500Y2824D01*
X2543Y2824D02*
X2600Y2824D01*
X2643Y2824D02*
X2700Y2824D01*
X2743Y2824D02*
X2800Y2824D01*
X2142Y2823D02*
X2200Y2823D01*
X2242Y2823D02*
X2300Y2823D01*
X2342Y2823D02*
X2400Y2823D01*
X2442Y2823D02*
X2500Y2823D01*
X2542Y2823D02*
X2600Y2823D01*
X2642Y2823D02*
X2700Y2823D01*
X2742Y2823D02*
X2800Y2823D01*
X2142Y2822D02*
X2200Y2822D01*
X2242Y2822D02*
X2300Y2822D01*
X2342Y2822D02*
X2400Y2822D01*
X2442Y2822D02*
X2500Y2822D01*
X2542Y2822D02*
X2600Y2822D01*
X2642Y2822D02*
X2700Y2822D01*
X2742Y2822D02*
X2800Y2822D01*
X2142Y2821D02*
X2201Y2821D01*
X2242Y2821D02*
X2301Y2821D01*
X2342Y2821D02*
X2401Y2821D01*
X2442Y2821D02*
X2501Y2821D01*
X2542Y2821D02*
X2601Y2821D01*
X2642Y2821D02*
X2701Y2821D01*
X2742Y2821D02*
X2801Y2821D01*
X2142Y2820D02*
X2201Y2820D01*
X2241Y2820D02*
X2301Y2820D01*
X2341Y2820D02*
X2401Y2820D01*
X2441Y2820D02*
X2501Y2820D01*
X2541Y2820D02*
X2601Y2820D01*
X2641Y2820D02*
X2701Y2820D01*
X2741Y2820D02*
X2801Y2820D01*
X2141Y2819D02*
X2201Y2819D01*
X2241Y2819D02*
X2301Y2819D01*
X2341Y2819D02*
X2401Y2819D01*
X2441Y2819D02*
X2501Y2819D01*
X2541Y2819D02*
X2601Y2819D01*
X2641Y2819D02*
X2701Y2819D01*
X2741Y2819D02*
X2801Y2819D01*
X2141Y2818D02*
X2201Y2818D01*
X2241Y2818D02*
X2301Y2818D01*
X2341Y2818D02*
X2401Y2818D01*
X2441Y2818D02*
X2501Y2818D01*
X2541Y2818D02*
X2601Y2818D01*
X2641Y2818D02*
X2701Y2818D01*
X2741Y2818D02*
X2801Y2818D01*
X2141Y2817D02*
X2201Y2817D01*
X2241Y2817D02*
X2301Y2817D01*
X2341Y2817D02*
X2401Y2817D01*
X2441Y2817D02*
X2501Y2817D01*
X2541Y2817D02*
X2601Y2817D01*
X2641Y2817D02*
X2701Y2817D01*
X2741Y2817D02*
X2801Y2817D01*
X2141Y2816D02*
X2202Y2816D01*
X2241Y2816D02*
X2302Y2816D01*
X2341Y2816D02*
X2402Y2816D01*
X2441Y2816D02*
X2502Y2816D01*
X2541Y2816D02*
X2602Y2816D01*
X2641Y2816D02*
X2702Y2816D01*
X2741Y2816D02*
X2802Y2816D01*
X2141Y2815D02*
X2202Y2815D01*
X2241Y2815D02*
X2302Y2815D01*
X2341Y2815D02*
X2402Y2815D01*
X2441Y2815D02*
X2502Y2815D01*
X2541Y2815D02*
X2602Y2815D01*
X2641Y2815D02*
X2702Y2815D01*
X2741Y2815D02*
X2802Y2815D01*
X2141Y2814D02*
X2202Y2814D01*
X2241Y2814D02*
X2302Y2814D01*
X2341Y2814D02*
X2402Y2814D01*
X2441Y2814D02*
X2502Y2814D01*
X2541Y2814D02*
X2602Y2814D01*
X2641Y2814D02*
X2702Y2814D01*
X2741Y2814D02*
X2802Y2814D01*
X2141Y2813D02*
X2202Y2813D01*
X2241Y2813D02*
X2302Y2813D01*
X2341Y2813D02*
X2402Y2813D01*
X2441Y2813D02*
X2502Y2813D01*
X2541Y2813D02*
X2602Y2813D01*
X2641Y2813D02*
X2702Y2813D01*
X2741Y2813D02*
X2802Y2813D01*
X2141Y2812D02*
X2202Y2812D01*
X2241Y2812D02*
X2302Y2812D01*
X2341Y2812D02*
X2402Y2812D01*
X2441Y2812D02*
X2502Y2812D01*
X2541Y2812D02*
X2602Y2812D01*
X2641Y2812D02*
X2702Y2812D01*
X2741Y2812D02*
X2802Y2812D01*
X2141Y2811D02*
X2202Y2811D01*
X2241Y2811D02*
X2302Y2811D01*
X2341Y2811D02*
X2402Y2811D01*
X2441Y2811D02*
X2502Y2811D01*
X2541Y2811D02*
X2602Y2811D01*
X2641Y2811D02*
X2702Y2811D01*
X2741Y2811D02*
X2802Y2811D01*
X2141Y2810D02*
X2202Y2810D01*
X2241Y2810D02*
X2302Y2810D01*
X2341Y2810D02*
X2402Y2810D01*
X2441Y2810D02*
X2502Y2810D01*
X2541Y2810D02*
X2602Y2810D01*
X2641Y2810D02*
X2702Y2810D01*
X2741Y2810D02*
X2802Y2810D01*
X2141Y2809D02*
X2202Y2809D01*
X2241Y2809D02*
X2302Y2809D01*
X2341Y2809D02*
X2402Y2809D01*
X2441Y2809D02*
X2502Y2809D01*
X2541Y2809D02*
X2602Y2809D01*
X2641Y2809D02*
X2702Y2809D01*
X2741Y2809D02*
X2802Y2809D01*
X2141Y2808D02*
X2202Y2808D01*
X2241Y2808D02*
X2302Y2808D01*
X2341Y2808D02*
X2402Y2808D01*
X2441Y2808D02*
X2502Y2808D01*
X2541Y2808D02*
X2602Y2808D01*
X2641Y2808D02*
X2702Y2808D01*
X2741Y2808D02*
X2802Y2808D01*
X2141Y2807D02*
X2202Y2807D01*
X2241Y2807D02*
X2302Y2807D01*
X2341Y2807D02*
X2402Y2807D01*
X2441Y2807D02*
X2502Y2807D01*
X2541Y2807D02*
X2602Y2807D01*
X2641Y2807D02*
X2702Y2807D01*
X2741Y2807D02*
X2802Y2807D01*
X2141Y2806D02*
X2202Y2806D01*
X2241Y2806D02*
X2302Y2806D01*
X2341Y2806D02*
X2402Y2806D01*
X2441Y2806D02*
X2502Y2806D01*
X2541Y2806D02*
X2602Y2806D01*
X2641Y2806D02*
X2702Y2806D01*
X2741Y2806D02*
X2802Y2806D01*
X2141Y2805D02*
X2202Y2805D01*
X2241Y2805D02*
X2302Y2805D01*
X2341Y2805D02*
X2402Y2805D01*
X2441Y2805D02*
X2502Y2805D01*
X2541Y2805D02*
X2602Y2805D01*
X2641Y2805D02*
X2702Y2805D01*
X2741Y2805D02*
X2802Y2805D01*
X2141Y2804D02*
X2202Y2804D01*
X2241Y2804D02*
X2302Y2804D01*
X2341Y2804D02*
X2402Y2804D01*
X2441Y2804D02*
X2502Y2804D01*
X2541Y2804D02*
X2602Y2804D01*
X2641Y2804D02*
X2702Y2804D01*
X2741Y2804D02*
X2802Y2804D01*
X2141Y2803D02*
X2202Y2803D01*
X2241Y2803D02*
X2302Y2803D01*
X2341Y2803D02*
X2402Y2803D01*
X2441Y2803D02*
X2502Y2803D01*
X2541Y2803D02*
X2602Y2803D01*
X2641Y2803D02*
X2702Y2803D01*
X2741Y2803D02*
X2802Y2803D01*
X2141Y2802D02*
X2202Y2802D01*
X2241Y2802D02*
X2302Y2802D01*
X2341Y2802D02*
X2402Y2802D01*
X2441Y2802D02*
X2502Y2802D01*
X2541Y2802D02*
X2602Y2802D01*
X2641Y2802D02*
X2702Y2802D01*
X2741Y2802D02*
X2802Y2802D01*
X2141Y2801D02*
X2202Y2801D01*
X2241Y2801D02*
X2302Y2801D01*
X2341Y2801D02*
X2402Y2801D01*
X2441Y2801D02*
X2502Y2801D01*
X2541Y2801D02*
X2602Y2801D01*
X2641Y2801D02*
X2702Y2801D01*
X2741Y2801D02*
X2802Y2801D01*
X2141Y2800D02*
X2202Y2800D01*
X2241Y2800D02*
X2302Y2800D01*
X2341Y2800D02*
X2402Y2800D01*
X2441Y2800D02*
X2502Y2800D01*
X2541Y2800D02*
X2602Y2800D01*
X2641Y2800D02*
X2702Y2800D01*
X2741Y2800D02*
X2802Y2800D01*
X2141Y2799D02*
X2202Y2799D01*
X2241Y2799D02*
X2302Y2799D01*
X2341Y2799D02*
X2402Y2799D01*
X2441Y2799D02*
X2502Y2799D01*
X2541Y2799D02*
X2602Y2799D01*
X2641Y2799D02*
X2702Y2799D01*
X2741Y2799D02*
X2802Y2799D01*
X2141Y2798D02*
X2167Y2798D01*
X2175Y2798D02*
X2202Y2798D01*
X2241Y2798D02*
X2267Y2798D01*
X2275Y2798D02*
X2302Y2798D01*
X2341Y2798D02*
X2367Y2798D01*
X2375Y2798D02*
X2402Y2798D01*
X2441Y2798D02*
X2467Y2798D01*
X2475Y2798D02*
X2502Y2798D01*
X2541Y2798D02*
X2567Y2798D01*
X2575Y2798D02*
X2602Y2798D01*
X2641Y2798D02*
X2667Y2798D01*
X2675Y2798D02*
X2702Y2798D01*
X2741Y2798D02*
X2767Y2798D01*
X2775Y2798D02*
X2802Y2798D01*
X2141Y2797D02*
X2165Y2797D01*
X2178Y2797D02*
X2202Y2797D01*
X2241Y2797D02*
X2265Y2797D01*
X2278Y2797D02*
X2302Y2797D01*
X2341Y2797D02*
X2365Y2797D01*
X2378Y2797D02*
X2402Y2797D01*
X2441Y2797D02*
X2465Y2797D01*
X2478Y2797D02*
X2502Y2797D01*
X2541Y2797D02*
X2565Y2797D01*
X2578Y2797D02*
X2602Y2797D01*
X2641Y2797D02*
X2665Y2797D01*
X2678Y2797D02*
X2702Y2797D01*
X2741Y2797D02*
X2765Y2797D01*
X2778Y2797D02*
X2802Y2797D01*
X2141Y2796D02*
X2163Y2796D01*
X2179Y2796D02*
X2202Y2796D01*
X2241Y2796D02*
X2263Y2796D01*
X2279Y2796D02*
X2302Y2796D01*
X2341Y2796D02*
X2363Y2796D01*
X2379Y2796D02*
X2402Y2796D01*
X2441Y2796D02*
X2463Y2796D01*
X2479Y2796D02*
X2502Y2796D01*
X2541Y2796D02*
X2563Y2796D01*
X2579Y2796D02*
X2602Y2796D01*
X2641Y2796D02*
X2663Y2796D01*
X2679Y2796D02*
X2702Y2796D01*
X2741Y2796D02*
X2763Y2796D01*
X2779Y2796D02*
X2802Y2796D01*
X2141Y2795D02*
X2162Y2795D01*
X2180Y2795D02*
X2202Y2795D01*
X2241Y2795D02*
X2262Y2795D01*
X2280Y2795D02*
X2302Y2795D01*
X2341Y2795D02*
X2362Y2795D01*
X2380Y2795D02*
X2402Y2795D01*
X2441Y2795D02*
X2462Y2795D01*
X2480Y2795D02*
X2502Y2795D01*
X2541Y2795D02*
X2562Y2795D01*
X2580Y2795D02*
X2602Y2795D01*
X2641Y2795D02*
X2662Y2795D01*
X2680Y2795D02*
X2702Y2795D01*
X2741Y2795D02*
X2762Y2795D01*
X2780Y2795D02*
X2802Y2795D01*
X2141Y2794D02*
X2161Y2794D01*
X2181Y2794D02*
X2202Y2794D01*
X2241Y2794D02*
X2261Y2794D01*
X2281Y2794D02*
X2302Y2794D01*
X2341Y2794D02*
X2361Y2794D01*
X2381Y2794D02*
X2402Y2794D01*
X2441Y2794D02*
X2461Y2794D01*
X2481Y2794D02*
X2502Y2794D01*
X2541Y2794D02*
X2561Y2794D01*
X2581Y2794D02*
X2602Y2794D01*
X2641Y2794D02*
X2661Y2794D01*
X2681Y2794D02*
X2702Y2794D01*
X2741Y2794D02*
X2761Y2794D01*
X2781Y2794D02*
X2802Y2794D01*
X2141Y2793D02*
X2161Y2793D01*
X2181Y2793D02*
X2202Y2793D01*
X2241Y2793D02*
X2261Y2793D01*
X2281Y2793D02*
X2302Y2793D01*
X2341Y2793D02*
X2361Y2793D01*
X2381Y2793D02*
X2402Y2793D01*
X2441Y2793D02*
X2461Y2793D01*
X2481Y2793D02*
X2502Y2793D01*
X2541Y2793D02*
X2561Y2793D01*
X2581Y2793D02*
X2602Y2793D01*
X2641Y2793D02*
X2661Y2793D01*
X2681Y2793D02*
X2702Y2793D01*
X2741Y2793D02*
X2761Y2793D01*
X2781Y2793D02*
X2802Y2793D01*
X2141Y2792D02*
X2160Y2792D01*
X2182Y2792D02*
X2202Y2792D01*
X2241Y2792D02*
X2260Y2792D01*
X2282Y2792D02*
X2302Y2792D01*
X2341Y2792D02*
X2360Y2792D01*
X2382Y2792D02*
X2402Y2792D01*
X2441Y2792D02*
X2460Y2792D01*
X2482Y2792D02*
X2502Y2792D01*
X2541Y2792D02*
X2560Y2792D01*
X2582Y2792D02*
X2602Y2792D01*
X2641Y2792D02*
X2660Y2792D01*
X2682Y2792D02*
X2702Y2792D01*
X2741Y2792D02*
X2760Y2792D01*
X2782Y2792D02*
X2802Y2792D01*
X2141Y2791D02*
X2160Y2791D01*
X2182Y2791D02*
X2202Y2791D01*
X2241Y2791D02*
X2260Y2791D01*
X2282Y2791D02*
X2302Y2791D01*
X2341Y2791D02*
X2360Y2791D01*
X2382Y2791D02*
X2402Y2791D01*
X2441Y2791D02*
X2460Y2791D01*
X2482Y2791D02*
X2502Y2791D01*
X2541Y2791D02*
X2560Y2791D01*
X2582Y2791D02*
X2602Y2791D01*
X2641Y2791D02*
X2660Y2791D01*
X2682Y2791D02*
X2702Y2791D01*
X2741Y2791D02*
X2760Y2791D01*
X2782Y2791D02*
X2802Y2791D01*
X2141Y2790D02*
X2160Y2790D01*
X2182Y2790D02*
X2202Y2790D01*
X2241Y2790D02*
X2260Y2790D01*
X2282Y2790D02*
X2302Y2790D01*
X2341Y2790D02*
X2360Y2790D01*
X2382Y2790D02*
X2402Y2790D01*
X2441Y2790D02*
X2460Y2790D01*
X2482Y2790D02*
X2502Y2790D01*
X2541Y2790D02*
X2560Y2790D01*
X2582Y2790D02*
X2602Y2790D01*
X2641Y2790D02*
X2660Y2790D01*
X2682Y2790D02*
X2702Y2790D01*
X2741Y2790D02*
X2760Y2790D01*
X2782Y2790D02*
X2802Y2790D01*
X2141Y2789D02*
X2160Y2789D01*
X2183Y2789D02*
X2202Y2789D01*
X2241Y2789D02*
X2260Y2789D01*
X2283Y2789D02*
X2302Y2789D01*
X2341Y2789D02*
X2360Y2789D01*
X2383Y2789D02*
X2402Y2789D01*
X2441Y2789D02*
X2460Y2789D01*
X2483Y2789D02*
X2502Y2789D01*
X2541Y2789D02*
X2560Y2789D01*
X2583Y2789D02*
X2602Y2789D01*
X2641Y2789D02*
X2660Y2789D01*
X2683Y2789D02*
X2702Y2789D01*
X2741Y2789D02*
X2760Y2789D01*
X2783Y2789D02*
X2802Y2789D01*
X2141Y2788D02*
X2160Y2788D01*
X2183Y2788D02*
X2202Y2788D01*
X2241Y2788D02*
X2260Y2788D01*
X2283Y2788D02*
X2302Y2788D01*
X2341Y2788D02*
X2360Y2788D01*
X2383Y2788D02*
X2402Y2788D01*
X2441Y2788D02*
X2460Y2788D01*
X2483Y2788D02*
X2502Y2788D01*
X2541Y2788D02*
X2560Y2788D01*
X2583Y2788D02*
X2602Y2788D01*
X2641Y2788D02*
X2660Y2788D01*
X2683Y2788D02*
X2702Y2788D01*
X2741Y2788D02*
X2760Y2788D01*
X2783Y2788D02*
X2802Y2788D01*
X2141Y2787D02*
X2160Y2787D01*
X2183Y2787D02*
X2202Y2787D01*
X2241Y2787D02*
X2260Y2787D01*
X2283Y2787D02*
X2302Y2787D01*
X2341Y2787D02*
X2360Y2787D01*
X2383Y2787D02*
X2402Y2787D01*
X2441Y2787D02*
X2460Y2787D01*
X2483Y2787D02*
X2502Y2787D01*
X2541Y2787D02*
X2560Y2787D01*
X2583Y2787D02*
X2602Y2787D01*
X2641Y2787D02*
X2660Y2787D01*
X2683Y2787D02*
X2702Y2787D01*
X2741Y2787D02*
X2760Y2787D01*
X2783Y2787D02*
X2802Y2787D01*
X2141Y2786D02*
X2160Y2786D01*
X2183Y2786D02*
X2202Y2786D01*
X2241Y2786D02*
X2260Y2786D01*
X2283Y2786D02*
X2302Y2786D01*
X2341Y2786D02*
X2360Y2786D01*
X2383Y2786D02*
X2402Y2786D01*
X2441Y2786D02*
X2460Y2786D01*
X2483Y2786D02*
X2502Y2786D01*
X2541Y2786D02*
X2560Y2786D01*
X2583Y2786D02*
X2602Y2786D01*
X2641Y2786D02*
X2660Y2786D01*
X2683Y2786D02*
X2702Y2786D01*
X2741Y2786D02*
X2760Y2786D01*
X2783Y2786D02*
X2802Y2786D01*
X2141Y2785D02*
X2160Y2785D01*
X2182Y2785D02*
X2202Y2785D01*
X2241Y2785D02*
X2260Y2785D01*
X2282Y2785D02*
X2302Y2785D01*
X2341Y2785D02*
X2360Y2785D01*
X2382Y2785D02*
X2402Y2785D01*
X2441Y2785D02*
X2460Y2785D01*
X2482Y2785D02*
X2502Y2785D01*
X2541Y2785D02*
X2560Y2785D01*
X2582Y2785D02*
X2602Y2785D01*
X2641Y2785D02*
X2660Y2785D01*
X2682Y2785D02*
X2702Y2785D01*
X2741Y2785D02*
X2760Y2785D01*
X2782Y2785D02*
X2802Y2785D01*
X2141Y2784D02*
X2160Y2784D01*
X2182Y2784D02*
X2202Y2784D01*
X2241Y2784D02*
X2260Y2784D01*
X2282Y2784D02*
X2302Y2784D01*
X2341Y2784D02*
X2360Y2784D01*
X2382Y2784D02*
X2402Y2784D01*
X2441Y2784D02*
X2460Y2784D01*
X2482Y2784D02*
X2502Y2784D01*
X2541Y2784D02*
X2560Y2784D01*
X2582Y2784D02*
X2602Y2784D01*
X2641Y2784D02*
X2660Y2784D01*
X2682Y2784D02*
X2702Y2784D01*
X2741Y2784D02*
X2760Y2784D01*
X2782Y2784D02*
X2802Y2784D01*
X2141Y2783D02*
X2160Y2783D01*
X2182Y2783D02*
X2202Y2783D01*
X2241Y2783D02*
X2260Y2783D01*
X2282Y2783D02*
X2302Y2783D01*
X2341Y2783D02*
X2360Y2783D01*
X2382Y2783D02*
X2402Y2783D01*
X2441Y2783D02*
X2460Y2783D01*
X2482Y2783D02*
X2502Y2783D01*
X2541Y2783D02*
X2560Y2783D01*
X2582Y2783D02*
X2602Y2783D01*
X2641Y2783D02*
X2660Y2783D01*
X2682Y2783D02*
X2702Y2783D01*
X2741Y2783D02*
X2760Y2783D01*
X2782Y2783D02*
X2802Y2783D01*
X2141Y2782D02*
X2161Y2782D01*
X2181Y2782D02*
X2202Y2782D01*
X2241Y2782D02*
X2261Y2782D01*
X2281Y2782D02*
X2302Y2782D01*
X2341Y2782D02*
X2361Y2782D01*
X2381Y2782D02*
X2402Y2782D01*
X2441Y2782D02*
X2461Y2782D01*
X2481Y2782D02*
X2502Y2782D01*
X2541Y2782D02*
X2561Y2782D01*
X2581Y2782D02*
X2602Y2782D01*
X2641Y2782D02*
X2661Y2782D01*
X2681Y2782D02*
X2702Y2782D01*
X2741Y2782D02*
X2761Y2782D01*
X2781Y2782D02*
X2802Y2782D01*
X2141Y2781D02*
X2162Y2781D01*
X2181Y2781D02*
X2202Y2781D01*
X2241Y2781D02*
X2261Y2781D01*
X2281Y2781D02*
X2302Y2781D01*
X2341Y2781D02*
X2361Y2781D01*
X2381Y2781D02*
X2402Y2781D01*
X2441Y2781D02*
X2461Y2781D01*
X2481Y2781D02*
X2502Y2781D01*
X2541Y2781D02*
X2561Y2781D01*
X2581Y2781D02*
X2602Y2781D01*
X2641Y2781D02*
X2661Y2781D01*
X2681Y2781D02*
X2702Y2781D01*
X2741Y2781D02*
X2761Y2781D01*
X2781Y2781D02*
X2802Y2781D01*
X2141Y2780D02*
X2162Y2780D01*
X2180Y2780D02*
X2202Y2780D01*
X2241Y2780D02*
X2262Y2780D01*
X2280Y2780D02*
X2302Y2780D01*
X2341Y2780D02*
X2362Y2780D01*
X2380Y2780D02*
X2402Y2780D01*
X2441Y2780D02*
X2462Y2780D01*
X2480Y2780D02*
X2502Y2780D01*
X2541Y2780D02*
X2562Y2780D01*
X2580Y2780D02*
X2602Y2780D01*
X2641Y2780D02*
X2662Y2780D01*
X2680Y2780D02*
X2702Y2780D01*
X2741Y2780D02*
X2762Y2780D01*
X2780Y2780D02*
X2802Y2780D01*
X2141Y2779D02*
X2163Y2779D01*
X2179Y2779D02*
X2202Y2779D01*
X2241Y2779D02*
X2263Y2779D01*
X2279Y2779D02*
X2302Y2779D01*
X2341Y2779D02*
X2363Y2779D01*
X2379Y2779D02*
X2402Y2779D01*
X2441Y2779D02*
X2463Y2779D01*
X2479Y2779D02*
X2502Y2779D01*
X2541Y2779D02*
X2563Y2779D01*
X2579Y2779D02*
X2602Y2779D01*
X2641Y2779D02*
X2663Y2779D01*
X2679Y2779D02*
X2702Y2779D01*
X2741Y2779D02*
X2763Y2779D01*
X2779Y2779D02*
X2802Y2779D01*
X2141Y2778D02*
X2165Y2778D01*
X2178Y2778D02*
X2202Y2778D01*
X2241Y2778D02*
X2265Y2778D01*
X2278Y2778D02*
X2302Y2778D01*
X2341Y2778D02*
X2365Y2778D01*
X2378Y2778D02*
X2402Y2778D01*
X2441Y2778D02*
X2465Y2778D01*
X2478Y2778D02*
X2502Y2778D01*
X2541Y2778D02*
X2565Y2778D01*
X2578Y2778D02*
X2602Y2778D01*
X2641Y2778D02*
X2665Y2778D01*
X2678Y2778D02*
X2702Y2778D01*
X2741Y2778D02*
X2765Y2778D01*
X2778Y2778D02*
X2802Y2778D01*
X2141Y2777D02*
X2167Y2777D01*
X2175Y2777D02*
X2202Y2777D01*
X2241Y2777D02*
X2267Y2777D01*
X2275Y2777D02*
X2302Y2777D01*
X2341Y2777D02*
X2367Y2777D01*
X2375Y2777D02*
X2402Y2777D01*
X2441Y2777D02*
X2467Y2777D01*
X2475Y2777D02*
X2502Y2777D01*
X2541Y2777D02*
X2567Y2777D01*
X2575Y2777D02*
X2602Y2777D01*
X2641Y2777D02*
X2667Y2777D01*
X2675Y2777D02*
X2702Y2777D01*
X2741Y2777D02*
X2767Y2777D01*
X2775Y2777D02*
X2802Y2777D01*
X2141Y2776D02*
X2202Y2776D01*
X2241Y2776D02*
X2302Y2776D01*
X2341Y2776D02*
X2402Y2776D01*
X2441Y2776D02*
X2502Y2776D01*
X2541Y2776D02*
X2602Y2776D01*
X2641Y2776D02*
X2702Y2776D01*
X2741Y2776D02*
X2802Y2776D01*
X2141Y2775D02*
X2202Y2775D01*
X2241Y2775D02*
X2302Y2775D01*
X2341Y2775D02*
X2402Y2775D01*
X2441Y2775D02*
X2502Y2775D01*
X2541Y2775D02*
X2602Y2775D01*
X2641Y2775D02*
X2702Y2775D01*
X2741Y2775D02*
X2802Y2775D01*
X2141Y2774D02*
X2202Y2774D01*
X2241Y2774D02*
X2302Y2774D01*
X2341Y2774D02*
X2402Y2774D01*
X2441Y2774D02*
X2502Y2774D01*
X2541Y2774D02*
X2602Y2774D01*
X2641Y2774D02*
X2702Y2774D01*
X2741Y2774D02*
X2802Y2774D01*
X2141Y2773D02*
X2202Y2773D01*
X2241Y2773D02*
X2302Y2773D01*
X2341Y2773D02*
X2402Y2773D01*
X2441Y2773D02*
X2502Y2773D01*
X2541Y2773D02*
X2602Y2773D01*
X2641Y2773D02*
X2702Y2773D01*
X2741Y2773D02*
X2802Y2773D01*
X2141Y2772D02*
X2202Y2772D01*
X2241Y2772D02*
X2302Y2772D01*
X2341Y2772D02*
X2402Y2772D01*
X2441Y2772D02*
X2502Y2772D01*
X2541Y2772D02*
X2602Y2772D01*
X2641Y2772D02*
X2702Y2772D01*
X2741Y2772D02*
X2802Y2772D01*
X2141Y2771D02*
X2202Y2771D01*
X2241Y2771D02*
X2302Y2771D01*
X2341Y2771D02*
X2402Y2771D01*
X2441Y2771D02*
X2502Y2771D01*
X2541Y2771D02*
X2602Y2771D01*
X2641Y2771D02*
X2702Y2771D01*
X2741Y2771D02*
X2802Y2771D01*
X2141Y2770D02*
X2202Y2770D01*
X2241Y2770D02*
X2302Y2770D01*
X2341Y2770D02*
X2402Y2770D01*
X2441Y2770D02*
X2502Y2770D01*
X2541Y2770D02*
X2602Y2770D01*
X2641Y2770D02*
X2702Y2770D01*
X2741Y2770D02*
X2802Y2770D01*
X2141Y2769D02*
X2202Y2769D01*
X2241Y2769D02*
X2302Y2769D01*
X2341Y2769D02*
X2402Y2769D01*
X2441Y2769D02*
X2502Y2769D01*
X2541Y2769D02*
X2602Y2769D01*
X2641Y2769D02*
X2702Y2769D01*
X2741Y2769D02*
X2802Y2769D01*
X2141Y2768D02*
X2202Y2768D01*
X2241Y2768D02*
X2302Y2768D01*
X2341Y2768D02*
X2402Y2768D01*
X2441Y2768D02*
X2502Y2768D01*
X2541Y2768D02*
X2602Y2768D01*
X2641Y2768D02*
X2702Y2768D01*
X2741Y2768D02*
X2802Y2768D01*
X2141Y2767D02*
X2202Y2767D01*
X2241Y2767D02*
X2302Y2767D01*
X2341Y2767D02*
X2402Y2767D01*
X2441Y2767D02*
X2502Y2767D01*
X2541Y2767D02*
X2602Y2767D01*
X2641Y2767D02*
X2702Y2767D01*
X2741Y2767D02*
X2802Y2767D01*
X2141Y2766D02*
X2202Y2766D01*
X2241Y2766D02*
X2302Y2766D01*
X2341Y2766D02*
X2402Y2766D01*
X2441Y2766D02*
X2502Y2766D01*
X2541Y2766D02*
X2602Y2766D01*
X2641Y2766D02*
X2702Y2766D01*
X2741Y2766D02*
X2802Y2766D01*
X2141Y2765D02*
X2202Y2765D01*
X2241Y2765D02*
X2302Y2765D01*
X2341Y2765D02*
X2402Y2765D01*
X2441Y2765D02*
X2502Y2765D01*
X2541Y2765D02*
X2602Y2765D01*
X2641Y2765D02*
X2702Y2765D01*
X2741Y2765D02*
X2802Y2765D01*
X2141Y2764D02*
X2202Y2764D01*
X2241Y2764D02*
X2302Y2764D01*
X2341Y2764D02*
X2402Y2764D01*
X2441Y2764D02*
X2502Y2764D01*
X2541Y2764D02*
X2602Y2764D01*
X2641Y2764D02*
X2702Y2764D01*
X2741Y2764D02*
X2802Y2764D01*
X2141Y2763D02*
X2202Y2763D01*
X2241Y2763D02*
X2302Y2763D01*
X2341Y2763D02*
X2402Y2763D01*
X2441Y2763D02*
X2502Y2763D01*
X2541Y2763D02*
X2602Y2763D01*
X2641Y2763D02*
X2702Y2763D01*
X2741Y2763D02*
X2802Y2763D01*
X2141Y2762D02*
X2202Y2762D01*
X2241Y2762D02*
X2302Y2762D01*
X2341Y2762D02*
X2402Y2762D01*
X2441Y2762D02*
X2502Y2762D01*
X2541Y2762D02*
X2602Y2762D01*
X2641Y2762D02*
X2702Y2762D01*
X2741Y2762D02*
X2802Y2762D01*
X2141Y2761D02*
X2202Y2761D01*
X2241Y2761D02*
X2302Y2761D01*
X2341Y2761D02*
X2402Y2761D01*
X2441Y2761D02*
X2502Y2761D01*
X2541Y2761D02*
X2602Y2761D01*
X2641Y2761D02*
X2702Y2761D01*
X2741Y2761D02*
X2802Y2761D01*
X2141Y2760D02*
X2202Y2760D01*
X2241Y2760D02*
X2302Y2760D01*
X2341Y2760D02*
X2402Y2760D01*
X2441Y2760D02*
X2502Y2760D01*
X2541Y2760D02*
X2602Y2760D01*
X2641Y2760D02*
X2702Y2760D01*
X2741Y2760D02*
X2802Y2760D01*
X2141Y2759D02*
X2202Y2759D01*
X2241Y2759D02*
X2302Y2759D01*
X2341Y2759D02*
X2402Y2759D01*
X2441Y2759D02*
X2502Y2759D01*
X2541Y2759D02*
X2602Y2759D01*
X2641Y2759D02*
X2702Y2759D01*
X2741Y2759D02*
X2802Y2759D01*
X2141Y2758D02*
X2201Y2758D01*
X2241Y2758D02*
X2301Y2758D01*
X2341Y2758D02*
X2401Y2758D01*
X2441Y2758D02*
X2501Y2758D01*
X2541Y2758D02*
X2601Y2758D01*
X2641Y2758D02*
X2701Y2758D01*
X2741Y2758D02*
X2801Y2758D01*
X2141Y2757D02*
X2201Y2757D01*
X2241Y2757D02*
X2301Y2757D01*
X2341Y2757D02*
X2401Y2757D01*
X2441Y2757D02*
X2501Y2757D01*
X2541Y2757D02*
X2601Y2757D01*
X2641Y2757D02*
X2701Y2757D01*
X2741Y2757D02*
X2801Y2757D01*
X2141Y2756D02*
X2201Y2756D01*
X2241Y2756D02*
X2301Y2756D01*
X2341Y2756D02*
X2401Y2756D01*
X2441Y2756D02*
X2501Y2756D01*
X2541Y2756D02*
X2601Y2756D01*
X2641Y2756D02*
X2701Y2756D01*
X2741Y2756D02*
X2801Y2756D01*
X2142Y2755D02*
X2201Y2755D01*
X2241Y2755D02*
X2301Y2755D01*
X2341Y2755D02*
X2401Y2755D01*
X2441Y2755D02*
X2501Y2755D01*
X2541Y2755D02*
X2601Y2755D01*
X2641Y2755D02*
X2701Y2755D01*
X2741Y2755D02*
X2801Y2755D01*
X2142Y2754D02*
X2201Y2754D01*
X2242Y2754D02*
X2301Y2754D01*
X2342Y2754D02*
X2401Y2754D01*
X2442Y2754D02*
X2501Y2754D01*
X2542Y2754D02*
X2601Y2754D01*
X2642Y2754D02*
X2701Y2754D01*
X2742Y2754D02*
X2801Y2754D01*
X2142Y2753D02*
X2200Y2753D01*
X2242Y2753D02*
X2300Y2753D01*
X2342Y2753D02*
X2400Y2753D01*
X2442Y2753D02*
X2500Y2753D01*
X2542Y2753D02*
X2600Y2753D01*
X2642Y2753D02*
X2700Y2753D01*
X2742Y2753D02*
X2800Y2753D01*
X2142Y2752D02*
X2200Y2752D01*
X2242Y2752D02*
X2300Y2752D01*
X2342Y2752D02*
X2400Y2752D01*
X2442Y2752D02*
X2500Y2752D01*
X2542Y2752D02*
X2600Y2752D01*
X2642Y2752D02*
X2700Y2752D01*
X2742Y2752D02*
X2800Y2752D01*
X2143Y2751D02*
X2200Y2751D01*
X2243Y2751D02*
X2300Y2751D01*
X2343Y2751D02*
X2400Y2751D01*
X2443Y2751D02*
X2500Y2751D01*
X2543Y2751D02*
X2600Y2751D01*
X2643Y2751D02*
X2700Y2751D01*
X2743Y2751D02*
X2800Y2751D01*
X2143Y2750D02*
X2199Y2750D01*
X2243Y2750D02*
X2299Y2750D01*
X2343Y2750D02*
X2399Y2750D01*
X2443Y2750D02*
X2499Y2750D01*
X2543Y2750D02*
X2599Y2750D01*
X2643Y2750D02*
X2699Y2750D01*
X2743Y2750D02*
X2799Y2750D01*
X2144Y2749D02*
X2199Y2749D01*
X2244Y2749D02*
X2299Y2749D01*
X2344Y2749D02*
X2399Y2749D01*
X2444Y2749D02*
X2499Y2749D01*
X2544Y2749D02*
X2599Y2749D01*
X2644Y2749D02*
X2699Y2749D01*
X2744Y2749D02*
X2799Y2749D01*
X2144Y2748D02*
X2198Y2748D01*
X2244Y2748D02*
X2298Y2748D01*
X2344Y2748D02*
X2398Y2748D01*
X2444Y2748D02*
X2498Y2748D01*
X2544Y2748D02*
X2598Y2748D01*
X2644Y2748D02*
X2698Y2748D01*
X2744Y2748D02*
X2798Y2748D01*
X2145Y2747D02*
X2198Y2747D01*
X2245Y2747D02*
X2298Y2747D01*
X2345Y2747D02*
X2398Y2747D01*
X2445Y2747D02*
X2498Y2747D01*
X2545Y2747D02*
X2598Y2747D01*
X2645Y2747D02*
X2698Y2747D01*
X2745Y2747D02*
X2798Y2747D01*
X2145Y2746D02*
X2197Y2746D01*
X2245Y2746D02*
X2297Y2746D01*
X2345Y2746D02*
X2397Y2746D01*
X2445Y2746D02*
X2497Y2746D01*
X2545Y2746D02*
X2597Y2746D01*
X2645Y2746D02*
X2697Y2746D01*
X2745Y2746D02*
X2797Y2746D01*
X2146Y2745D02*
X2197Y2745D01*
X2246Y2745D02*
X2297Y2745D01*
X2346Y2745D02*
X2397Y2745D01*
X2446Y2745D02*
X2497Y2745D01*
X2546Y2745D02*
X2597Y2745D01*
X2646Y2745D02*
X2697Y2745D01*
X2746Y2745D02*
X2797Y2745D01*
X2147Y2744D02*
X2196Y2744D01*
X2247Y2744D02*
X2296Y2744D01*
X2347Y2744D02*
X2396Y2744D01*
X2447Y2744D02*
X2496Y2744D01*
X2547Y2744D02*
X2596Y2744D01*
X2647Y2744D02*
X2696Y2744D01*
X2747Y2744D02*
X2796Y2744D01*
X2147Y2743D02*
X2195Y2743D01*
X2247Y2743D02*
X2295Y2743D01*
X2347Y2743D02*
X2395Y2743D01*
X2447Y2743D02*
X2495Y2743D01*
X2547Y2743D02*
X2595Y2743D01*
X2647Y2743D02*
X2695Y2743D01*
X2747Y2743D02*
X2795Y2743D01*
X2148Y2742D02*
X2194Y2742D01*
X2248Y2742D02*
X2294Y2742D01*
X2348Y2742D02*
X2394Y2742D01*
X2448Y2742D02*
X2494Y2742D01*
X2548Y2742D02*
X2594Y2742D01*
X2648Y2742D02*
X2694Y2742D01*
X2748Y2742D02*
X2794Y2742D01*
X2149Y2741D02*
X2193Y2741D01*
X2249Y2741D02*
X2293Y2741D01*
X2349Y2741D02*
X2393Y2741D01*
X2449Y2741D02*
X2493Y2741D01*
X2549Y2741D02*
X2593Y2741D01*
X2649Y2741D02*
X2693Y2741D01*
X2749Y2741D02*
X2793Y2741D01*
X2150Y2740D02*
X2193Y2740D01*
X2250Y2740D02*
X2293Y2740D01*
X2350Y2740D02*
X2392Y2740D01*
X2450Y2740D02*
X2492Y2740D01*
X2550Y2740D02*
X2592Y2740D01*
X2650Y2740D02*
X2692Y2740D01*
X2750Y2740D02*
X2792Y2740D01*
X2151Y2739D02*
X2191Y2739D01*
X2251Y2739D02*
X2291Y2739D01*
X2351Y2739D02*
X2391Y2739D01*
X2451Y2739D02*
X2491Y2739D01*
X2551Y2739D02*
X2591Y2739D01*
X2651Y2739D02*
X2691Y2739D01*
X2751Y2739D02*
X2791Y2739D01*
X2152Y2738D02*
X2190Y2738D01*
X2252Y2738D02*
X2290Y2738D01*
X2352Y2738D02*
X2390Y2738D01*
X2452Y2738D02*
X2490Y2738D01*
X2552Y2738D02*
X2590Y2738D01*
X2652Y2738D02*
X2690Y2738D01*
X2752Y2738D02*
X2790Y2738D01*
X2153Y2737D02*
X2189Y2737D01*
X2253Y2737D02*
X2289Y2737D01*
X2353Y2737D02*
X2389Y2737D01*
X2453Y2737D02*
X2489Y2737D01*
X2553Y2737D02*
X2589Y2737D01*
X2653Y2737D02*
X2689Y2737D01*
X2753Y2737D02*
X2789Y2737D01*
X2155Y2736D02*
X2188Y2736D01*
X2255Y2736D02*
X2288Y2736D01*
X2355Y2736D02*
X2388Y2736D01*
X2455Y2736D02*
X2488Y2736D01*
X2555Y2736D02*
X2588Y2736D01*
X2655Y2736D02*
X2688Y2736D01*
X2755Y2736D02*
X2788Y2736D01*
X2156Y2735D02*
X2186Y2735D01*
X2256Y2735D02*
X2286Y2735D01*
X2356Y2735D02*
X2386Y2735D01*
X2456Y2735D02*
X2486Y2735D01*
X2556Y2735D02*
X2586Y2735D01*
X2656Y2735D02*
X2686Y2735D01*
X2756Y2735D02*
X2786Y2735D01*
X2158Y2734D02*
X2184Y2734D01*
X2258Y2734D02*
X2284Y2734D01*
X2358Y2734D02*
X2384Y2734D01*
X2458Y2734D02*
X2484Y2734D01*
X2558Y2734D02*
X2584Y2734D01*
X2658Y2734D02*
X2684Y2734D01*
X2758Y2734D02*
X2784Y2734D01*
X2160Y2733D02*
X2182Y2733D01*
X2260Y2733D02*
X2282Y2733D01*
X2360Y2733D02*
X2382Y2733D01*
X2460Y2733D02*
X2482Y2733D01*
X2560Y2733D02*
X2582Y2733D01*
X2660Y2733D02*
X2682Y2733D01*
X2760Y2733D02*
X2782Y2733D01*
X2163Y2732D02*
X2180Y2732D01*
X2263Y2732D02*
X2280Y2732D01*
X2363Y2732D02*
X2380Y2732D01*
X2463Y2732D02*
X2480Y2732D01*
X2563Y2732D02*
X2580Y2732D01*
X2663Y2732D02*
X2680Y2732D01*
X2763Y2732D02*
X2780Y2732D01*
X2167Y2731D02*
X2176Y2731D01*
X2267Y2731D02*
X2276Y2731D01*
X2367Y2731D02*
X2376Y2731D01*
X2467Y2731D02*
X2476Y2731D01*
X2567Y2731D02*
X2576Y2731D01*
X2667Y2731D02*
X2676Y2731D01*
X2767Y2731D02*
X2776Y2731D01*
X409Y2637D02*
X483Y2637D01*
X409Y2636D02*
X483Y2636D01*
X409Y2635D02*
X483Y2635D01*
X409Y2634D02*
X483Y2634D01*
X409Y2633D02*
X483Y2633D01*
X409Y2632D02*
X483Y2632D01*
X409Y2631D02*
X483Y2631D01*
X409Y2630D02*
X483Y2630D01*
X409Y2629D02*
X483Y2629D01*
X409Y2628D02*
X483Y2628D01*
X409Y2627D02*
X483Y2627D01*
X409Y2626D02*
X483Y2626D01*
X409Y2625D02*
X483Y2625D01*
X409Y2624D02*
X483Y2624D01*
X409Y2623D02*
X483Y2623D01*
X409Y2622D02*
X483Y2622D01*
X409Y2621D02*
X483Y2621D01*
X409Y2620D02*
X483Y2620D01*
X409Y2619D02*
X483Y2619D01*
X409Y2618D02*
X483Y2618D01*
X409Y2617D02*
X483Y2617D01*
X409Y2616D02*
X483Y2616D01*
X409Y2615D02*
X483Y2615D01*
X409Y2614D02*
X483Y2614D01*
X409Y2613D02*
X483Y2613D01*
X409Y2612D02*
X483Y2612D01*
X409Y2611D02*
X483Y2611D01*
X409Y2610D02*
X483Y2610D01*
X409Y2609D02*
X483Y2609D01*
X409Y2608D02*
X442Y2608D01*
X451Y2608D02*
X483Y2608D01*
X409Y2607D02*
X441Y2607D01*
X452Y2607D02*
X483Y2607D01*
X409Y2606D02*
X439Y2606D01*
X453Y2606D02*
X483Y2606D01*
X409Y2605D02*
X439Y2605D01*
X454Y2605D02*
X483Y2605D01*
X409Y2604D02*
X438Y2604D01*
X455Y2604D02*
X483Y2604D01*
X409Y2603D02*
X438Y2603D01*
X455Y2603D02*
X483Y2603D01*
X409Y2602D02*
X437Y2602D01*
X455Y2602D02*
X483Y2602D01*
X409Y2601D02*
X437Y2601D01*
X456Y2601D02*
X483Y2601D01*
X409Y2600D02*
X437Y2600D01*
X456Y2600D02*
X483Y2600D01*
X409Y2599D02*
X437Y2599D01*
X456Y2599D02*
X483Y2599D01*
X409Y2598D02*
X437Y2598D01*
X455Y2598D02*
X483Y2598D01*
X409Y2597D02*
X438Y2597D01*
X455Y2597D02*
X483Y2597D01*
X409Y2596D02*
X438Y2596D01*
X455Y2596D02*
X483Y2596D01*
X409Y2595D02*
X439Y2595D01*
X454Y2595D02*
X483Y2595D01*
X409Y2594D02*
X439Y2594D01*
X453Y2594D02*
X483Y2594D01*
X409Y2593D02*
X441Y2593D01*
X452Y2593D02*
X483Y2593D01*
X409Y2592D02*
X442Y2592D01*
X450Y2592D02*
X483Y2592D01*
X409Y2591D02*
X483Y2591D01*
X409Y2590D02*
X483Y2590D01*
X409Y2589D02*
X483Y2589D01*
X409Y2588D02*
X483Y2588D01*
X409Y2587D02*
X483Y2587D01*
X409Y2586D02*
X483Y2586D01*
X409Y2585D02*
X483Y2585D01*
X409Y2584D02*
X483Y2584D01*
X409Y2583D02*
X483Y2583D01*
X409Y2582D02*
X483Y2582D01*
X409Y2581D02*
X483Y2581D01*
X409Y2580D02*
X483Y2580D01*
X409Y2579D02*
X483Y2579D01*
X409Y2578D02*
X483Y2578D01*
X409Y2577D02*
X483Y2577D01*
X409Y2576D02*
X483Y2576D01*
X409Y2575D02*
X483Y2575D01*
X409Y2574D02*
X483Y2574D01*
X409Y2573D02*
X483Y2573D01*
X409Y2572D02*
X483Y2572D01*
X409Y2571D02*
X483Y2571D01*
X409Y2570D02*
X483Y2570D01*
X409Y2569D02*
X483Y2569D01*
X409Y2568D02*
X483Y2568D01*
X409Y2567D02*
X483Y2567D01*
X409Y2566D02*
X483Y2566D01*
X409Y2565D02*
X483Y2565D01*
X409Y2564D02*
X483Y2564D01*
X409Y2563D02*
X483Y2563D01*
X2260Y2500D02*
X2333Y2500D01*
X2259Y2499D02*
X2333Y2499D01*
X2259Y2498D02*
X2333Y2498D01*
X137Y2497D02*
X205Y2497D01*
X437Y2497D02*
X505Y2497D01*
X2259Y2497D02*
X2333Y2497D01*
X137Y2496D02*
X206Y2496D01*
X437Y2496D02*
X506Y2496D01*
X2259Y2496D02*
X2333Y2496D01*
X137Y2495D02*
X206Y2495D01*
X437Y2495D02*
X506Y2495D01*
X2259Y2495D02*
X2333Y2495D01*
X137Y2494D02*
X206Y2494D01*
X437Y2494D02*
X506Y2494D01*
X2259Y2494D02*
X2333Y2494D01*
X137Y2493D02*
X206Y2493D01*
X437Y2493D02*
X506Y2493D01*
X2259Y2493D02*
X2333Y2493D01*
X137Y2492D02*
X206Y2492D01*
X437Y2492D02*
X506Y2492D01*
X2259Y2492D02*
X2333Y2492D01*
X137Y2491D02*
X206Y2491D01*
X437Y2491D02*
X506Y2491D01*
X2259Y2491D02*
X2333Y2491D01*
X137Y2490D02*
X206Y2490D01*
X437Y2490D02*
X506Y2490D01*
X2259Y2490D02*
X2333Y2490D01*
X137Y2489D02*
X206Y2489D01*
X437Y2489D02*
X506Y2489D01*
X2259Y2489D02*
X2333Y2489D01*
X137Y2488D02*
X206Y2488D01*
X437Y2488D02*
X506Y2488D01*
X2259Y2488D02*
X2333Y2488D01*
X137Y2487D02*
X206Y2487D01*
X437Y2487D02*
X506Y2487D01*
X2259Y2487D02*
X2333Y2487D01*
X137Y2486D02*
X206Y2486D01*
X437Y2486D02*
X506Y2486D01*
X2259Y2486D02*
X2333Y2486D01*
X137Y2485D02*
X206Y2485D01*
X437Y2485D02*
X506Y2485D01*
X2259Y2485D02*
X2333Y2485D01*
X137Y2484D02*
X206Y2484D01*
X437Y2484D02*
X506Y2484D01*
X2259Y2484D02*
X2333Y2484D01*
X137Y2483D02*
X206Y2483D01*
X437Y2483D02*
X506Y2483D01*
X2259Y2483D02*
X2333Y2483D01*
X137Y2482D02*
X206Y2482D01*
X437Y2482D02*
X506Y2482D01*
X2259Y2482D02*
X2333Y2482D01*
X137Y2481D02*
X206Y2481D01*
X437Y2481D02*
X506Y2481D01*
X2259Y2481D02*
X2333Y2481D01*
X137Y2480D02*
X206Y2480D01*
X437Y2480D02*
X506Y2480D01*
X2259Y2480D02*
X2333Y2480D01*
X137Y2479D02*
X206Y2479D01*
X437Y2479D02*
X506Y2479D01*
X2259Y2479D02*
X2333Y2479D01*
X137Y2478D02*
X206Y2478D01*
X437Y2478D02*
X506Y2478D01*
X2259Y2478D02*
X2333Y2478D01*
X137Y2477D02*
X169Y2477D01*
X174Y2477D02*
X206Y2477D01*
X437Y2477D02*
X469Y2477D01*
X474Y2477D02*
X506Y2477D01*
X2259Y2477D02*
X2333Y2477D01*
X137Y2476D02*
X165Y2476D01*
X178Y2476D02*
X206Y2476D01*
X437Y2476D02*
X465Y2476D01*
X478Y2476D02*
X506Y2476D01*
X2259Y2476D02*
X2333Y2476D01*
X137Y2475D02*
X163Y2475D01*
X180Y2475D02*
X206Y2475D01*
X437Y2475D02*
X463Y2475D01*
X480Y2475D02*
X506Y2475D01*
X2259Y2475D02*
X2333Y2475D01*
X137Y2474D02*
X161Y2474D01*
X181Y2474D02*
X206Y2474D01*
X437Y2474D02*
X461Y2474D01*
X481Y2474D02*
X506Y2474D01*
X2259Y2474D02*
X2333Y2474D01*
X137Y2473D02*
X160Y2473D01*
X183Y2473D02*
X206Y2473D01*
X437Y2473D02*
X460Y2473D01*
X483Y2473D02*
X506Y2473D01*
X2259Y2473D02*
X2333Y2473D01*
X137Y2472D02*
X159Y2472D01*
X183Y2472D02*
X206Y2472D01*
X437Y2472D02*
X459Y2472D01*
X483Y2472D02*
X506Y2472D01*
X2259Y2472D02*
X2333Y2472D01*
X137Y2471D02*
X159Y2471D01*
X184Y2471D02*
X206Y2471D01*
X437Y2471D02*
X459Y2471D01*
X484Y2471D02*
X506Y2471D01*
X2259Y2471D02*
X2293Y2471D01*
X2299Y2471D02*
X2333Y2471D01*
X137Y2470D02*
X158Y2470D01*
X185Y2470D02*
X206Y2470D01*
X437Y2470D02*
X458Y2470D01*
X485Y2470D02*
X506Y2470D01*
X2259Y2470D02*
X2291Y2470D01*
X2302Y2470D02*
X2333Y2470D01*
X137Y2469D02*
X158Y2469D01*
X185Y2469D02*
X206Y2469D01*
X437Y2469D02*
X457Y2469D01*
X485Y2469D02*
X506Y2469D01*
X2259Y2469D02*
X2290Y2469D01*
X2303Y2469D02*
X2333Y2469D01*
X137Y2468D02*
X157Y2468D01*
X186Y2468D02*
X206Y2468D01*
X437Y2468D02*
X457Y2468D01*
X486Y2468D02*
X506Y2468D01*
X2259Y2468D02*
X2289Y2468D01*
X2304Y2468D02*
X2333Y2468D01*
X137Y2467D02*
X157Y2467D01*
X186Y2467D02*
X206Y2467D01*
X437Y2467D02*
X457Y2467D01*
X486Y2467D02*
X506Y2467D01*
X2259Y2467D02*
X2288Y2467D01*
X2304Y2467D02*
X2333Y2467D01*
X137Y2466D02*
X157Y2466D01*
X186Y2466D02*
X206Y2466D01*
X437Y2466D02*
X457Y2466D01*
X486Y2466D02*
X506Y2466D01*
X2259Y2466D02*
X2288Y2466D01*
X2305Y2466D02*
X2333Y2466D01*
X137Y2465D02*
X156Y2465D01*
X186Y2465D02*
X206Y2465D01*
X437Y2465D02*
X456Y2465D01*
X486Y2465D02*
X506Y2465D01*
X2259Y2465D02*
X2287Y2465D01*
X2305Y2465D02*
X2333Y2465D01*
X137Y2464D02*
X156Y2464D01*
X186Y2464D02*
X206Y2464D01*
X437Y2464D02*
X456Y2464D01*
X486Y2464D02*
X506Y2464D01*
X2259Y2464D02*
X2287Y2464D01*
X2305Y2464D02*
X2333Y2464D01*
X137Y2463D02*
X156Y2463D01*
X187Y2463D02*
X206Y2463D01*
X437Y2463D02*
X456Y2463D01*
X487Y2463D02*
X506Y2463D01*
X2259Y2463D02*
X2287Y2463D01*
X2306Y2463D02*
X2333Y2463D01*
X137Y2462D02*
X156Y2462D01*
X187Y2462D02*
X206Y2462D01*
X437Y2462D02*
X456Y2462D01*
X487Y2462D02*
X506Y2462D01*
X2259Y2462D02*
X2287Y2462D01*
X2306Y2462D02*
X2333Y2462D01*
X137Y2461D02*
X156Y2461D01*
X186Y2461D02*
X206Y2461D01*
X437Y2461D02*
X456Y2461D01*
X486Y2461D02*
X506Y2461D01*
X2259Y2461D02*
X2287Y2461D01*
X2305Y2461D02*
X2333Y2461D01*
X137Y2460D02*
X156Y2460D01*
X186Y2460D02*
X206Y2460D01*
X437Y2460D02*
X456Y2460D01*
X486Y2460D02*
X506Y2460D01*
X2259Y2460D02*
X2287Y2460D01*
X2305Y2460D02*
X2333Y2460D01*
X137Y2459D02*
X157Y2459D01*
X186Y2459D02*
X206Y2459D01*
X437Y2459D02*
X457Y2459D01*
X486Y2459D02*
X506Y2459D01*
X2259Y2459D02*
X2288Y2459D01*
X2305Y2459D02*
X2333Y2459D01*
X137Y2458D02*
X157Y2458D01*
X186Y2458D02*
X206Y2458D01*
X437Y2458D02*
X457Y2458D01*
X486Y2458D02*
X506Y2458D01*
X2259Y2458D02*
X2288Y2458D01*
X2304Y2458D02*
X2333Y2458D01*
X137Y2457D02*
X157Y2457D01*
X186Y2457D02*
X206Y2457D01*
X437Y2457D02*
X457Y2457D01*
X486Y2457D02*
X506Y2457D01*
X2259Y2457D02*
X2289Y2457D01*
X2304Y2457D02*
X2333Y2457D01*
X137Y2456D02*
X158Y2456D01*
X185Y2456D02*
X206Y2456D01*
X437Y2456D02*
X458Y2456D01*
X485Y2456D02*
X506Y2456D01*
X2259Y2456D02*
X2290Y2456D01*
X2303Y2456D02*
X2333Y2456D01*
X137Y2455D02*
X158Y2455D01*
X185Y2455D02*
X206Y2455D01*
X437Y2455D02*
X458Y2455D01*
X485Y2455D02*
X506Y2455D01*
X2259Y2455D02*
X2291Y2455D01*
X2302Y2455D02*
X2333Y2455D01*
X137Y2454D02*
X159Y2454D01*
X184Y2454D02*
X206Y2454D01*
X437Y2454D02*
X459Y2454D01*
X484Y2454D02*
X506Y2454D01*
X2259Y2454D02*
X2293Y2454D01*
X2299Y2454D02*
X2333Y2454D01*
X137Y2453D02*
X159Y2453D01*
X183Y2453D02*
X206Y2453D01*
X437Y2453D02*
X459Y2453D01*
X483Y2453D02*
X506Y2453D01*
X2259Y2453D02*
X2333Y2453D01*
X137Y2452D02*
X160Y2452D01*
X183Y2452D02*
X206Y2452D01*
X437Y2452D02*
X460Y2452D01*
X483Y2452D02*
X506Y2452D01*
X2259Y2452D02*
X2333Y2452D01*
X137Y2451D02*
X161Y2451D01*
X181Y2451D02*
X206Y2451D01*
X437Y2451D02*
X461Y2451D01*
X481Y2451D02*
X506Y2451D01*
X2259Y2451D02*
X2333Y2451D01*
X137Y2450D02*
X163Y2450D01*
X180Y2450D02*
X206Y2450D01*
X437Y2450D02*
X463Y2450D01*
X480Y2450D02*
X506Y2450D01*
X2259Y2450D02*
X2333Y2450D01*
X137Y2449D02*
X165Y2449D01*
X178Y2449D02*
X206Y2449D01*
X437Y2449D02*
X465Y2449D01*
X478Y2449D02*
X506Y2449D01*
X2259Y2449D02*
X2333Y2449D01*
X137Y2448D02*
X169Y2448D01*
X174Y2448D02*
X206Y2448D01*
X437Y2448D02*
X469Y2448D01*
X474Y2448D02*
X506Y2448D01*
X2259Y2448D02*
X2333Y2448D01*
X137Y2447D02*
X206Y2447D01*
X437Y2447D02*
X506Y2447D01*
X2259Y2447D02*
X2333Y2447D01*
X137Y2446D02*
X206Y2446D01*
X437Y2446D02*
X506Y2446D01*
X2259Y2446D02*
X2333Y2446D01*
X137Y2445D02*
X206Y2445D01*
X437Y2445D02*
X506Y2445D01*
X2259Y2445D02*
X2333Y2445D01*
X137Y2444D02*
X206Y2444D01*
X437Y2444D02*
X506Y2444D01*
X2259Y2444D02*
X2333Y2444D01*
X137Y2443D02*
X206Y2443D01*
X437Y2443D02*
X506Y2443D01*
X2259Y2443D02*
X2333Y2443D01*
X137Y2442D02*
X206Y2442D01*
X437Y2442D02*
X506Y2442D01*
X2259Y2442D02*
X2333Y2442D01*
X137Y2441D02*
X206Y2441D01*
X437Y2441D02*
X506Y2441D01*
X2259Y2441D02*
X2333Y2441D01*
X137Y2440D02*
X206Y2440D01*
X437Y2440D02*
X506Y2440D01*
X2259Y2440D02*
X2333Y2440D01*
X137Y2439D02*
X206Y2439D01*
X437Y2439D02*
X506Y2439D01*
X2259Y2439D02*
X2333Y2439D01*
X137Y2438D02*
X206Y2438D01*
X437Y2438D02*
X506Y2438D01*
X2259Y2438D02*
X2333Y2438D01*
X137Y2437D02*
X206Y2437D01*
X437Y2437D02*
X506Y2437D01*
X2259Y2437D02*
X2333Y2437D01*
X137Y2436D02*
X206Y2436D01*
X437Y2436D02*
X506Y2436D01*
X2259Y2436D02*
X2333Y2436D01*
X137Y2435D02*
X206Y2435D01*
X437Y2435D02*
X506Y2435D01*
X2259Y2435D02*
X2333Y2435D01*
X137Y2434D02*
X206Y2434D01*
X437Y2434D02*
X506Y2434D01*
X2259Y2434D02*
X2333Y2434D01*
X137Y2433D02*
X206Y2433D01*
X437Y2433D02*
X506Y2433D01*
X2259Y2433D02*
X2333Y2433D01*
X137Y2432D02*
X206Y2432D01*
X437Y2432D02*
X506Y2432D01*
X2259Y2432D02*
X2333Y2432D01*
X137Y2431D02*
X206Y2431D01*
X437Y2431D02*
X506Y2431D01*
X2259Y2431D02*
X2333Y2431D01*
X137Y2430D02*
X206Y2430D01*
X437Y2430D02*
X506Y2430D01*
X2259Y2430D02*
X2333Y2430D01*
X137Y2429D02*
X206Y2429D01*
X437Y2429D02*
X506Y2429D01*
X2259Y2429D02*
X2333Y2429D01*
X137Y2428D02*
X205Y2428D01*
X437Y2428D02*
X505Y2428D01*
X2259Y2428D02*
X2333Y2428D01*
X2259Y2427D02*
X2333Y2427D01*
X2259Y2426D02*
X2333Y2426D01*
X137Y2297D02*
X205Y2297D01*
X437Y2297D02*
X505Y2297D01*
X137Y2296D02*
X206Y2296D01*
X437Y2296D02*
X506Y2296D01*
X137Y2295D02*
X206Y2295D01*
X437Y2295D02*
X506Y2295D01*
X137Y2294D02*
X206Y2294D01*
X437Y2294D02*
X506Y2294D01*
X137Y2293D02*
X206Y2293D01*
X437Y2293D02*
X506Y2293D01*
X137Y2292D02*
X206Y2292D01*
X437Y2292D02*
X506Y2292D01*
X137Y2291D02*
X206Y2291D01*
X437Y2291D02*
X506Y2291D01*
X137Y2290D02*
X206Y2290D01*
X437Y2290D02*
X506Y2290D01*
X137Y2289D02*
X206Y2289D01*
X437Y2289D02*
X506Y2289D01*
X137Y2288D02*
X206Y2288D01*
X437Y2288D02*
X506Y2288D01*
X137Y2287D02*
X206Y2287D01*
X437Y2287D02*
X506Y2287D01*
X137Y2286D02*
X206Y2286D01*
X437Y2286D02*
X506Y2286D01*
X137Y2285D02*
X206Y2285D01*
X437Y2285D02*
X506Y2285D01*
X137Y2284D02*
X206Y2284D01*
X437Y2284D02*
X506Y2284D01*
X137Y2283D02*
X206Y2283D01*
X437Y2283D02*
X506Y2283D01*
X137Y2282D02*
X206Y2282D01*
X437Y2282D02*
X506Y2282D01*
X137Y2281D02*
X206Y2281D01*
X437Y2281D02*
X506Y2281D01*
X137Y2280D02*
X206Y2280D01*
X437Y2280D02*
X506Y2280D01*
X137Y2279D02*
X206Y2279D01*
X437Y2279D02*
X506Y2279D01*
X137Y2278D02*
X206Y2278D01*
X437Y2278D02*
X506Y2278D01*
X137Y2277D02*
X169Y2277D01*
X174Y2277D02*
X206Y2277D01*
X437Y2277D02*
X469Y2277D01*
X474Y2277D02*
X506Y2277D01*
X137Y2276D02*
X165Y2276D01*
X178Y2276D02*
X206Y2276D01*
X437Y2276D02*
X465Y2276D01*
X478Y2276D02*
X506Y2276D01*
X137Y2275D02*
X163Y2275D01*
X180Y2275D02*
X206Y2275D01*
X437Y2275D02*
X463Y2275D01*
X480Y2275D02*
X506Y2275D01*
X137Y2274D02*
X161Y2274D01*
X181Y2274D02*
X206Y2274D01*
X437Y2274D02*
X461Y2274D01*
X481Y2274D02*
X506Y2274D01*
X137Y2273D02*
X160Y2273D01*
X183Y2273D02*
X206Y2273D01*
X437Y2273D02*
X460Y2273D01*
X483Y2273D02*
X506Y2273D01*
X137Y2272D02*
X159Y2272D01*
X183Y2272D02*
X206Y2272D01*
X437Y2272D02*
X459Y2272D01*
X483Y2272D02*
X506Y2272D01*
X137Y2271D02*
X159Y2271D01*
X184Y2271D02*
X206Y2271D01*
X437Y2271D02*
X459Y2271D01*
X484Y2271D02*
X506Y2271D01*
X137Y2270D02*
X158Y2270D01*
X185Y2270D02*
X206Y2270D01*
X437Y2270D02*
X458Y2270D01*
X485Y2270D02*
X506Y2270D01*
X137Y2269D02*
X158Y2269D01*
X185Y2269D02*
X206Y2269D01*
X437Y2269D02*
X457Y2269D01*
X485Y2269D02*
X506Y2269D01*
X137Y2268D02*
X157Y2268D01*
X186Y2268D02*
X206Y2268D01*
X437Y2268D02*
X457Y2268D01*
X486Y2268D02*
X506Y2268D01*
X137Y2267D02*
X157Y2267D01*
X186Y2267D02*
X206Y2267D01*
X437Y2267D02*
X457Y2267D01*
X486Y2267D02*
X506Y2267D01*
X137Y2266D02*
X157Y2266D01*
X186Y2266D02*
X206Y2266D01*
X437Y2266D02*
X457Y2266D01*
X486Y2266D02*
X506Y2266D01*
X137Y2265D02*
X156Y2265D01*
X186Y2265D02*
X206Y2265D01*
X437Y2265D02*
X456Y2265D01*
X486Y2265D02*
X506Y2265D01*
X137Y2264D02*
X156Y2264D01*
X186Y2264D02*
X206Y2264D01*
X437Y2264D02*
X456Y2264D01*
X486Y2264D02*
X506Y2264D01*
X137Y2263D02*
X156Y2263D01*
X187Y2263D02*
X206Y2263D01*
X437Y2263D02*
X456Y2263D01*
X487Y2263D02*
X506Y2263D01*
X137Y2262D02*
X156Y2262D01*
X187Y2262D02*
X206Y2262D01*
X437Y2262D02*
X456Y2262D01*
X487Y2262D02*
X506Y2262D01*
X137Y2261D02*
X156Y2261D01*
X186Y2261D02*
X206Y2261D01*
X437Y2261D02*
X456Y2261D01*
X486Y2261D02*
X506Y2261D01*
X137Y2260D02*
X156Y2260D01*
X186Y2260D02*
X206Y2260D01*
X437Y2260D02*
X456Y2260D01*
X486Y2260D02*
X506Y2260D01*
X137Y2259D02*
X157Y2259D01*
X186Y2259D02*
X206Y2259D01*
X437Y2259D02*
X457Y2259D01*
X486Y2259D02*
X506Y2259D01*
X137Y2258D02*
X157Y2258D01*
X186Y2258D02*
X206Y2258D01*
X437Y2258D02*
X457Y2258D01*
X486Y2258D02*
X506Y2258D01*
X137Y2257D02*
X157Y2257D01*
X186Y2257D02*
X206Y2257D01*
X437Y2257D02*
X457Y2257D01*
X486Y2257D02*
X506Y2257D01*
X137Y2256D02*
X158Y2256D01*
X185Y2256D02*
X206Y2256D01*
X437Y2256D02*
X458Y2256D01*
X485Y2256D02*
X506Y2256D01*
X137Y2255D02*
X158Y2255D01*
X185Y2255D02*
X206Y2255D01*
X437Y2255D02*
X458Y2255D01*
X485Y2255D02*
X506Y2255D01*
X137Y2254D02*
X159Y2254D01*
X184Y2254D02*
X206Y2254D01*
X437Y2254D02*
X459Y2254D01*
X484Y2254D02*
X506Y2254D01*
X137Y2253D02*
X159Y2253D01*
X183Y2253D02*
X206Y2253D01*
X437Y2253D02*
X459Y2253D01*
X483Y2253D02*
X506Y2253D01*
X137Y2252D02*
X160Y2252D01*
X183Y2252D02*
X206Y2252D01*
X437Y2252D02*
X460Y2252D01*
X483Y2252D02*
X506Y2252D01*
X137Y2251D02*
X161Y2251D01*
X181Y2251D02*
X206Y2251D01*
X437Y2251D02*
X461Y2251D01*
X481Y2251D02*
X506Y2251D01*
X137Y2250D02*
X163Y2250D01*
X180Y2250D02*
X206Y2250D01*
X437Y2250D02*
X463Y2250D01*
X480Y2250D02*
X506Y2250D01*
X137Y2249D02*
X165Y2249D01*
X178Y2249D02*
X206Y2249D01*
X437Y2249D02*
X465Y2249D01*
X478Y2249D02*
X506Y2249D01*
X137Y2248D02*
X169Y2248D01*
X174Y2248D02*
X206Y2248D01*
X437Y2248D02*
X469Y2248D01*
X474Y2248D02*
X506Y2248D01*
X137Y2247D02*
X206Y2247D01*
X437Y2247D02*
X506Y2247D01*
X137Y2246D02*
X206Y2246D01*
X437Y2246D02*
X506Y2246D01*
X137Y2245D02*
X206Y2245D01*
X437Y2245D02*
X506Y2245D01*
X137Y2244D02*
X206Y2244D01*
X437Y2244D02*
X506Y2244D01*
X137Y2243D02*
X206Y2243D01*
X437Y2243D02*
X506Y2243D01*
X137Y2242D02*
X206Y2242D01*
X437Y2242D02*
X506Y2242D01*
X137Y2241D02*
X206Y2241D01*
X437Y2241D02*
X506Y2241D01*
X137Y2240D02*
X206Y2240D01*
X437Y2240D02*
X506Y2240D01*
X137Y2239D02*
X206Y2239D01*
X437Y2239D02*
X506Y2239D01*
X137Y2238D02*
X206Y2238D01*
X437Y2238D02*
X506Y2238D01*
X137Y2237D02*
X206Y2237D01*
X437Y2237D02*
X506Y2237D01*
X137Y2236D02*
X206Y2236D01*
X437Y2236D02*
X506Y2236D01*
X137Y2235D02*
X206Y2235D01*
X437Y2235D02*
X506Y2235D01*
X137Y2234D02*
X206Y2234D01*
X437Y2234D02*
X506Y2234D01*
X137Y2233D02*
X206Y2233D01*
X437Y2233D02*
X506Y2233D01*
X137Y2232D02*
X206Y2232D01*
X437Y2232D02*
X506Y2232D01*
X137Y2231D02*
X206Y2231D01*
X437Y2231D02*
X506Y2231D01*
X137Y2230D02*
X206Y2230D01*
X437Y2230D02*
X506Y2230D01*
X137Y2229D02*
X206Y2229D01*
X437Y2229D02*
X506Y2229D01*
X137Y2228D02*
X205Y2228D01*
X437Y2228D02*
X505Y2228D01*
X2275Y1859D02*
X2343Y1859D01*
X2475Y1859D02*
X2543Y1859D01*
X2587Y1859D02*
X2655Y1859D01*
X2787Y1859D02*
X2855Y1859D01*
X2275Y1858D02*
X2343Y1858D01*
X2475Y1858D02*
X2543Y1858D01*
X2587Y1858D02*
X2655Y1858D01*
X2787Y1858D02*
X2855Y1858D01*
X2275Y1857D02*
X2343Y1857D01*
X2475Y1857D02*
X2543Y1857D01*
X2587Y1857D02*
X2655Y1857D01*
X2787Y1857D02*
X2855Y1857D01*
X2275Y1856D02*
X2343Y1856D01*
X2475Y1856D02*
X2543Y1856D01*
X2587Y1856D02*
X2655Y1856D01*
X2787Y1856D02*
X2855Y1856D01*
X2275Y1855D02*
X2343Y1855D01*
X2475Y1855D02*
X2543Y1855D01*
X2587Y1855D02*
X2655Y1855D01*
X2787Y1855D02*
X2855Y1855D01*
X2275Y1854D02*
X2343Y1854D01*
X2475Y1854D02*
X2543Y1854D01*
X2587Y1854D02*
X2655Y1854D01*
X2787Y1854D02*
X2855Y1854D01*
X2275Y1853D02*
X2343Y1853D01*
X2475Y1853D02*
X2543Y1853D01*
X2587Y1853D02*
X2655Y1853D01*
X2787Y1853D02*
X2855Y1853D01*
X2275Y1852D02*
X2343Y1852D01*
X2475Y1852D02*
X2543Y1852D01*
X2587Y1852D02*
X2655Y1852D01*
X2787Y1852D02*
X2855Y1852D01*
X2275Y1851D02*
X2343Y1851D01*
X2475Y1851D02*
X2543Y1851D01*
X2587Y1851D02*
X2655Y1851D01*
X2787Y1851D02*
X2855Y1851D01*
X2275Y1850D02*
X2343Y1850D01*
X2475Y1850D02*
X2543Y1850D01*
X2587Y1850D02*
X2655Y1850D01*
X2787Y1850D02*
X2855Y1850D01*
X2275Y1849D02*
X2343Y1849D01*
X2475Y1849D02*
X2543Y1849D01*
X2587Y1849D02*
X2655Y1849D01*
X2787Y1849D02*
X2855Y1849D01*
X2275Y1848D02*
X2343Y1848D01*
X2475Y1848D02*
X2543Y1848D01*
X2587Y1848D02*
X2655Y1848D01*
X2787Y1848D02*
X2855Y1848D01*
X2275Y1847D02*
X2343Y1847D01*
X2475Y1847D02*
X2543Y1847D01*
X2587Y1847D02*
X2655Y1847D01*
X2787Y1847D02*
X2855Y1847D01*
X2275Y1846D02*
X2343Y1846D01*
X2475Y1846D02*
X2543Y1846D01*
X2587Y1846D02*
X2655Y1846D01*
X2787Y1846D02*
X2855Y1846D01*
X2275Y1845D02*
X2343Y1845D01*
X2475Y1845D02*
X2543Y1845D01*
X2587Y1845D02*
X2655Y1845D01*
X2787Y1845D02*
X2855Y1845D01*
X2275Y1844D02*
X2343Y1844D01*
X2475Y1844D02*
X2543Y1844D01*
X2587Y1844D02*
X2655Y1844D01*
X2787Y1844D02*
X2855Y1844D01*
X2275Y1843D02*
X2343Y1843D01*
X2475Y1843D02*
X2543Y1843D01*
X2587Y1843D02*
X2655Y1843D01*
X2787Y1843D02*
X2855Y1843D01*
X2275Y1842D02*
X2343Y1842D01*
X2475Y1842D02*
X2543Y1842D01*
X2587Y1842D02*
X2655Y1842D01*
X2787Y1842D02*
X2855Y1842D01*
X2275Y1841D02*
X2343Y1841D01*
X2475Y1841D02*
X2543Y1841D01*
X2587Y1841D02*
X2655Y1841D01*
X2787Y1841D02*
X2855Y1841D01*
X2275Y1840D02*
X2343Y1840D01*
X2475Y1840D02*
X2543Y1840D01*
X2587Y1840D02*
X2655Y1840D01*
X2787Y1840D02*
X2855Y1840D01*
X2275Y1839D02*
X2304Y1839D01*
X2314Y1839D02*
X2343Y1839D01*
X2475Y1839D02*
X2503Y1839D01*
X2514Y1839D02*
X2543Y1839D01*
X2587Y1839D02*
X2616Y1839D01*
X2626Y1839D02*
X2655Y1839D01*
X2787Y1839D02*
X2816Y1839D01*
X2826Y1839D02*
X2855Y1839D01*
X2275Y1838D02*
X2301Y1838D01*
X2316Y1838D02*
X2343Y1838D01*
X2475Y1838D02*
X2501Y1838D01*
X2516Y1838D02*
X2543Y1838D01*
X2587Y1838D02*
X2613Y1838D01*
X2629Y1838D02*
X2655Y1838D01*
X2787Y1838D02*
X2813Y1838D01*
X2829Y1838D02*
X2855Y1838D01*
X2275Y1837D02*
X2299Y1837D01*
X2318Y1837D02*
X2343Y1837D01*
X2475Y1837D02*
X2499Y1837D01*
X2518Y1837D02*
X2543Y1837D01*
X2587Y1837D02*
X2612Y1837D01*
X2631Y1837D02*
X2655Y1837D01*
X2787Y1837D02*
X2812Y1837D01*
X2831Y1837D02*
X2855Y1837D01*
X2275Y1836D02*
X2298Y1836D01*
X2319Y1836D02*
X2343Y1836D01*
X2475Y1836D02*
X2498Y1836D01*
X2519Y1836D02*
X2543Y1836D01*
X2587Y1836D02*
X2610Y1836D01*
X2632Y1836D02*
X2655Y1836D01*
X2787Y1836D02*
X2810Y1836D01*
X2832Y1836D02*
X2855Y1836D01*
X2275Y1835D02*
X2297Y1835D01*
X2320Y1835D02*
X2343Y1835D01*
X2475Y1835D02*
X2497Y1835D01*
X2520Y1835D02*
X2543Y1835D01*
X2587Y1835D02*
X2610Y1835D01*
X2633Y1835D02*
X2655Y1835D01*
X2787Y1835D02*
X2810Y1835D01*
X2833Y1835D02*
X2855Y1835D01*
X2275Y1834D02*
X2296Y1834D01*
X2321Y1834D02*
X2343Y1834D01*
X2475Y1834D02*
X2496Y1834D01*
X2521Y1834D02*
X2543Y1834D01*
X2587Y1834D02*
X2609Y1834D01*
X2634Y1834D02*
X2655Y1834D01*
X2787Y1834D02*
X2809Y1834D01*
X2834Y1834D02*
X2855Y1834D01*
X2275Y1833D02*
X2296Y1833D01*
X2322Y1833D02*
X2343Y1833D01*
X2475Y1833D02*
X2496Y1833D01*
X2522Y1833D02*
X2543Y1833D01*
X2587Y1833D02*
X2608Y1833D01*
X2634Y1833D02*
X2655Y1833D01*
X2787Y1833D02*
X2808Y1833D01*
X2834Y1833D02*
X2855Y1833D01*
X2275Y1832D02*
X2295Y1832D01*
X2322Y1832D02*
X2343Y1832D01*
X2475Y1832D02*
X2495Y1832D01*
X2522Y1832D02*
X2543Y1832D01*
X2587Y1832D02*
X2608Y1832D01*
X2635Y1832D02*
X2655Y1832D01*
X2787Y1832D02*
X2808Y1832D01*
X2835Y1832D02*
X2855Y1832D01*
X2275Y1831D02*
X2295Y1831D01*
X2323Y1831D02*
X2343Y1831D01*
X2475Y1831D02*
X2495Y1831D01*
X2523Y1831D02*
X2543Y1831D01*
X2587Y1831D02*
X2607Y1831D01*
X2635Y1831D02*
X2655Y1831D01*
X2787Y1831D02*
X2807Y1831D01*
X2835Y1831D02*
X2855Y1831D01*
X2275Y1830D02*
X2294Y1830D01*
X2323Y1830D02*
X2343Y1830D01*
X2475Y1830D02*
X2494Y1830D01*
X2523Y1830D02*
X2543Y1830D01*
X2587Y1830D02*
X2607Y1830D01*
X2636Y1830D02*
X2655Y1830D01*
X2787Y1830D02*
X2807Y1830D01*
X2836Y1830D02*
X2855Y1830D01*
X2275Y1829D02*
X2294Y1829D01*
X2323Y1829D02*
X2343Y1829D01*
X2475Y1829D02*
X2494Y1829D01*
X2523Y1829D02*
X2543Y1829D01*
X2587Y1829D02*
X2606Y1829D01*
X2636Y1829D02*
X2655Y1829D01*
X2787Y1829D02*
X2806Y1829D01*
X2836Y1829D02*
X2855Y1829D01*
X2275Y1828D02*
X2294Y1828D01*
X2324Y1828D02*
X2343Y1828D01*
X2475Y1828D02*
X2494Y1828D01*
X2524Y1828D02*
X2543Y1828D01*
X2587Y1828D02*
X2606Y1828D01*
X2636Y1828D02*
X2655Y1828D01*
X2787Y1828D02*
X2806Y1828D01*
X2836Y1828D02*
X2855Y1828D01*
X2275Y1827D02*
X2294Y1827D01*
X2324Y1827D02*
X2343Y1827D01*
X2475Y1827D02*
X2494Y1827D01*
X2524Y1827D02*
X2543Y1827D01*
X2587Y1827D02*
X2606Y1827D01*
X2636Y1827D02*
X2655Y1827D01*
X2787Y1827D02*
X2806Y1827D01*
X2836Y1827D02*
X2855Y1827D01*
X2275Y1826D02*
X2294Y1826D01*
X2324Y1826D02*
X2343Y1826D01*
X2475Y1826D02*
X2494Y1826D01*
X2524Y1826D02*
X2543Y1826D01*
X2587Y1826D02*
X2606Y1826D01*
X2636Y1826D02*
X2655Y1826D01*
X2787Y1826D02*
X2806Y1826D01*
X2836Y1826D02*
X2855Y1826D01*
X2275Y1825D02*
X2294Y1825D01*
X2324Y1825D02*
X2343Y1825D01*
X2475Y1825D02*
X2494Y1825D01*
X2524Y1825D02*
X2543Y1825D01*
X2587Y1825D02*
X2606Y1825D01*
X2636Y1825D02*
X2655Y1825D01*
X2787Y1825D02*
X2806Y1825D01*
X2836Y1825D02*
X2855Y1825D01*
X2275Y1824D02*
X2294Y1824D01*
X2324Y1824D02*
X2343Y1824D01*
X2475Y1824D02*
X2494Y1824D01*
X2524Y1824D02*
X2543Y1824D01*
X2587Y1824D02*
X2606Y1824D01*
X2636Y1824D02*
X2655Y1824D01*
X2787Y1824D02*
X2806Y1824D01*
X2836Y1824D02*
X2855Y1824D01*
X2275Y1823D02*
X2294Y1823D01*
X2324Y1823D02*
X2343Y1823D01*
X2475Y1823D02*
X2494Y1823D01*
X2524Y1823D02*
X2543Y1823D01*
X2587Y1823D02*
X2606Y1823D01*
X2636Y1823D02*
X2655Y1823D01*
X2787Y1823D02*
X2806Y1823D01*
X2836Y1823D02*
X2855Y1823D01*
X2275Y1822D02*
X2294Y1822D01*
X2324Y1822D02*
X2343Y1822D01*
X2475Y1822D02*
X2494Y1822D01*
X2524Y1822D02*
X2543Y1822D01*
X2587Y1822D02*
X2606Y1822D01*
X2636Y1822D02*
X2655Y1822D01*
X2787Y1822D02*
X2806Y1822D01*
X2836Y1822D02*
X2855Y1822D01*
X2275Y1821D02*
X2294Y1821D01*
X2323Y1821D02*
X2343Y1821D01*
X2475Y1821D02*
X2494Y1821D01*
X2523Y1821D02*
X2543Y1821D01*
X2587Y1821D02*
X2607Y1821D01*
X2636Y1821D02*
X2655Y1821D01*
X2787Y1821D02*
X2806Y1821D01*
X2836Y1821D02*
X2855Y1821D01*
X2275Y1820D02*
X2294Y1820D01*
X2323Y1820D02*
X2343Y1820D01*
X2475Y1820D02*
X2494Y1820D01*
X2523Y1820D02*
X2543Y1820D01*
X2587Y1820D02*
X2607Y1820D01*
X2636Y1820D02*
X2655Y1820D01*
X2787Y1820D02*
X2807Y1820D01*
X2836Y1820D02*
X2855Y1820D01*
X2275Y1819D02*
X2295Y1819D01*
X2323Y1819D02*
X2343Y1819D01*
X2475Y1819D02*
X2495Y1819D01*
X2523Y1819D02*
X2543Y1819D01*
X2587Y1819D02*
X2607Y1819D01*
X2635Y1819D02*
X2655Y1819D01*
X2787Y1819D02*
X2807Y1819D01*
X2835Y1819D02*
X2855Y1819D01*
X2275Y1818D02*
X2295Y1818D01*
X2322Y1818D02*
X2343Y1818D01*
X2475Y1818D02*
X2495Y1818D01*
X2522Y1818D02*
X2543Y1818D01*
X2587Y1818D02*
X2608Y1818D01*
X2635Y1818D02*
X2655Y1818D01*
X2787Y1818D02*
X2808Y1818D01*
X2835Y1818D02*
X2855Y1818D01*
X2275Y1817D02*
X2296Y1817D01*
X2322Y1817D02*
X2343Y1817D01*
X2475Y1817D02*
X2496Y1817D01*
X2522Y1817D02*
X2543Y1817D01*
X2587Y1817D02*
X2608Y1817D01*
X2634Y1817D02*
X2655Y1817D01*
X2787Y1817D02*
X2808Y1817D01*
X2834Y1817D02*
X2855Y1817D01*
X2275Y1816D02*
X2296Y1816D01*
X2321Y1816D02*
X2343Y1816D01*
X2475Y1816D02*
X2496Y1816D01*
X2521Y1816D02*
X2543Y1816D01*
X2587Y1816D02*
X2609Y1816D01*
X2634Y1816D02*
X2655Y1816D01*
X2787Y1816D02*
X2809Y1816D01*
X2834Y1816D02*
X2855Y1816D01*
X2275Y1815D02*
X2297Y1815D01*
X2320Y1815D02*
X2343Y1815D01*
X2475Y1815D02*
X2497Y1815D01*
X2520Y1815D02*
X2543Y1815D01*
X2587Y1815D02*
X2610Y1815D01*
X2633Y1815D02*
X2655Y1815D01*
X2787Y1815D02*
X2810Y1815D01*
X2833Y1815D02*
X2855Y1815D01*
X2275Y1814D02*
X2298Y1814D01*
X2319Y1814D02*
X2343Y1814D01*
X2475Y1814D02*
X2498Y1814D01*
X2519Y1814D02*
X2543Y1814D01*
X2587Y1814D02*
X2611Y1814D01*
X2632Y1814D02*
X2655Y1814D01*
X2787Y1814D02*
X2810Y1814D01*
X2832Y1814D02*
X2855Y1814D01*
X2275Y1813D02*
X2299Y1813D01*
X2318Y1813D02*
X2343Y1813D01*
X2475Y1813D02*
X2499Y1813D01*
X2518Y1813D02*
X2543Y1813D01*
X2587Y1813D02*
X2612Y1813D01*
X2631Y1813D02*
X2655Y1813D01*
X2787Y1813D02*
X2812Y1813D01*
X2831Y1813D02*
X2855Y1813D01*
X2275Y1812D02*
X2301Y1812D01*
X2316Y1812D02*
X2343Y1812D01*
X2475Y1812D02*
X2501Y1812D01*
X2516Y1812D02*
X2543Y1812D01*
X2587Y1812D02*
X2613Y1812D01*
X2629Y1812D02*
X2655Y1812D01*
X2787Y1812D02*
X2813Y1812D01*
X2829Y1812D02*
X2855Y1812D01*
X2275Y1811D02*
X2304Y1811D01*
X2314Y1811D02*
X2343Y1811D01*
X2475Y1811D02*
X2504Y1811D01*
X2514Y1811D02*
X2543Y1811D01*
X2587Y1811D02*
X2616Y1811D01*
X2626Y1811D02*
X2655Y1811D01*
X2787Y1811D02*
X2816Y1811D01*
X2826Y1811D02*
X2855Y1811D01*
X2275Y1810D02*
X2343Y1810D01*
X2475Y1810D02*
X2543Y1810D01*
X2587Y1810D02*
X2655Y1810D01*
X2787Y1810D02*
X2855Y1810D01*
X2275Y1809D02*
X2343Y1809D01*
X2475Y1809D02*
X2543Y1809D01*
X2587Y1809D02*
X2655Y1809D01*
X2787Y1809D02*
X2855Y1809D01*
X2275Y1808D02*
X2343Y1808D01*
X2475Y1808D02*
X2543Y1808D01*
X2587Y1808D02*
X2655Y1808D01*
X2787Y1808D02*
X2855Y1808D01*
X2275Y1807D02*
X2343Y1807D01*
X2475Y1807D02*
X2543Y1807D01*
X2587Y1807D02*
X2655Y1807D01*
X2787Y1807D02*
X2855Y1807D01*
X2275Y1806D02*
X2343Y1806D01*
X2475Y1806D02*
X2543Y1806D01*
X2587Y1806D02*
X2655Y1806D01*
X2787Y1806D02*
X2855Y1806D01*
X2275Y1805D02*
X2343Y1805D01*
X2475Y1805D02*
X2543Y1805D01*
X2587Y1805D02*
X2655Y1805D01*
X2787Y1805D02*
X2855Y1805D01*
X2275Y1804D02*
X2343Y1804D01*
X2475Y1804D02*
X2543Y1804D01*
X2587Y1804D02*
X2655Y1804D01*
X2787Y1804D02*
X2855Y1804D01*
X2275Y1803D02*
X2343Y1803D01*
X2475Y1803D02*
X2543Y1803D01*
X2587Y1803D02*
X2655Y1803D01*
X2787Y1803D02*
X2855Y1803D01*
X2275Y1802D02*
X2343Y1802D01*
X2475Y1802D02*
X2543Y1802D01*
X2587Y1802D02*
X2655Y1802D01*
X2787Y1802D02*
X2855Y1802D01*
X2275Y1801D02*
X2343Y1801D01*
X2475Y1801D02*
X2543Y1801D01*
X2587Y1801D02*
X2655Y1801D01*
X2787Y1801D02*
X2855Y1801D01*
X2275Y1800D02*
X2343Y1800D01*
X2475Y1800D02*
X2543Y1800D01*
X2587Y1800D02*
X2655Y1800D01*
X2787Y1800D02*
X2855Y1800D01*
X2275Y1799D02*
X2343Y1799D01*
X2475Y1799D02*
X2543Y1799D01*
X2587Y1799D02*
X2655Y1799D01*
X2787Y1799D02*
X2855Y1799D01*
X2275Y1798D02*
X2343Y1798D01*
X2475Y1798D02*
X2543Y1798D01*
X2587Y1798D02*
X2655Y1798D01*
X2787Y1798D02*
X2855Y1798D01*
X2275Y1797D02*
X2343Y1797D01*
X2475Y1797D02*
X2543Y1797D01*
X2587Y1797D02*
X2655Y1797D01*
X2787Y1797D02*
X2855Y1797D01*
X2275Y1796D02*
X2343Y1796D01*
X2475Y1796D02*
X2543Y1796D01*
X2587Y1796D02*
X2655Y1796D01*
X2787Y1796D02*
X2855Y1796D01*
X2275Y1795D02*
X2343Y1795D01*
X2475Y1795D02*
X2543Y1795D01*
X2587Y1795D02*
X2655Y1795D01*
X2787Y1795D02*
X2855Y1795D01*
X2275Y1794D02*
X2343Y1794D01*
X2475Y1794D02*
X2543Y1794D01*
X2587Y1794D02*
X2655Y1794D01*
X2787Y1794D02*
X2855Y1794D01*
X2275Y1793D02*
X2343Y1793D01*
X2475Y1793D02*
X2543Y1793D01*
X2587Y1793D02*
X2655Y1793D01*
X2787Y1793D02*
X2855Y1793D01*
X2275Y1792D02*
X2343Y1792D01*
X2475Y1792D02*
X2543Y1792D01*
X2587Y1792D02*
X2655Y1792D01*
X2787Y1792D02*
X2855Y1792D01*
X2275Y1791D02*
X2343Y1791D01*
X2475Y1791D02*
X2543Y1791D01*
X2587Y1791D02*
X2655Y1791D01*
X2787Y1791D02*
X2855Y1791D01*
X2275Y1559D02*
X2343Y1559D01*
X2475Y1559D02*
X2543Y1559D01*
X2587Y1559D02*
X2655Y1559D01*
X2787Y1559D02*
X2855Y1559D01*
X2275Y1558D02*
X2343Y1558D01*
X2475Y1558D02*
X2543Y1558D01*
X2587Y1558D02*
X2655Y1558D01*
X2787Y1558D02*
X2855Y1558D01*
X2275Y1557D02*
X2343Y1557D01*
X2475Y1557D02*
X2543Y1557D01*
X2587Y1557D02*
X2655Y1557D01*
X2787Y1557D02*
X2855Y1557D01*
X2275Y1556D02*
X2343Y1556D01*
X2475Y1556D02*
X2543Y1556D01*
X2587Y1556D02*
X2655Y1556D01*
X2787Y1556D02*
X2855Y1556D01*
X2275Y1555D02*
X2343Y1555D01*
X2475Y1555D02*
X2543Y1555D01*
X2587Y1555D02*
X2655Y1555D01*
X2787Y1555D02*
X2855Y1555D01*
X2275Y1554D02*
X2343Y1554D01*
X2475Y1554D02*
X2543Y1554D01*
X2587Y1554D02*
X2655Y1554D01*
X2787Y1554D02*
X2855Y1554D01*
X2275Y1553D02*
X2343Y1553D01*
X2475Y1553D02*
X2543Y1553D01*
X2587Y1553D02*
X2655Y1553D01*
X2787Y1553D02*
X2855Y1553D01*
X2275Y1552D02*
X2343Y1552D01*
X2475Y1552D02*
X2543Y1552D01*
X2587Y1552D02*
X2655Y1552D01*
X2787Y1552D02*
X2855Y1552D01*
X2275Y1551D02*
X2343Y1551D01*
X2475Y1551D02*
X2543Y1551D01*
X2587Y1551D02*
X2655Y1551D01*
X2787Y1551D02*
X2855Y1551D01*
X2275Y1550D02*
X2343Y1550D01*
X2475Y1550D02*
X2543Y1550D01*
X2587Y1550D02*
X2655Y1550D01*
X2787Y1550D02*
X2855Y1550D01*
X2275Y1549D02*
X2343Y1549D01*
X2475Y1549D02*
X2543Y1549D01*
X2587Y1549D02*
X2655Y1549D01*
X2787Y1549D02*
X2855Y1549D01*
X2275Y1548D02*
X2343Y1548D01*
X2475Y1548D02*
X2543Y1548D01*
X2587Y1548D02*
X2655Y1548D01*
X2787Y1548D02*
X2855Y1548D01*
X2275Y1547D02*
X2343Y1547D01*
X2475Y1547D02*
X2543Y1547D01*
X2587Y1547D02*
X2655Y1547D01*
X2787Y1547D02*
X2855Y1547D01*
X2275Y1546D02*
X2343Y1546D01*
X2475Y1546D02*
X2543Y1546D01*
X2587Y1546D02*
X2655Y1546D01*
X2787Y1546D02*
X2855Y1546D01*
X2275Y1545D02*
X2343Y1545D01*
X2475Y1545D02*
X2543Y1545D01*
X2587Y1545D02*
X2655Y1545D01*
X2787Y1545D02*
X2855Y1545D01*
X2275Y1544D02*
X2343Y1544D01*
X2475Y1544D02*
X2543Y1544D01*
X2587Y1544D02*
X2655Y1544D01*
X2787Y1544D02*
X2855Y1544D01*
X2275Y1543D02*
X2343Y1543D01*
X2475Y1543D02*
X2543Y1543D01*
X2587Y1543D02*
X2655Y1543D01*
X2787Y1543D02*
X2855Y1543D01*
X2275Y1542D02*
X2343Y1542D01*
X2475Y1542D02*
X2543Y1542D01*
X2587Y1542D02*
X2655Y1542D01*
X2787Y1542D02*
X2855Y1542D01*
X2275Y1541D02*
X2343Y1541D01*
X2475Y1541D02*
X2543Y1541D01*
X2587Y1541D02*
X2655Y1541D01*
X2787Y1541D02*
X2855Y1541D01*
X2275Y1540D02*
X2343Y1540D01*
X2475Y1540D02*
X2543Y1540D01*
X2587Y1540D02*
X2655Y1540D01*
X2787Y1540D02*
X2855Y1540D01*
X2275Y1539D02*
X2304Y1539D01*
X2314Y1539D02*
X2343Y1539D01*
X2475Y1539D02*
X2503Y1539D01*
X2514Y1539D02*
X2543Y1539D01*
X2587Y1539D02*
X2616Y1539D01*
X2626Y1539D02*
X2655Y1539D01*
X2787Y1539D02*
X2816Y1539D01*
X2826Y1539D02*
X2855Y1539D01*
X2275Y1538D02*
X2301Y1538D01*
X2316Y1538D02*
X2343Y1538D01*
X2475Y1538D02*
X2501Y1538D01*
X2516Y1538D02*
X2543Y1538D01*
X2587Y1538D02*
X2613Y1538D01*
X2629Y1538D02*
X2655Y1538D01*
X2787Y1538D02*
X2813Y1538D01*
X2829Y1538D02*
X2855Y1538D01*
X2275Y1537D02*
X2299Y1537D01*
X2318Y1537D02*
X2343Y1537D01*
X2475Y1537D02*
X2499Y1537D01*
X2518Y1537D02*
X2543Y1537D01*
X2587Y1537D02*
X2612Y1537D01*
X2631Y1537D02*
X2655Y1537D01*
X2787Y1537D02*
X2812Y1537D01*
X2831Y1537D02*
X2855Y1537D01*
X2275Y1536D02*
X2298Y1536D01*
X2319Y1536D02*
X2343Y1536D01*
X2475Y1536D02*
X2498Y1536D01*
X2519Y1536D02*
X2543Y1536D01*
X2587Y1536D02*
X2610Y1536D01*
X2632Y1536D02*
X2655Y1536D01*
X2787Y1536D02*
X2810Y1536D01*
X2832Y1536D02*
X2855Y1536D01*
X2275Y1535D02*
X2297Y1535D01*
X2320Y1535D02*
X2343Y1535D01*
X2475Y1535D02*
X2497Y1535D01*
X2520Y1535D02*
X2543Y1535D01*
X2587Y1535D02*
X2610Y1535D01*
X2633Y1535D02*
X2655Y1535D01*
X2787Y1535D02*
X2810Y1535D01*
X2833Y1535D02*
X2855Y1535D01*
X2275Y1534D02*
X2296Y1534D01*
X2321Y1534D02*
X2343Y1534D01*
X2475Y1534D02*
X2496Y1534D01*
X2521Y1534D02*
X2543Y1534D01*
X2587Y1534D02*
X2609Y1534D01*
X2634Y1534D02*
X2655Y1534D01*
X2787Y1534D02*
X2809Y1534D01*
X2834Y1534D02*
X2855Y1534D01*
X2275Y1533D02*
X2296Y1533D01*
X2322Y1533D02*
X2343Y1533D01*
X2475Y1533D02*
X2496Y1533D01*
X2522Y1533D02*
X2543Y1533D01*
X2587Y1533D02*
X2608Y1533D01*
X2634Y1533D02*
X2655Y1533D01*
X2787Y1533D02*
X2808Y1533D01*
X2834Y1533D02*
X2855Y1533D01*
X2275Y1532D02*
X2295Y1532D01*
X2322Y1532D02*
X2343Y1532D01*
X2475Y1532D02*
X2495Y1532D01*
X2522Y1532D02*
X2543Y1532D01*
X2587Y1532D02*
X2608Y1532D01*
X2635Y1532D02*
X2655Y1532D01*
X2787Y1532D02*
X2808Y1532D01*
X2835Y1532D02*
X2855Y1532D01*
X2275Y1531D02*
X2295Y1531D01*
X2323Y1531D02*
X2343Y1531D01*
X2475Y1531D02*
X2495Y1531D01*
X2523Y1531D02*
X2543Y1531D01*
X2587Y1531D02*
X2607Y1531D01*
X2635Y1531D02*
X2655Y1531D01*
X2787Y1531D02*
X2807Y1531D01*
X2835Y1531D02*
X2855Y1531D01*
X2275Y1530D02*
X2294Y1530D01*
X2323Y1530D02*
X2343Y1530D01*
X2475Y1530D02*
X2494Y1530D01*
X2523Y1530D02*
X2543Y1530D01*
X2587Y1530D02*
X2607Y1530D01*
X2636Y1530D02*
X2655Y1530D01*
X2787Y1530D02*
X2807Y1530D01*
X2836Y1530D02*
X2855Y1530D01*
X2275Y1529D02*
X2294Y1529D01*
X2323Y1529D02*
X2343Y1529D01*
X2475Y1529D02*
X2494Y1529D01*
X2523Y1529D02*
X2543Y1529D01*
X2587Y1529D02*
X2606Y1529D01*
X2636Y1529D02*
X2655Y1529D01*
X2787Y1529D02*
X2806Y1529D01*
X2836Y1529D02*
X2855Y1529D01*
X2275Y1528D02*
X2294Y1528D01*
X2324Y1528D02*
X2343Y1528D01*
X2475Y1528D02*
X2494Y1528D01*
X2524Y1528D02*
X2543Y1528D01*
X2587Y1528D02*
X2606Y1528D01*
X2636Y1528D02*
X2655Y1528D01*
X2787Y1528D02*
X2806Y1528D01*
X2836Y1528D02*
X2855Y1528D01*
X2275Y1527D02*
X2294Y1527D01*
X2324Y1527D02*
X2343Y1527D01*
X2475Y1527D02*
X2494Y1527D01*
X2524Y1527D02*
X2543Y1527D01*
X2587Y1527D02*
X2606Y1527D01*
X2636Y1527D02*
X2655Y1527D01*
X2787Y1527D02*
X2806Y1527D01*
X2836Y1527D02*
X2855Y1527D01*
X2275Y1526D02*
X2294Y1526D01*
X2324Y1526D02*
X2343Y1526D01*
X2475Y1526D02*
X2494Y1526D01*
X2524Y1526D02*
X2543Y1526D01*
X2587Y1526D02*
X2606Y1526D01*
X2636Y1526D02*
X2655Y1526D01*
X2787Y1526D02*
X2806Y1526D01*
X2836Y1526D02*
X2855Y1526D01*
X2275Y1525D02*
X2294Y1525D01*
X2324Y1525D02*
X2343Y1525D01*
X2475Y1525D02*
X2494Y1525D01*
X2524Y1525D02*
X2543Y1525D01*
X2587Y1525D02*
X2606Y1525D01*
X2636Y1525D02*
X2655Y1525D01*
X2787Y1525D02*
X2806Y1525D01*
X2836Y1525D02*
X2855Y1525D01*
X2275Y1524D02*
X2294Y1524D01*
X2324Y1524D02*
X2343Y1524D01*
X2475Y1524D02*
X2494Y1524D01*
X2524Y1524D02*
X2543Y1524D01*
X2587Y1524D02*
X2606Y1524D01*
X2636Y1524D02*
X2655Y1524D01*
X2787Y1524D02*
X2806Y1524D01*
X2836Y1524D02*
X2855Y1524D01*
X2275Y1523D02*
X2294Y1523D01*
X2324Y1523D02*
X2343Y1523D01*
X2475Y1523D02*
X2494Y1523D01*
X2524Y1523D02*
X2543Y1523D01*
X2587Y1523D02*
X2606Y1523D01*
X2636Y1523D02*
X2655Y1523D01*
X2787Y1523D02*
X2806Y1523D01*
X2836Y1523D02*
X2855Y1523D01*
X2275Y1522D02*
X2294Y1522D01*
X2324Y1522D02*
X2343Y1522D01*
X2475Y1522D02*
X2494Y1522D01*
X2524Y1522D02*
X2543Y1522D01*
X2587Y1522D02*
X2606Y1522D01*
X2636Y1522D02*
X2655Y1522D01*
X2787Y1522D02*
X2806Y1522D01*
X2836Y1522D02*
X2855Y1522D01*
X2275Y1521D02*
X2294Y1521D01*
X2323Y1521D02*
X2343Y1521D01*
X2475Y1521D02*
X2494Y1521D01*
X2523Y1521D02*
X2543Y1521D01*
X2587Y1521D02*
X2607Y1521D01*
X2636Y1521D02*
X2655Y1521D01*
X2787Y1521D02*
X2806Y1521D01*
X2836Y1521D02*
X2855Y1521D01*
X2275Y1520D02*
X2294Y1520D01*
X2323Y1520D02*
X2343Y1520D01*
X2475Y1520D02*
X2494Y1520D01*
X2523Y1520D02*
X2543Y1520D01*
X2587Y1520D02*
X2607Y1520D01*
X2636Y1520D02*
X2655Y1520D01*
X2787Y1520D02*
X2807Y1520D01*
X2836Y1520D02*
X2855Y1520D01*
X2275Y1519D02*
X2295Y1519D01*
X2323Y1519D02*
X2343Y1519D01*
X2475Y1519D02*
X2495Y1519D01*
X2523Y1519D02*
X2543Y1519D01*
X2587Y1519D02*
X2607Y1519D01*
X2635Y1519D02*
X2655Y1519D01*
X2787Y1519D02*
X2807Y1519D01*
X2835Y1519D02*
X2855Y1519D01*
X2275Y1518D02*
X2295Y1518D01*
X2322Y1518D02*
X2343Y1518D01*
X2475Y1518D02*
X2495Y1518D01*
X2522Y1518D02*
X2543Y1518D01*
X2587Y1518D02*
X2608Y1518D01*
X2635Y1518D02*
X2655Y1518D01*
X2787Y1518D02*
X2808Y1518D01*
X2835Y1518D02*
X2855Y1518D01*
X2275Y1517D02*
X2296Y1517D01*
X2322Y1517D02*
X2343Y1517D01*
X2475Y1517D02*
X2496Y1517D01*
X2522Y1517D02*
X2543Y1517D01*
X2587Y1517D02*
X2608Y1517D01*
X2634Y1517D02*
X2655Y1517D01*
X2787Y1517D02*
X2808Y1517D01*
X2834Y1517D02*
X2855Y1517D01*
X2275Y1516D02*
X2296Y1516D01*
X2321Y1516D02*
X2343Y1516D01*
X2475Y1516D02*
X2496Y1516D01*
X2521Y1516D02*
X2543Y1516D01*
X2587Y1516D02*
X2609Y1516D01*
X2634Y1516D02*
X2655Y1516D01*
X2787Y1516D02*
X2809Y1516D01*
X2834Y1516D02*
X2855Y1516D01*
X2275Y1515D02*
X2297Y1515D01*
X2320Y1515D02*
X2343Y1515D01*
X2475Y1515D02*
X2497Y1515D01*
X2520Y1515D02*
X2543Y1515D01*
X2587Y1515D02*
X2610Y1515D01*
X2633Y1515D02*
X2655Y1515D01*
X2787Y1515D02*
X2810Y1515D01*
X2833Y1515D02*
X2855Y1515D01*
X2275Y1514D02*
X2298Y1514D01*
X2319Y1514D02*
X2343Y1514D01*
X2475Y1514D02*
X2498Y1514D01*
X2519Y1514D02*
X2543Y1514D01*
X2587Y1514D02*
X2611Y1514D01*
X2632Y1514D02*
X2655Y1514D01*
X2787Y1514D02*
X2810Y1514D01*
X2832Y1514D02*
X2855Y1514D01*
X2275Y1513D02*
X2299Y1513D01*
X2318Y1513D02*
X2343Y1513D01*
X2475Y1513D02*
X2499Y1513D01*
X2518Y1513D02*
X2543Y1513D01*
X2587Y1513D02*
X2612Y1513D01*
X2631Y1513D02*
X2655Y1513D01*
X2787Y1513D02*
X2812Y1513D01*
X2831Y1513D02*
X2855Y1513D01*
X2275Y1512D02*
X2301Y1512D01*
X2316Y1512D02*
X2343Y1512D01*
X2475Y1512D02*
X2501Y1512D01*
X2516Y1512D02*
X2543Y1512D01*
X2587Y1512D02*
X2613Y1512D01*
X2629Y1512D02*
X2655Y1512D01*
X2787Y1512D02*
X2813Y1512D01*
X2829Y1512D02*
X2855Y1512D01*
X2275Y1511D02*
X2304Y1511D01*
X2314Y1511D02*
X2343Y1511D01*
X2475Y1511D02*
X2504Y1511D01*
X2514Y1511D02*
X2543Y1511D01*
X2587Y1511D02*
X2616Y1511D01*
X2626Y1511D02*
X2655Y1511D01*
X2787Y1511D02*
X2816Y1511D01*
X2826Y1511D02*
X2855Y1511D01*
X2275Y1510D02*
X2343Y1510D01*
X2475Y1510D02*
X2543Y1510D01*
X2587Y1510D02*
X2655Y1510D01*
X2787Y1510D02*
X2855Y1510D01*
X2275Y1509D02*
X2343Y1509D01*
X2475Y1509D02*
X2543Y1509D01*
X2587Y1509D02*
X2655Y1509D01*
X2787Y1509D02*
X2855Y1509D01*
X2275Y1508D02*
X2343Y1508D01*
X2475Y1508D02*
X2543Y1508D01*
X2587Y1508D02*
X2655Y1508D01*
X2787Y1508D02*
X2855Y1508D01*
X2275Y1507D02*
X2343Y1507D01*
X2475Y1507D02*
X2543Y1507D01*
X2587Y1507D02*
X2655Y1507D01*
X2787Y1507D02*
X2855Y1507D01*
X2275Y1506D02*
X2343Y1506D01*
X2475Y1506D02*
X2543Y1506D01*
X2587Y1506D02*
X2655Y1506D01*
X2787Y1506D02*
X2855Y1506D01*
X2275Y1505D02*
X2343Y1505D01*
X2475Y1505D02*
X2543Y1505D01*
X2587Y1505D02*
X2655Y1505D01*
X2787Y1505D02*
X2855Y1505D01*
X2275Y1504D02*
X2343Y1504D01*
X2475Y1504D02*
X2543Y1504D01*
X2587Y1504D02*
X2655Y1504D01*
X2787Y1504D02*
X2855Y1504D01*
X2275Y1503D02*
X2343Y1503D01*
X2475Y1503D02*
X2543Y1503D01*
X2587Y1503D02*
X2655Y1503D01*
X2787Y1503D02*
X2855Y1503D01*
X2275Y1502D02*
X2343Y1502D01*
X2475Y1502D02*
X2543Y1502D01*
X2587Y1502D02*
X2655Y1502D01*
X2787Y1502D02*
X2855Y1502D01*
X2275Y1501D02*
X2343Y1501D01*
X2475Y1501D02*
X2543Y1501D01*
X2587Y1501D02*
X2655Y1501D01*
X2787Y1501D02*
X2855Y1501D01*
X2275Y1500D02*
X2343Y1500D01*
X2475Y1500D02*
X2543Y1500D01*
X2587Y1500D02*
X2655Y1500D01*
X2787Y1500D02*
X2855Y1500D01*
X2275Y1499D02*
X2343Y1499D01*
X2475Y1499D02*
X2543Y1499D01*
X2587Y1499D02*
X2655Y1499D01*
X2787Y1499D02*
X2855Y1499D01*
X2275Y1498D02*
X2343Y1498D01*
X2475Y1498D02*
X2543Y1498D01*
X2587Y1498D02*
X2655Y1498D01*
X2787Y1498D02*
X2855Y1498D01*
X2275Y1497D02*
X2343Y1497D01*
X2475Y1497D02*
X2543Y1497D01*
X2587Y1497D02*
X2655Y1497D01*
X2787Y1497D02*
X2855Y1497D01*
X2275Y1496D02*
X2343Y1496D01*
X2475Y1496D02*
X2543Y1496D01*
X2587Y1496D02*
X2655Y1496D01*
X2787Y1496D02*
X2855Y1496D01*
X2275Y1495D02*
X2343Y1495D01*
X2475Y1495D02*
X2543Y1495D01*
X2587Y1495D02*
X2655Y1495D01*
X2787Y1495D02*
X2855Y1495D01*
X2275Y1494D02*
X2343Y1494D01*
X2475Y1494D02*
X2543Y1494D01*
X2587Y1494D02*
X2655Y1494D01*
X2787Y1494D02*
X2855Y1494D01*
X2275Y1493D02*
X2343Y1493D01*
X2475Y1493D02*
X2543Y1493D01*
X2587Y1493D02*
X2655Y1493D01*
X2787Y1493D02*
X2855Y1493D01*
X2275Y1492D02*
X2343Y1492D01*
X2475Y1492D02*
X2543Y1492D01*
X2587Y1492D02*
X2655Y1492D01*
X2787Y1492D02*
X2855Y1492D01*
X2275Y1491D02*
X2343Y1491D01*
X2475Y1491D02*
X2543Y1491D01*
X2587Y1491D02*
X2655Y1491D01*
X2787Y1491D02*
X2855Y1491D01*
D02*
G04 End of Mask1*
M02*