; NON-PLATED HOLES START AT T1
; THROUGH (PLATED) HOLES START AT T100
M48
INCH
T1C0.196850
T2C0.125984
T100C0.030000
T101C0.032000
T102C0.039370
T103C0.027559
T104C0.070866
T105C0.040157
T106C0.040158
T107C0.031497
T108C0.023622
T109C0.035000
T110C0.052000
%
T1
X019470Y032746
T2
X024344Y001370
X001344Y001370
T100
X024594Y012745
X027219Y028995
X025594Y012745
X038219Y035620
X000719Y010620
X042844Y030370
X027094Y011745
X025094Y011745
X010344Y013745
X042719Y006245
X005344Y016870
X001719Y010620
X036219Y008245
X036969Y031370
X038969Y031370
X006344Y016870
X037219Y008245
X033844Y031370
X042719Y004245
X039469Y009106
X019594Y030995
X017594Y030995
X008469Y015995
X044594Y035620
X001844Y007495
X028719Y028995
X041469Y009106
X043594Y035620
X027094Y025870
X021818Y028950
X028094Y025870
X010469Y015995
X042844Y028370
X003381Y005670
X038219Y034620
X001844Y005495
X030719Y028995
X004381Y005670
X023594Y029870
X027719Y026745
X025719Y026745
X033844Y030370
X009344Y013745
X025219Y028995
T101
X025719Y030870
X027719Y027870
X024719Y030870
X026719Y027870
X022719Y030870
X021719Y030870
X023719Y027870
X027719Y030870
X026719Y030870
X023719Y030870
X025719Y027870
X024719Y027870
X022719Y027870
X021719Y027870
T102
X004719Y022620
X001719Y022620
X025094Y018245
X025094Y015245
X004719Y024620
X001719Y024620
X026219Y018245
X026219Y015245
X005094Y030620
X023094Y018245
X023094Y015245
X028219Y018245
X001094Y030620
X028219Y015245
T103
X004469Y025995
X022969Y024620
X022969Y025620
X005469Y025995
T104
X010622Y034759
X014369Y034853
X006078Y034742
X002288Y034759
T105
X036719Y033120
X034719Y033120
X022344Y021370
X018844Y022370
X036719Y035120
X020344Y021370
X028719Y027120
X034719Y035120
X039719Y000745
X029844Y000745
X027844Y000745
X010233Y008245
X004344Y008245
X040719Y037870
X005344Y010245
X011372Y002245
X019344Y021370
X003344Y010245
X003719Y014120
X033344Y000745
X037844Y011870
X029219Y022495
X006344Y009245
X017344Y021370
X017844Y003495
X004620Y037786
X001719Y014120
X012344Y019370
X027219Y022495
X015344Y021370
X017469Y034620
X003719Y016120
X037844Y013870
X009233Y008245
X010344Y019370
X023969Y034120
X013344Y021370
X005316Y001245
X013844Y003495
X001719Y016120
X011344Y021370
X017469Y036620
X031469Y034120
X003719Y018120
X037844Y015870
X008233Y010245
X023969Y036120
X005316Y003245
X001719Y018120
X041802Y006703
X031469Y036120
X046219Y020495
X015532Y025957
X011844Y007245
X009344Y019370
X004344Y020370
X006844Y004245
X007344Y019370
X046219Y022495
X004844Y004245
X028219Y034120
X022219Y002495
X000677Y026647
X008344Y021370
X002844Y004245
X026219Y034120
X020219Y002495
X015538Y029814
X006344Y021370
X046219Y024495
X028219Y036120
X022594Y012495
X013538Y029814
X038802Y003703
X026219Y036120
X020594Y012495
X011538Y029814
X008844Y007245
X015219Y001495
X022969Y037995
X034594Y017745
X019219Y002495
X032594Y017745
X001469Y021120
X017219Y002495
X030469Y037995
X005344Y002245
X035719Y034120
X046219Y019510
X030594Y017745
X003344Y002245
X034594Y018870
X015219Y005495
X033719Y034120
X008538Y029814
X032594Y018870
X020344Y037870
X020344Y019370
X035719Y036120
X030594Y018870
X033719Y036120
X021344Y021370
X014538Y030897
X012538Y030897
X005469Y028245
X002719Y013120
X029594Y017745
X025219Y037995
X010538Y030897
X028844Y000745
X003469Y028245
X005344Y008245
X000719Y013120
X046219Y002620
X019344Y019370
X006344Y010245
X037844Y009870
X002719Y015120
X029594Y018870
X022969Y033120
X017344Y019370
X011899Y037786
X012344Y020370
X034344Y000745
X000719Y015120
X046219Y004620
X010344Y020370
X018344Y021370
X018844Y003495
X021608Y037786
X030469Y033120
X002719Y017120
X046219Y014495
X013344Y019370
X022969Y035120
X016344Y021370
X012344Y022370
X010844Y004245
X009538Y030897
X000719Y017120
X046219Y006620
X011344Y019370
X014344Y021370
X010344Y022370
X006316Y001245
X007538Y030897
X030469Y035120
X008233Y008245
X046219Y016495
X032344Y005745
X004316Y001245
X004603Y033490
X032469Y034120
X046219Y008620
X014291Y037786
X038719Y037870
X006316Y003245
X027719Y014120
X009344Y020370
X004316Y003245
X046219Y037870
X021219Y001495
X032469Y036120
X013719Y032245
X007344Y020370
X014533Y024922
X009844Y004245
X040802Y006703
X025219Y033120
X044219Y037870
X005344Y020370
X012533Y024922
X007844Y004245
X008344Y019370
X003344Y020370
X010533Y024922
X007344Y022370
X005844Y004245
X025219Y035120
X042469Y037870
X015219Y015995
X003844Y004245
X027219Y034120
X029469Y034120
X021219Y005495
X013219Y015995
X023594Y012495
X040719Y000745
X003121Y032092
X039802Y006703
X027219Y036120
X018219Y001495
X029469Y036120
X021594Y012495
X037802Y006703
X016219Y001495
X009533Y024922
X008983Y032258
X014219Y001495
X023969Y037995
X007533Y024922
X006983Y032258
X022344Y020370
X033594Y017745
X031469Y037995
X006344Y002245
X018219Y005495
X000719Y024745
X036719Y034120
X020344Y020370
X031594Y017745
X037719Y000745
X016219Y005495
X034719Y034120
X033594Y018870
X014219Y005495
X021344Y019370
X036719Y036120
X031594Y018870
X002733Y037120
X034719Y036120
X015538Y030897
X028219Y037995
X013538Y030897
X010233Y009245
X019344Y020370
X004344Y009245
X003719Y013120
X026219Y037995
X037844Y010870
X011538Y030897
X004469Y028245
X006344Y008245
X025219Y022495
X017344Y020370
X001719Y013120
X015344Y020370
X003719Y015120
X037844Y012870
X023969Y033120
X018344Y019370
X013344Y020370
X029844Y005745
X001719Y015120
X011344Y020370
X027844Y005745
X015344Y022370
X017469Y035620
X041802Y003703
X031469Y033120
X003719Y017120
X037844Y014870
X014344Y019370
X009233Y009245
X023969Y035120
X011844Y004245
X001719Y017120
X011344Y022370
X013532Y025957
X017469Y037620
X008538Y030897
X031469Y035120
X033344Y005745
X035719Y037995
X011532Y025957
X033719Y037995
X014311Y033490
X046219Y021495
X028219Y033120
X026719Y014120
X022219Y001495
X014719Y032245
X010344Y001245
X008344Y020370
X015533Y024922
X004344Y021370
X026219Y033120
X020219Y001495
X006344Y020370
X013533Y024922
X008844Y004245
X046219Y023495
X028219Y035120
X010344Y003245
X011533Y024922
X008344Y022370
X018219Y015995
X034594Y013620
X006844Y007245
X020844Y022370
X026219Y035120
X024594Y014120
X006344Y022370
X016219Y015995
X008532Y025957
X046219Y025495
X032594Y013620
X004844Y007245
X034594Y014745
X030719Y027120
X022219Y005495
X014219Y015995
X030594Y013620
X002844Y007245
X032594Y014745
X009344Y001245
X020219Y005495
X012219Y015995
X030594Y014745
X019219Y001495
X015219Y002495
X038802Y006703
X001469Y020120
X017219Y001495
X009344Y003245
X035719Y033120
X046219Y018510
X009983Y032258
X019844Y022370
X003344Y001245
X033719Y033120
X008533Y024922
X007983Y032258
X035719Y035120
X029594Y013620
X032469Y037995
X019219Y005495
X033719Y035120
X021344Y020370
X029594Y014745
X038719Y000745
X017219Y005495
X029719Y028120
X010233Y010245
X004344Y010245
X010372Y002245
X046219Y001620
X016538Y030897
X002719Y014120
X032344Y000745
X028219Y022495
X005344Y009245
X000719Y014120
X046219Y003620
X027219Y037995
X029469Y037995
X026219Y022495
X018344Y020370
X003344Y009245
X014844Y003495
X002719Y016120
X022969Y034120
X024219Y022495
X016344Y020370
X012344Y021370
X012844Y003495
X044969Y012995
X000719Y016120
X011344Y018370
X014344Y020370
X009233Y010245
X010344Y021370
X009372Y002245
X030469Y034120
X002719Y018120
X046219Y015495
X022969Y036120
X028844Y005745
X032469Y033120
X000719Y018120
X046219Y007620
X014344Y022370
X040802Y003703
X016532Y025957
X030469Y036120
X008233Y009245
X046219Y017495
X014532Y025957
X010844Y007245
X032469Y035120
X034344Y005745
X046219Y009620
X036719Y037995
X011899Y033490
X012532Y025957
X034719Y037995
X009344Y021370
X010532Y025957
X021608Y033490
X021219Y002495
X007344Y021370
X020344Y036495
X025219Y034120
X042469Y036870
X011344Y001245
X014538Y029814
X016533Y024922
X005344Y021370
X039802Y003703
X027219Y033120
X029469Y033120
X044963Y011000
X012538Y029814
X003344Y021370
X037802Y003703
X009844Y007245
X025219Y036120
X010538Y029814
X011344Y003245
X019219Y015995
X007844Y007245
X021844Y022370
X027219Y035120
X029469Y035120
X017219Y015995
X009532Y025957
X001358Y037120
X033594Y013620
X005844Y007245
X023594Y014120
X007532Y025957
X031594Y013620
X003844Y007245
X033594Y014745
X018219Y002495
X031594Y014745
X016219Y002495
X004344Y002245
X014219Y002495
X009538Y029814
X000719Y023745
T106
X005564Y031479
X000703Y031479
T107
X044844Y008620
X044844Y017479
X044844Y021479
X024219Y021120
X044844Y018510
X026719Y020635
X044844Y019495
X044844Y016495
X026719Y021620
X044844Y020495
X044844Y002604
X029203Y021120
X044844Y023479
X044844Y007604
X044844Y001620
X044844Y022495
X044844Y004604
X044844Y025479
X044844Y006620
X044844Y015479
X044844Y009604
X044844Y003620
X044844Y024495
X028219Y021120
X044844Y014495
X025203Y021120
T108
X037844Y017495
X041344Y002745
X038844Y033870
X042594Y026370
X042094Y026995
X018844Y037870
X006469Y014245
X005469Y027120
X014969Y027870
X020344Y014995
X041594Y020370
X037844Y019245
X023969Y004620
X037844Y018370
X011469Y013870
X039469Y035370
X036094Y018245
X024469Y002620
X046594Y029745
X036344Y015995
X004469Y011745
X017344Y038745
X022969Y016245
X037594Y028870
X015469Y017620
X031094Y031620
X001094Y004620
X042094Y001870
X003344Y029745
X025219Y006245
X039969Y022870
X041316Y008120
X032844Y032120
T109
X024219Y010745
X043969Y005995
X043366Y025436
X042330Y015870
X039330Y011870
X044969Y029870
X036094Y023370
X017969Y011995
X039094Y026370
X007969Y014995
X041969Y033870
X036719Y006370
X031219Y010745
X019844Y014245
X026219Y007745
X036094Y030370
X039330Y017870
X042330Y010870
X014969Y014995
X036094Y029370
X030469Y025245
X005969Y011995
X033219Y007745
X020719Y027995
X018969Y011995
X008969Y014995
X042330Y009870
X017219Y029995
X032219Y010745
X034344Y026245
X039094Y021370
X027219Y007745
X044969Y031870
X012969Y011995
X041969Y027870
X042330Y016870
X015969Y014995
X039330Y012870
X006969Y011995
X034219Y007745
X036094Y024370
X039094Y027370
X041969Y034870
X044094Y029370
X013969Y011995
X022219Y007745
X016969Y014995
X039330Y018870
X024219Y025370
X040719Y015620
X042330Y011870
X023969Y026995
X025219Y010745
X020140Y029310
X010969Y014995
X039094Y022370
X044969Y032870
X035969Y002620
X041969Y028870
X042330Y017870
X039330Y013870
X036094Y025370
X026219Y010745
X011969Y014995
X039094Y028370
X030219Y007745
X009969Y014995
X033219Y010745
X028219Y007745
X020719Y030995
X028969Y030245
X042330Y012870
X027219Y010745
X039094Y023370
X007969Y011995
X041969Y030870
X035219Y007745
X036719Y003370
X019844Y011245
X044969Y033870
X034219Y010745
X029219Y007745
X043969Y008995
X041969Y029870
X042330Y018870
X039094Y030370
X039330Y014870
X014969Y011995
X036094Y026370
X034416Y023425
X023219Y007745
X017469Y013870
X017969Y014995
X039094Y029370
X033469Y025245
X008969Y011995
X022219Y010745
X042330Y013870
X015969Y011995
X005969Y014995
X044969Y027870
X036094Y021370
X024219Y007745
X018969Y014995
X034344Y029245
X039094Y024370
X041969Y031870
X044969Y034870
X012969Y014995
X031219Y007745
X016969Y011995
X039330Y015870
X006969Y014995
X030219Y010745
X036094Y027370
X029969Y030245
X010969Y011995
X025186Y025623
X028219Y010745
X013969Y014995
X032219Y007745
X020969Y026995
X040719Y018620
X042330Y014870
X039330Y010870
X044969Y028870
X035219Y010745
X036094Y022370
X011969Y011995
X039094Y025370
X039330Y009870
X029219Y010745
X041969Y032870
X014469Y013870
X035969Y005620
X009969Y011995
X023219Y010745
X039330Y016870
X026153Y025877
X036094Y028370
X032844Y020870
X025219Y007745
X044969Y030870
T110
X027344Y004745
X028844Y004745
X031858Y001745
X033344Y001745
X030344Y004745
X034844Y001745
X031858Y004745
X027344Y001745
X028844Y001745
X033344Y004745
X030344Y001745
X034844Y004745
T00
M30
